<?xml version="1.0" encoding="UTF-8" standalone="no"?>
<!DOCTYPE svg PUBLIC "-//W3C//DTD SVG 1.1//EN" "http://www.w3.org/Graphics/SVG/1.1/DTD/svg11.dtd">
<!-- Created with Vectornator (http://vectornator.io/) -->
<svg height="100%" stroke-miterlimit="10" style="fill-rule:nonzero;clip-rule:evenodd;stroke-linecap:round;stroke-linejoin:round;" version="1.1" viewBox="0 0 16 9" width="100%" xml:space="preserve" xmlns="http://www.w3.org/2000/svg" xmlns:vectornator="http://vectornator.io" xmlns:xlink="http://www.w3.org/1999/xlink">
<defs/>
<clipPath id="ArtboardFrame">
<rect height="9" width="16" x="0" y="0"/>
</clipPath>
<g clip-path="url(#ArtboardFrame)" id="Ebene-3" vectornator:layerName="Ebene 3">
<path d="M-0.122065-8.88178e-16L16.0317-8.88178e-16L16.0317 9.07408L-0.122065 9.07408L-0.122065-8.88178e-16Z" fill="#93d4e6" fill-rule="nonzero" opacity="1" stroke="#000000" stroke-linecap="butt" stroke-linejoin="round" stroke-width="0.1" vectornator:layerName="Rechteck 1"/>
</g>
<g id="Ebene-1" vectornator:layerName="Ebene 1">
<path d="M3.7936 0.200719L12.1161 0.200719L12.1161 8.52051L3.7936 8.52051L3.7936 0.200719Z" fill="#faffae" fill-rule="nonzero" opacity="1" stroke="#000000" stroke-linecap="butt" stroke-linejoin="round" stroke-opacity="0" stroke-width="0.1" vectornator:layerName="Rechteck 1"/>
</g>
<g clip-path="url(#ArtboardFrame)" id="Ebene-2" vectornator:layerName="Ebene 2">
<g opacity="1" vectornator:layerName="Kurve 1">
<path d="M-2.15121 8.1109C-2.0678 8.21814-2.05658 8.24499-2.14714 8.35065" fill="#78492c" fill-rule="nonzero" stroke="none"/>
<path d="M-1.8125 6.25C-2.28888 6.16197-2.78812 6.2662-3.21875 6.5625C-4.08001 7.1551-4.31135 8.32624-3.71875 9.1875C-2.93699 8.77087-2.81658 8.67953-2.9375 8.78125C-3.0267 8.85629-3.30863 8.8008-3.28125 8.6875C-3.23504 8.49631-3.00386 8.26698-2.8125 8.3125C-2.65877 8.34906-2.15625 8.34375-2.15625 8.34375C-2.15625 8.34375-1.2755 7.57248-1.375 7.6875C-1.49029 7.82077-1.51987 8.21282-1.34375 8.21875C-1.1177 8.22636-0.901088 7.94487-0.90625 7.71875C-0.909721 7.56671-0.915455 7.70298-0.59375 7.03125C-0.89005 6.60062-1.33612 6.33803-1.8125 6.25Z" fill="#000000" stroke="none"/>
</g>
<path d="M-1.24912 7.68424C-1.24641 7.6883-1.2437 7.69236-1.24099 7.69643" fill="#78492c" fill-rule="nonzero" opacity="1" stroke="#000000" stroke-linecap="round" stroke-linejoin="round" stroke-width="0.466565" vectornator:layerName="Kurve 2"/>
<path d="M-0.35954 8.27245C-0.313175 8.27245 0.626874 8.14222 0.651372 8.17897C0.655579 8.18528 0.63868 8.23773 0.638328 8.23984C0.598622 8.47807 0.563779 8.72308 0.510061 8.95943C0.509639 8.96129 0.499543 9.02236 0.499191 9.02248C0.372024 9.06487-0.168513 8.91653-0.246491 9.07248C-0.250591 9.08068-0.252289 9.05509-0.255187 9.04639C-0.28534 8.95594-0.297299 8.86217-0.331278 8.77247C-0.391822 8.61263-0.37867 8.38793-0.461718 8.25506" fill="#844d2c" fill-rule="nonzero" opacity="1" stroke="#000000" stroke-linecap="round" stroke-linejoin="round" stroke-width="0.1" vectornator:layerName="Kurve 3"/>
<path d="M-0.114159 8.21784C-0.111928 8.23104-0.14388 8.16453-0.153283 8.14337C-0.181649 8.07955-0.230081 8.0276-0.264346 7.96668C-0.318018 7.87127-0.613139 7.43485-0.544528 7.3205C-0.485724 7.22249 0.435937 7.22711 0.641826 7.22711C0.650533 7.22711 0.703522 7.21783 0.707454 7.22963C0.757774 7.38059 0.60746 8.05872 0.477756 8.156C0.424489 8.19595-0.11996 8.1835-0.114159 8.21784Z" fill="#844d2c" fill-rule="nonzero" opacity="1" stroke="#000000" stroke-linecap="round" stroke-linejoin="round" stroke-width="0.1" vectornator:layerName="Kurve 4"/>
<path d="M-0.0959262 7.18598C-0.149029 7.21253 0.0224306 7.17046 0.0817344 7.17329C0.186297 7.17827 0.375172 7.22088 0.475126 7.1809C0.480472 7.17876 0.633481 6.48141 0.627406 6.47533C0.503143 6.35107-0.27806 6.24377-0.436019 6.40173C-0.486375 6.45209-0.338996 6.74471-0.309119 6.8002C-0.261205 6.88918-0.150637 7.10278-0.055318 7.15044" fill="#844d2c" fill-rule="nonzero" opacity="1" stroke="#000000" stroke-linecap="round" stroke-linejoin="round" stroke-width="0.1" vectornator:layerName="Kurve 5"/>
<path d="M-0.0908501 6.31798C-0.14895 6.31798-0.468701 5.80721-0.423329 5.71647C-0.379176 5.62816 0.469704 5.61207 0.576646 5.71901C0.662964 5.80533 0.471788 6.31865 0.386295 6.33574C0.275654 6.35787 0.142706 6.2926 0.0284363 6.2926C-0.0350365 6.2926-0.218686 6.32606-0.161914 6.29767" fill="#844d2c" fill-rule="nonzero" opacity="1" stroke="#000000" stroke-linecap="round" stroke-linejoin="round" stroke-width="0.1" vectornator:layerName="Kurve 6"/>
<path d="M0.325557 5.60495C0.2968 5.66409 0.371094 5.48157 0.3947 5.42019C0.419995 5.35442 0.583583 5.07633 0.512583 5.00533C0.463212 4.95596-0.137209 5.04304-0.176582 5.08241C-0.248937 5.15476-0.103477 5.54317-0.0382956 5.60835C-0.0119802 5.63467 0.350452 5.55375 0.325557 5.60495Z" fill="#844d2c" fill-rule="nonzero" opacity="1" stroke="#000000" stroke-linecap="round" stroke-linejoin="round" stroke-width="0.1" vectornator:layerName="Kurve 7"/>
<path d="M15.1646 5.14333C15.0829 5.10088 15.045 4.91743 15.0137 4.83437C14.991 4.77417 14.896 4.65363 14.9203 4.58912C14.9389 4.53972 15.6617 4.41831 15.7495 4.48965C15.9156 4.62454 15.6331 5.3867 15.1646 5.14333Z" fill="#844d2c" fill-rule="nonzero" opacity="1" stroke="#000000" stroke-linecap="round" stroke-linejoin="round" stroke-width="0.1" vectornator:layerName="Kurve 8"/>
<path d="M15.148 5.96759C15.0051 5.90752 14.9091 5.46726 14.8572 5.29244C14.8564 5.28983 14.83 5.21118 14.838 5.20605C15.0073 5.09832 15.612 5.16656 15.8049 5.22147C15.8778 5.24221 15.7326 5.62998 15.722 5.66851C15.6372 5.978 15.4593 6.09837 15.148 5.96759Z" fill="#844d2c" fill-rule="nonzero" opacity="1" stroke="#000000" stroke-linecap="round" stroke-linejoin="round" stroke-width="0.1" vectornator:layerName="Kurve 9"/>
<path d="M15.149 6.96167C15.2122 6.69134 14.7392 6.35201 14.7109 6.07913C14.7103 6.073 14.7006 6.0256 14.705 6.02197C14.8199 5.92693 15.8181 6.02216 15.8973 6.1466C15.936 6.20744 15.789 6.87719 15.6895 6.92948C15.5965 6.97833 15.4291 6.92507 15.3222 6.96072C15.3014 6.96768 15.1437 6.9845 15.149 6.96167Z" fill="#844d2c" fill-rule="nonzero" opacity="1" stroke="#000000" stroke-linecap="round" stroke-linejoin="round" stroke-width="0.1" vectornator:layerName="Kurve 10"/>
<path d="M15.0472 8.01397C15.0588 8.02142 15.0152 7.92228 15.0083 7.90074C14.9845 7.82655 14.9553 7.75504 14.9312 7.681C14.8994 7.58315 14.6816 7.16112 14.7326 7.07617C14.8159 6.93722 15.3947 6.9352 15.5311 6.94249C15.642 6.94842 15.8507 6.90954 15.9417 7.00193C16.01 7.07124 15.7714 7.9582 15.6959 7.97568C15.5471 8.01013 15.3905 7.95761 15.2395 7.99916C15.1775 8.0162 14.9933 7.97905 15.0472 8.01397Z" fill="#844d2c" fill-rule="nonzero" opacity="1" stroke="#000000" stroke-linecap="round" stroke-linejoin="round" stroke-width="0.1" vectornator:layerName="Kurve 11"/>
<path d="M14.9943 8.96266C14.9883 8.97125 14.8961 8.72446 14.886 8.68836C14.8536 8.57316 14.7061 8.21507 14.7672 8.09906C14.8361 7.96809 15.3278 8.00228 15.4732 7.99195C15.5537 7.98623 15.8486 7.92638 15.9052 7.99479C15.9666 8.06903 15.915 8.28659 15.9035 8.37225C15.8968 8.4218 15.8034 8.93469 15.7666 8.95404C15.6203 9.0309 15.0868 8.82844 14.9943 8.96266Z" fill="#844d2c" fill-rule="nonzero" opacity="1" stroke="#000000" stroke-linecap="round" stroke-linejoin="round" stroke-width="0.1" vectornator:layerName="Kurve 12"/>
<path d="M0.0395366 4.99511C-0.153922 4.86614-0.218251 4.34469 0.100476 4.32477C0.257881 4.31494 0.230761 4.71481 0.230761 4.79548C0.230761 4.85877 0.233964 5.04464 0.21395 4.9846" fill="#52733f" fill-rule="nonzero" opacity="1" stroke="#000000" stroke-linecap="round" stroke-linejoin="round" stroke-width="0.1" vectornator:layerName="Kurve 13"/>
<path d="M0.23784 4.98918C0.177518 4.96858 0.268255 4.71469 0.28653 4.67507C0.377229 4.47843 0.677303 4.19596 0.919137 4.32361C1.07342 4.40505 1.22289 4.567 1.20927 4.75343C1.20511 4.81026 1.19161 4.8672 1.18537 4.92345C1.18148 4.95853 1.18093 5.06391 1.1762 5.02894C1.15995 4.90889 1.25153 4.7457 1.30974 4.64861C1.34377 4.59188 1.363 4.40868 1.39215 4.46806C1.5217 4.73198 1.31412 5.01437 1.56886 5.27287C1.57767 5.28182 1.56983 5.2445 1.56948 5.23891C1.56257 5.12996 1.63564 5.01358 1.70864 4.93862C1.74761 4.8986 1.84993 4.78402 1.84377 4.83953C1.77926 5.42138 2.03071 5.62364 2.10015 6.13653C2.11066 6.21418 2.16602 5.86404 2.21015 5.92879C2.30131 6.06256 2.35847 6.30582 2.42573 6.46252C2.44769 6.51367 2.49073 6.56794 2.49211 6.62553C2.4923 6.63351 2.47404 6.70436 2.48541 6.69159C2.54736 6.62203 2.56194 6.44725 2.59123 6.35672C2.8466 5.56757 2.75409 4.27828 1.98145 3.79671C1.53514 3.51853 1.03218 3.67704 0.64452 3.96988C0.522006 4.06242 0.41506 4.15729 0.315762 4.27499C0.276665 4.32133 0.176732 4.47109 0.222213 4.43099" fill="#52733f" fill-rule="nonzero" opacity="1" stroke="#000000" stroke-linecap="round" stroke-linejoin="round" stroke-width="0.1" vectornator:layerName="Kurve 14"/>
<path d="M0.180774 4.34686C0.00756065 4.21327 0.474254 3.44838 0.536471 3.27851C0.859574 2.39637 2.09321 0.769179 3.17942 1.50605C3.64058 1.8189 3.83768 2.40887 3.91154 2.93175C3.93481 3.0965 3.92802 3.24687 3.9387 3.41092C3.93893 3.41447 3.94176 3.63296 3.93657 3.63106C3.75184 3.5634 3.52237 3.2767 3.32567 3.17543C3.24992 3.13643 3.02211 3.16922 2.99033 3.14389C2.95376 3.11475 2.94976 2.75085 2.94075 2.67112C2.93993 2.66387 2.88684 2.46909 2.88364 2.4731C2.85675 2.50684 2.94073 3.15323 2.8629 3.14287C2.62672 3.11141 2.41874 3.1082 2.22871 3.12968C2.10061 3.14415 2.13952 2.88543 2.06929 2.77733C2.04071 2.73335 1.96114 2.6056 1.96704 2.65772C1.98681 2.83267 2.03132 3.02164 2.05189 3.20367C2.05556 3.23612 1.99509 3.16557 1.96249 3.16362C1.87932 3.15866 1.79049 3.14904 1.70807 3.16538C1.51815 3.20302 1.34034 3.34481 1.19004 3.46312C0.850123 3.73069 0.560702 4.01125 0.247586 4.30651C0.215692 4.33659 0.229372 4.38434 0.180774 4.34686Z" fill="#52733f" fill-rule="nonzero" opacity="1" stroke="#000000" stroke-linecap="round" stroke-linejoin="round" stroke-width="0.1" vectornator:layerName="Kurve 15"/>
<path d="M0.0485536 4.29477C0.00825059 4.27945-0.0142777 4.07009-0.0433858 4.00789C-0.0863559 3.91606-0.266321 3.74942-0.26589 3.65744C-0.265428 3.55908-0.18513 3.45448-0.174154 3.35527C-0.172573 3.34098-0.15922 3.24043-0.15122 3.24462C0.0775118 3.36429 0.230021 3.71428 0.189578 3.95558C0.180218 4.01142 0.100625 4.31455 0.0485536 4.29477Z" fill="#52733f" fill-rule="nonzero" opacity="1" stroke="#000000" stroke-linecap="round" stroke-linejoin="round" stroke-width="0.1" vectornator:layerName="Kurve 16"/>
<path d="M15.2802 4.44527C15.2715 4.45192 14.8706 3.76918 15.3292 3.74097C15.4782 3.7318 15.5424 4.28761 15.4924 4.38322C15.4347 4.49342 15.3493 4.39222 15.2802 4.44527Z" fill="#52733f" fill-rule="nonzero" opacity="1" stroke="#000000" stroke-linecap="round" stroke-linejoin="round" stroke-width="0.1" vectornator:layerName="Kurve 17"/>
<path d="M15.5465 4.12823C15.53 4.13092 15.5411 4.13115 15.5501 4.10559C15.6137 3.92684 15.7359 3.76328 15.9275 3.6915C16.0464 3.64695 16.1364 3.66238 16.2555 3.67494C16.2868 3.67825 16.333 3.74235 16.3424 3.71226C16.3973 3.53639 16.6771 3.08081 16.6509 2.91986C16.6428 2.87029 16.2192 3.07287 16.1827 3.09148C16.0119 3.17869 15.485 3.50101 15.5283 3.76741" fill="#52733f" fill-rule="nonzero" opacity="1" stroke="#000000" stroke-linecap="round" stroke-linejoin="round" stroke-width="0.1" vectornator:layerName="Kurve 18"/>
<path d="M15.5534 4.13539C15.5228 4.1384 15.6191 4.00197 15.6276 3.98599C15.6743 3.89835 15.7274 3.79904 15.8074 3.73739C15.9468 3.62998 16.2704 3.76397 16.3581 3.69218C16.4251 3.63734 16.7017 3.05537 16.6725 2.95961C16.6191 2.78404 16.4564 3.11498 16.4337 2.69884C16.4221 2.48552 16.4561 2.02971 16.2637 1.87174C16.1638 1.78975 15.9919 2.2217 15.9653 2.26967C15.728 2.69614 15.5954 3.14153 15.4242 3.58851" fill="#52733f" fill-rule="nonzero" opacity="1" stroke="#000000" stroke-linecap="round" stroke-linejoin="round" stroke-width="0.1" vectornator:layerName="Kurve 19"/>
<path d="M16.1587 3.06338C16.0109 3.0779 15.69 3.41943 15.6384 3.55415" fill="#52733f" fill-rule="nonzero" opacity="1" stroke="#000000" stroke-linecap="round" stroke-linejoin="round" stroke-width="0.1" vectornator:layerName="Kurve 20"/>
<path d="M15.2788 3.71894C15.1506 3.48527 15.1323 3.12276 14.8859 2.94715C14.7563 2.85475 14.6638 2.77877 14.5046 2.73449C14.4966 2.73226 14.389 2.73328 14.3933 2.713C14.4199 2.58631 14.8227 2.74421 14.5742 2.58096C14.4284 2.48517 14.2776 2.59439 14.1593 2.54621C14.0178 2.4886 13.7256 2.23702 13.6158 2.11831C13.5516 2.04899 13.3546 2.06288 13.374 1.97044C13.3871 1.90831 13.5433 1.83575 13.5982 1.81012C13.6405 1.79039 13.782 1.77878 13.7368 1.79063C13.215 1.92767 13.2627 1.74963 13.0672 1.34935C13.015 1.24242 12.7857 1.17212 12.8457 1.06936C12.9095 0.960241 13.4944 1.05477 13.5618 1.07576C14.1841 1.26947 14.7981 1.75616 15.148 2.30345C15.2634 2.48392 15.3819 2.68472 15.4534 2.88688C15.4862 2.97953 15.569 3.26248 15.544 3.16743" fill="#52733f" fill-rule="nonzero" opacity="1" stroke="#000000" stroke-linecap="round" stroke-linejoin="round" stroke-width="0.1" vectornator:layerName="Kurve 21"/>
<path d="M15.5393 4.12636C15.5009 4.01099 15.5315 3.94868 15.4521 3.8376C15.4194 3.79184 15.2803 3.73491 15.2699 3.70387C15.2349 3.59865 15.4129 3.3696 15.4618 3.27945C15.6139 2.9993 15.9452 2.10832 16.2234 2.05268" fill="#52733f" fill-rule="nonzero" opacity="1" stroke="#000000" stroke-linecap="round" stroke-linejoin="round" stroke-width="0.1" vectornator:layerName="Kurve 22"/>
<path d="M16.0317 3.10776C15.8075 3.19068 15.7666 3.4721 15.6036 3.58854" fill="#52733f" fill-rule="nonzero" opacity="1" stroke="#000000" stroke-linecap="round" stroke-linejoin="round" stroke-width="0.1" vectornator:layerName="Kurve 23"/>
<path d="M15.0635 4.02572C15.0189 3.73055 14.5876 3.5981 14.3746 3.46499C14.3667 3.46006 14.4728 3.14686 14.4809 3.12193C14.4922 3.08698 14.5521 3.00196 14.5194 3.01866C14.4108 3.07405 14.3586 3.26413 14.2568 3.31604C14.2487 3.3202 14.0454 3.19744 13.9608 3.22002C13.9396 3.22568 13.5921 3.38733 13.5987 3.3895C13.6042 3.39127 13.5927 2.94394 13.5904 2.91867C13.5861 2.87173 13.593 2.74164 13.565 2.77957C13.5082 2.85662 13.4632 3.40859 13.3992 3.43049C13.2055 3.49681 13.0968 3.45892 12.9072 3.62828C12.81 3.7151 12.7436 3.82221 12.7038 3.94487C12.6841 4.00577 12.668 4.19478 12.6584 4.13148C12.6499 4.07545 12.5774 3.68743 12.526 3.67073C12.4923 3.6598 12.4823 4.00885 12.4819 4.02389C12.4758 4.24485 12.3297 4.37948 12.1989 4.60156C12.1871 4.62158 12.1821 4.66658 12.16 4.65941C12.1525 4.657 12.1514 4.54565 12.1499 4.53533C12.1035 4.22838 12.024 3.9205 12.0273 3.60966C12.034 2.98658 12.7665 1.75544 13.5345 2.00456C13.7079 2.06079 14.0619 2.40361 14.2685 2.5195C14.3373 2.55803 14.5003 2.54428 14.5612 2.56585C14.9163 2.69178 14.4046 2.70449 14.4444 2.73763C14.5853 2.85489 14.8106 2.84253 14.9537 2.98335C15.1346 3.1614 15.1219 3.48456 15.2305 3.69731" fill="#52733f" fill-rule="nonzero" opacity="1" stroke="#000000" stroke-linecap="round" stroke-linejoin="round" stroke-width="0.1" vectornator:layerName="Kurve 24"/>
<path d="M14.8372 3.73622C14.8522 3.74686 14.7131 3.73097 14.6831 3.7381C14.5592 3.7676 14.4354 3.81583 14.3186 3.86586C13.977 4.01228 13.6512 4.22906 13.4618 4.55732C13.0744 5.22886 12.957 5.76001 13.0597 6.53022C13.0623 6.54961 13.1264 7.12397 13.1349 7.12397C13.1403 7.12397 13.1311 6.99997 13.1311 6.99995C13.1311 6.88693 13.1555 6.7825 13.1837 6.67302C13.2563 6.3918 13.456 6.29569 13.5746 6.09806C13.6578 5.95927 13.38 5.63409 13.4693 5.45546C13.4949 5.40435 13.5181 5.55883 13.5445 5.60953C13.58 5.6778 13.6185 5.74872 13.661 5.81246C13.6783 5.83835 13.7211 5.91497 13.7211 5.88386C13.7211 5.5518 13.902 5.51853 14.0443 5.30514C14.0497 5.29705 13.9672 4.92203 13.9654 4.87674C13.963 4.81654 13.9351 4.63921 13.9541 4.69636C13.9804 4.77516 14.0806 5.19616 14.1909 5.19616C14.2824 5.19616 14.1693 5.00725 14.2021 4.92183C14.2811 4.71649 14.4027 4.58888 14.5704 4.44834C14.6975 4.34183 14.8004 4.26577 14.9575 4.20408C15.0194 4.17973 15.2 4.11566 15.1529 4.16274C15.1469 4.16868 15.1439 4.14827 15.1416 4.14019C15.113 4.04021 14.9968 3.80703 14.8973 3.7644C14.8778 3.75604 14.7839 3.69825 14.8372 3.73622Z" fill="#52733f" fill-rule="nonzero" opacity="1" stroke="#000000" stroke-linecap="round" stroke-linejoin="round" stroke-width="0.1" vectornator:layerName="Kurve 25"/>
<path d="M15.2737 4.43487C14.6621 3.46398 15.8055 3.56597 15.4682 4.44852" fill="#52733f" fill-rule="nonzero" opacity="1" stroke="#000000" stroke-linecap="round" stroke-linejoin="round" stroke-width="0.1" vectornator:layerName="Kurve 26"/>
</g>
<g id="Ebene-4" vectornator:layerName="Ebene 4"/>
</svg>
