<?xml version="1.0" encoding="UTF-8" standalone="no"?>
<!DOCTYPE svg PUBLIC "-//W3C//DTD SVG 1.1//EN" "http://www.w3.org/Graphics/SVG/1.1/DTD/svg11.dtd">
<!-- Created with Vectornator (http://vectornator.io/) -->
<svg height="100%" stroke-miterlimit="10" style="fill-rule:nonzero;clip-rule:evenodd;stroke-linecap:round;stroke-linejoin:round;" version="1.1" viewBox="0 0 841.995 595.35" width="100%" xml:space="preserve" xmlns="http://www.w3.org/2000/svg" xmlns:vectornator="http://vectornator.io" xmlns:xlink="http://www.w3.org/1999/xlink">
<defs>
<filter color-interpolation-filters="sRGB" filterUnits="userSpaceOnUse" height="35.519" id="Filter" width="55.6207" x="320.687" y="174.849">
<feGaussianBlur in="SourceGraphic" result="Blur" stdDeviation="4.17488"/>
</filter>
<filter color-interpolation-filters="sRGB" filterUnits="userSpaceOnUse" height="47.161" id="Filter_2" width="59.1405" x="374.646" y="191.345">
<feGaussianBlur in="SourceGraphic" result="Blur" stdDeviation="4.17488"/>
</filter>
<filter color-interpolation-filters="sRGB" filterUnits="userSpaceOnUse" height="44.973" id="Filter_3" width="66.4291" x="447.914" y="189.395">
<feGaussianBlur in="SourceGraphic" result="Blur" stdDeviation="4.17488"/>
</filter>
<filter color-interpolation-filters="sRGB" filterUnits="userSpaceOnUse" height="45.2119" id="Filter_4" width="69.3794" x="407.349" y="238.88">
<feGaussianBlur in="SourceGraphic" result="Blur" stdDeviation="4.17488"/>
</filter>
<filter color-interpolation-filters="sRGB" filterUnits="userSpaceOnUse" height="55.2856" id="Filter_5" width="68.0039" x="335.782" y="256.149">
<feGaussianBlur in="SourceGraphic" result="Blur" stdDeviation="4.17488"/>
</filter>
<filter color-interpolation-filters="sRGB" filterUnits="userSpaceOnUse" height="53.4965" id="Filter_6" width="62.2313" x="283.478" y="223.018">
<feGaussianBlur in="SourceGraphic" result="Blur" stdDeviation="4.17488"/>
</filter>
<filter color-interpolation-filters="sRGB" filterUnits="userSpaceOnUse" height="48.0608" id="Filter_7" width="43.3603" x="292.2" y="299.477">
<feGaussianBlur in="SourceGraphic" result="Blur" stdDeviation="4.17488"/>
</filter>
<filter color-interpolation-filters="sRGB" filterUnits="userSpaceOnUse" height="42.6097" id="Filter_8" width="53.1002" x="383.816" y="310.695">
<feGaussianBlur in="SourceGraphic" result="Blur" stdDeviation="4.17488"/>
</filter>
<filter color-interpolation-filters="sRGB" filterUnits="userSpaceOnUse" height="41.9484" id="Filter_9" width="64.7252" x="448.327" y="304.958">
<feGaussianBlur in="SourceGraphic" result="Blur" stdDeviation="4.17488"/>
</filter>
<filter color-interpolation-filters="sRGB" filterUnits="userSpaceOnUse" height="44.1047" id="Filter_10" width="55.7721" x="490.588" y="245.164">
<feGaussianBlur in="SourceGraphic" result="Blur" stdDeviation="4.17488"/>
</filter>
<filter color-interpolation-filters="sRGB" filterUnits="userSpaceOnUse" height="43.4933" id="Filter_11" width="64.0602" x="407.287" y="364.596">
<feGaussianBlur in="SourceGraphic" result="Blur" stdDeviation="4.17488"/>
</filter>
<filter color-interpolation-filters="sRGB" filterUnits="userSpaceOnUse" height="42.564" id="Filter_12" width="57.8622" x="334.636" y="361.933">
<feGaussianBlur in="SourceGraphic" result="Blur" stdDeviation="4.17488"/>
</filter>
<filter color-interpolation-filters="sRGB" filterUnits="userSpaceOnUse" height="36.2124" id="Filter_13" width="59.4348" x="369.197" y="425.303">
<feGaussianBlur in="SourceGraphic" result="Blur" stdDeviation="4.17488"/>
</filter>
<filter color-interpolation-filters="sRGB" filterUnits="userSpaceOnUse" height="43.0257" id="Filter_14" width="47.9619" x="498.177" y="88.8562">
<feGaussianBlur in="SourceGraphic" result="Blur" stdDeviation="4.17488"/>
</filter>
<filter color-interpolation-filters="sRGB" filterUnits="userSpaceOnUse" height="37.0013" id="Filter_15" width="45.3115" x="524.872" y="98.2257">
<feGaussianBlur in="SourceGraphic" result="Blur" stdDeviation="4.17488"/>
</filter>
<filter color-interpolation-filters="sRGB" filterUnits="userSpaceOnUse" height="42.9652" id="Filter_16" width="42.1007" x="509.519" y="120.243">
<feGaussianBlur in="SourceGraphic" result="Blur" stdDeviation="4.17488"/>
</filter>
<filter color-interpolation-filters="sRGB" filterUnits="userSpaceOnUse" height="45.1333" id="Filter_17" width="52.3791" x="469.894" y="115.55">
<feGaussianBlur in="SourceGraphic" result="Blur" stdDeviation="4.17488"/>
</filter>
<filter color-interpolation-filters="sRGB" filterUnits="userSpaceOnUse" height="42.1072" id="Filter_18" width="49.4524" x="472.31" y="88.6536">
<feGaussianBlur in="SourceGraphic" result="Blur" stdDeviation="4.17488"/>
</filter>
<filter color-interpolation-filters="sRGB" filterUnits="userSpaceOnUse" height="30.1067" id="Filter_19" width="38.9459" x="544.318" y="120.677">
<feGaussianBlur in="SourceGraphic" result="Blur" stdDeviation="4.17488"/>
</filter>
</defs>
<g id="Ebene-4" vectornator:layerName="Ebene 4">
<path d="M516.702 116.59C512.192 117.33 509.529 118.654 504.779 119.212C498.726 119.924 528.105 114.515 523.014 117.866C500.745 132.528 499.313 107.348 527.722 118.591C535.507 121.672 495.175 124.126 502.671 120.397C511.98 115.766 541.361 112.367 533.852 119.559C526.774 126.34 496.383 126.879 504.503 121.388C512.46 116.007 527.75 115.787 536.727 116.324C546.928 116.935 515.859 119.693 506.07 116.755C493.121 112.869 559.165 106.589 545.777 108.474C533.279 110.233 520.688 111.227 508.184 113.045C505.229 113.474 496.934 115.986 499.295 114.157C505.565 109.301 519.775 108.166 526.883 107.305C532.733 106.596 550.405 106.181 544.556 106.898C540.748 107.364 507.383 110.776 507.346 110.443C506.766 105.213 536.473 105.894 536.752 103.695C536.847 102.948 513.573 103.778 510.354 104.415C503.185 105.834 538.823 98.5533 532.063 101.331C522.864 105.11 510.49 103.997 500.65 107.224C497.499 108.257 488.237 111.873 491.263 110.516C500.115 106.543 528.788 103.66 519.183 102.284C511.286 101.153 500.78 106.356 494.039 109.542C490.155 111.378 478.741 117.209 482.839 115.919C491.152 113.302 515.867 107.278 507.195 106.413C498.897 105.586 476.639 119.603 484.631 117.221C494.234 114.359 523.933 105.072 496.476 115.22C472.019 124.259 510.27 112.298 507.858 114.866C485.247 138.942 490.292 97.4822 515.827 117.269C521.271 121.487 501.562 123.052 495.354 120.067C486.929 116.017 537.459 107.395 541.423 113.415C545.159 119.091 514.559 116.178 521.052 114.174C523.734 113.347 526.67 114.081 529.465 113.822" fill="none" opacity="1" stroke="#00a30c" stroke-linecap="round" stroke-linejoin="round" stroke-width="5.49262"/>
<path d="M562.821 118.1C569.886 125.351 542.227 118.984 532.514 116.128C519.841 112.401 561.612 116.143 571.048 125.388C579.268 133.441 526.07 122.972 537.034 119.475C545.213 116.867 564.363 117.873 570.762 124.142C580.043 133.236 544.096 125.108 531.954 120.483C521.261 116.41 555.576 125.475 566.268 121.399C570.367 119.837 551.567 112.14 555.734 113.511C582.774 122.413 518.861 102.981 559.562 115.91C571.065 119.564 541.817 111.516 543.252 113.483" fill="none" opacity="1" stroke="#00a30c" stroke-linecap="round" stroke-linejoin="round" stroke-width="5.49262"/>
<path d="M574.246 134.891C528.322 149.538 593.291 131.171 562.533 137.625C539.313 142.496 578.763 133.874 572.708 137.052C559.059 144.217 562.456 142.388 550.403 133.809" fill="none" opacity="1" stroke="#00a30c" stroke-linecap="round" stroke-linejoin="round" stroke-width="5.49262"/>
<path d="M553.027 110.087C543.952 104.866 564.999 118.176 558.983 116.54" fill="none" opacity="1" stroke="#00a30c" stroke-linecap="round" stroke-linejoin="round" stroke-width="5.49262"/>
<path d="M561.35 138.28C560.495 137.108 556.038 136.017 557.45 136.35" fill="none" opacity="1" stroke="#00a30c" stroke-linecap="round" stroke-linejoin="round" stroke-width="5.49262"/>
<path d="M544.181 137.52C536.387 137.281 514.629 139.566 520.927 134.969C524.592 132.294 560.01 136.423 547.839 134.849C502.907 129.038 532.733 130.485 555.271 138.771C566.683 142.967 506.73 141.739 518.84 140.646C528.173 139.803 548.519 133.006 555.546 140.855C563.12 149.317 510.337 141.479 521.558 143.231C526.15 143.948 554.509 138.306 555.846 143.544C558.515 153.997 514.808 140.055 523.598 146.311C523.687 146.374 558.212 144.204 555.912 146.195C543.113 157.277 508.996 143.9 544.112 147.954C555.374 149.254 518 153.512 526.843 147.058" fill="none" opacity="1" stroke="#00a30c" stroke-linecap="round" stroke-linejoin="round" stroke-width="5.49262"/>
<path d="M482.526 131.012C490.734 132.74 484.009 131.275 502.454 136.406" fill="none" opacity="1" stroke="#00a30c" stroke-linecap="round" stroke-linejoin="round" stroke-width="5.49262"/>
<path d="M479.299 126.306C491.188 130.442 502.454 133.099 514.148 137.632" fill="none" opacity="1" stroke="#00a30c" stroke-linecap="round" stroke-linejoin="round" stroke-width="5.49262"/>
<path d="M496.154 130.619C503.547 132.284 510.74 134.695 517.983 136.91" fill="none" opacity="1" stroke="#00a30c" stroke-linecap="round" stroke-linejoin="round" stroke-width="5.49262"/>
<path d="M511.515 133.739C515.17 133.476 518.302 135.66 521.4 137.324" fill="none" opacity="1" stroke="#00a30c" stroke-linecap="round" stroke-linejoin="round" stroke-width="5.49262"/>
<path d="M504.538 136.131C512.189 140.616 506.883 137.697 520.979 143.861" fill="none" opacity="1" stroke="#00a30c" stroke-linecap="round" stroke-linejoin="round" stroke-width="5.49262"/>
<path d="M499.052 137.435C506.473 139.454 513.689 143.588 520.503 146.908" fill="none" opacity="1" stroke="#00a30c" stroke-linecap="round" stroke-linejoin="round" stroke-width="5.49262"/>
<path d="M502.597 140.87C505.061 141.255 519.399 148.597 520.804 149.597" fill="none" opacity="1" stroke="#00a30c" stroke-linecap="round" stroke-linejoin="round" stroke-width="5.49262"/>
<path d="M477.772 127.629C488.552 133.195 499.624 140.939 510.476 146.543" fill="none" opacity="1" stroke="#00a30c" stroke-linecap="round" stroke-linejoin="round" stroke-width="5.49262"/>
<path d="M482.592 133.664C487.319 137.608 490.017 139.208 495.715 141.116" fill="none" opacity="1" stroke="#00a30c" stroke-linecap="round" stroke-linejoin="round" stroke-width="5.49262"/>
</g>
<g id="Ebene-1" vectornator:layerName="Ebene 1">
<path d="M309.737 211.799C309.737 189.966 327.207 172.266 348.757 172.266C370.306 172.266 387.776 189.966 387.776 211.799C387.776 233.632 370.306 251.332 348.757 251.332C327.207 251.332 309.737 233.632 309.737 211.799Z" fill="#67216b" fill-rule="nonzero" opacity="1" stroke="#000000" stroke-linecap="butt" stroke-linejoin="round" stroke-width="14.0261"/>
<path d="M473.516 281.623C473.516 259.79 490.985 242.09 512.535 242.09C534.085 242.09 551.554 259.79 551.554 281.623C551.554 303.456 534.085 321.156 512.535 321.156C490.985 321.156 473.516 303.456 473.516 281.623Z" fill="#67216b" fill-rule="nonzero" opacity="1" stroke="#000000" stroke-linecap="butt" stroke-linejoin="round" stroke-width="14.0261"/>
<path d="M282.013 257.493C282.013 235.659 299.483 217.96 321.032 217.96C342.582 217.96 360.052 235.659 360.052 257.493C360.052 279.326 342.582 297.025 321.032 297.025C299.483 297.025 282.013 279.326 282.013 257.493Z" fill="#67216b" fill-rule="nonzero" opacity="1" stroke="#000000" stroke-linecap="butt" stroke-linejoin="round" stroke-width="14.0261"/>
<path d="M367.239 226.688C367.239 204.855 384.709 187.155 406.259 187.155C427.808 187.155 445.278 204.855 445.278 226.688C445.278 248.521 427.808 266.221 406.259 266.221C384.709 266.221 367.239 248.521 367.239 226.688Z" fill="#67216b" fill-rule="nonzero" opacity="1" stroke="#000000" stroke-linecap="butt" stroke-linejoin="round" stroke-width="14.0261"/>
<path d="M438.604 225.661C438.604 203.828 456.073 186.128 477.623 186.128C499.173 186.128 516.642 203.828 516.642 225.661C516.642 247.494 499.173 265.194 477.623 265.194C456.073 265.194 438.604 247.494 438.604 225.661Z" fill="#67216b" fill-rule="nonzero" opacity="1" stroke="#000000" stroke-linecap="butt" stroke-linejoin="round" stroke-width="14.0261"/>
<path d="M441.171 340.152C441.171 318.319 458.64 300.619 480.19 300.619C501.74 300.619 519.209 318.319 519.209 340.152C519.209 361.985 501.74 379.685 480.19 379.685C458.64 379.685 441.171 361.985 441.171 340.152Z" fill="#67216b" fill-rule="nonzero" opacity="1" stroke="#000000" stroke-linecap="butt" stroke-linejoin="round" stroke-width="14.0261"/>
<path d="M404.205 277.002C404.205 255.169 421.675 237.469 443.224 237.469C464.774 237.469 482.244 255.169 482.244 277.002C482.244 298.835 464.774 316.535 443.224 316.535C421.675 316.535 404.205 298.835 404.205 277.002Z" fill="#67216b" fill-rule="nonzero" opacity="1" stroke="#000000" stroke-linecap="butt" stroke-linejoin="round" stroke-width="14.0261"/>
<path d="M356.458 452.589C356.458 430.756 373.927 413.056 395.477 413.056C417.027 413.056 434.496 430.756 434.496 452.589C434.496 474.422 417.027 492.122 395.477 492.122C373.927 492.122 356.458 474.422 356.458 452.589Z" fill="#67216b" fill-rule="nonzero" opacity="1" stroke="#000000" stroke-linecap="butt" stroke-linejoin="round" stroke-width="14.0261"/>
<path d="M393.937 399.194C393.937 377.361 411.406 359.661 432.956 359.661C454.506 359.661 471.975 377.361 471.975 399.194C471.975 421.027 454.506 438.727 432.956 438.727C411.406 438.727 393.937 421.027 393.937 399.194Z" fill="#67216b" fill-rule="nonzero" opacity="1" stroke="#000000" stroke-linecap="butt" stroke-linejoin="round" stroke-width="14.0261"/>
<path d="M323.599 396.627C323.599 374.794 341.069 357.094 362.619 357.094C384.169 357.094 401.638 374.794 401.638 396.627C401.638 418.46 384.169 436.16 362.619 436.16C341.069 436.16 323.599 418.46 323.599 396.627Z" fill="#67216b" fill-rule="nonzero" opacity="1" stroke="#000000" stroke-linecap="butt" stroke-linejoin="round" stroke-width="14.0261"/>
<path d="M364.159 343.746C364.159 321.912 381.629 304.213 403.178 304.213C424.728 304.213 442.198 321.912 442.198 343.746C442.198 365.579 424.728 383.278 403.178 383.278C381.629 383.278 364.159 365.579 364.159 343.746Z" fill="#67216b" fill-rule="nonzero" opacity="1" stroke="#000000" stroke-linecap="butt" stroke-linejoin="round" stroke-width="14.0261"/>
<path d="M288.687 331.937C288.687 310.104 306.157 292.405 327.707 292.405C349.257 292.405 366.726 310.104 366.726 331.937C366.726 353.771 349.257 371.47 327.707 371.47C306.157 371.47 288.687 353.771 288.687 331.937Z" fill="#67216b" fill-rule="nonzero" opacity="1" stroke="#000000" stroke-linecap="butt" stroke-linejoin="round" stroke-width="14.0261"/>
<path d="M331.301 293.431C331.301 271.598 348.77 253.899 370.32 253.899C391.87 253.899 409.339 271.598 409.339 293.431C409.339 315.265 391.87 332.964 370.32 332.964C348.77 332.964 331.301 315.265 331.301 293.431Z" fill="#67216b" fill-rule="nonzero" opacity="1" stroke="#000000" stroke-linecap="butt" stroke-linejoin="round" stroke-width="14.0261"/>
<path d="M469.493 124.114C470.768 118.908 484.769 107.221 489.656 104.412C513.243 90.858 541.181 96.398 561.376 110.234C568.086 114.831 574.226 120.592 580.084 126.251C581.744 127.855 582.777 128.688 584 130.482C584.337 130.976 584.113 131.689 584.608 131.423" fill="none" opacity="1" stroke="#000000" stroke-linecap="round" stroke-linejoin="round" stroke-width="8.76723"/>
<path d="M585.762 134.14C573.312 140.557 562.495 149.35 548.642 152.911C530.712 157.52 511.694 153.014 495.424 145.797C486.992 142.057 475.077 135.39 470.904 126.604" fill="none" opacity="1" stroke="#000000" stroke-linecap="round" stroke-linejoin="round" stroke-width="8.76723"/>
<path d="M462.229 127.23C465.066 127.397 469.873 132.181 471.604 134.128" fill="none" opacity="1" stroke="#000000" stroke-linecap="round" stroke-linejoin="round" stroke-width="1.38076"/>
<path d="M468.111 129.502C464.356 125.011 471.156 130.879 466.459 128.175" fill="none" opacity="1" stroke="#000000" stroke-linecap="round" stroke-linejoin="round" stroke-width="1.38076"/>
<path d="M467.301 129.144C467.305 129.061 466.131 128.701 465.888 128.567C461.962 126.398 465.473 128.157 467.069 129.637" fill="none" opacity="1" stroke="#000000" stroke-linecap="round" stroke-linejoin="round" stroke-width="1.38076"/>
<path d="M462.653 127.492C462.792 127.143 469.071 131.192 469.234 131.319" fill="none" opacity="1" stroke="#000000" stroke-linecap="round" stroke-linejoin="round" stroke-width="1.38076"/>
<path d="M588.86 131.732C588.894 131.469 588.231 130.444 588.116 130.252C588.112 130.245 587.958 130.089 587.96 130.087C588.051 129.951 588.638 130.974 588.649 130.996C589.023 131.807 589.547 133.032 589.428 133.964" fill="none" opacity="1" stroke="#000000" stroke-linecap="round" stroke-linejoin="round" stroke-width="1.38076"/>
<path d="M588.438 130.631C588.176 129.882 587.33 128.877 586.739 128.303" fill="none" opacity="1" stroke="#000000" stroke-linecap="round" stroke-linejoin="round" stroke-width="1.38076"/>
<path d="M475.599 122.573C482.725 120.537 494.429 124.247 501.972 125.454C515.088 127.553 528.464 127.1 541.641 128.113C550.696 128.81 562.925 130.93 571.782 129.665C573.019 129.488 579.538 128.674 579.538 130.773" fill="none" opacity="1" stroke="#000000" stroke-linecap="round" stroke-linejoin="round" stroke-width="11.0772"/>
<path d="M500.984 123.343C499.976 123.937 502.148 121.312 502.701 120.28C504.001 117.849 504.861 115.071 506.487 112.785C511.016 106.412 518.296 99.583 526.157 97.9001" fill="none" opacity="1" stroke="#000000" stroke-linecap="round" stroke-linejoin="round" stroke-width="6.05652"/>
<path d="M532.705 123.452C532.549 122.723 533.508 122.195 533.92 121.574C534.731 120.353 535.468 119.083 536.248 117.842C539.906 112.017 545.588 108.51 552.066 107.124" fill="none" opacity="1" stroke="#000000" stroke-linecap="round" stroke-linejoin="round" stroke-width="6.05652"/>
<path d="M516.542 128.529C518.151 136.046 519.899 146.313 527.406 150.569C528.556 151.221 532.247 154.176 533.443 153.589" fill="none" opacity="1" stroke="#000000" stroke-linecap="round" stroke-linejoin="round" stroke-width="6.05652"/>
<path d="M549.16 132.327C550.766 135.603 553.51 139.707 555.711 142.784C557.334 145.052 560.752 146.28 562.138 148.632" fill="none" opacity="1" stroke="#000000" stroke-linecap="round" stroke-linejoin="round" stroke-width="6.05652"/>
</g>
<g id="Ebene-5" vectornator:layerName="Ebene 5">
<path d="M338.585 191.622C343.525 187.983 354.276 189.05 359.627 191.7C360.175 191.971 361.464 192.067 361.811 192.639C362.433 193.668 358.172 194.624 357.964 194.644C353.423 195.079 348.428 192.648 343.676 192.74C341.375 192.785 339.664 193.015 337.679 194.216C337.022 194.614 336.414 195.09 335.757 195.487C335.546 195.615 335.068 196.107 335.126 195.869C335.46 194.513 339.984 193.532 340.866 193.256C345.097 191.933 348.597 191.842 352.898 191.789C354.025 191.775 355.154 191.595 356.278 191.681C356.711 191.714 357.34 192.376 357.543 191.992C358.566 190.056 352.521 189.888 352.29 189.895C350.341 189.953 341.503 190.667 340.835 193.383" fill="none" filter="url(#Filter)" opacity="1" stroke="#9e39a3" stroke-linecap="round" stroke-linejoin="round" stroke-opacity="0.99563" stroke-width="7.99482" vectornator:blur="8.34977"/>
<path d="M396.339 210.349C396.284 208.321 400.044 208.641 402.011 208.148C406.201 207.097 410.646 207.816 414.966 207.751C415.223 207.747 414.439 207.848 414.193 207.772C413.104 207.434 412.119 206.795 411.019 206.493C409.121 205.972 408.307 205.944 406.321 206.029C403.474 206.151 391.487 208.841 390.747 212.183C390.477 213.404 393.223 211.46 394.163 210.635C396.321 208.741 398.618 207.314 401.42 206.481C408.004 204.521 413.126 207.152 419.217 208.5C419.891 208.649 417.852 208.269 417.162 208.237C415.304 208.152 413.247 208.109 411.387 208.303C405.451 208.922 400.42 210.352 395.141 213.156C393.611 213.969 390.786 214.916 390.1 216.841C389.993 217.141 389.77 217.728 390.081 217.797C390.674 217.928 393.11 214.519 393.576 214.154C396.88 211.569 401.595 210.231 405.693 209.731C408.968 209.331 411.444 208.927 414.682 209.032C415.681 209.065 418.454 209.143 417.611 209.681C416.588 210.333 415.184 209.61 413.971 209.643C409.007 209.778 403.607 209.379 399.35 212.36C397.224 213.849 395.007 215.847 393.498 217.977C393.329 218.215 391.246 221.209 391.263 221.131C392.185 216.967 412.287 209.769 416.718 211.98C416.968 212.105 416.181 212.144 415.905 212.184C415.122 212.295 414.33 212.333 413.546 212.43C412.29 212.585 411.034 212.747 409.784 212.941C406.925 213.385 403.488 213.742 400.735 214.779C397.214 216.104 395.048 217.458 392.605 220.276C391.558 221.483 390.192 225.124 389.333 223.777C387.777 221.336 393.865 216.451 394.98 215.617C401.014 211.106 407.309 209.321 414.643 210.944" fill="none" filter="url(#Filter_2)" opacity="1" stroke="#9e39a3" stroke-linecap="round" stroke-linejoin="round" stroke-opacity="0.99563" stroke-width="7.99482" vectornator:blur="8.34977"/>
<path d="M488.838 208.163C490.509 208.424 490.969 209.43 489.685 208.94C485.128 207.201 480.743 204.801 475.951 203.89C474.127 203.544 472.344 204.775 470.565 205.308C467.839 206.125 465.92 207.662 464.058 209.778C463.744 210.135 462.761 210.866 463.231 210.94C464.556 211.147 469.317 207.401 470.634 206.932C475.499 205.204 477.96 204.869 483.512 205.071C487.408 205.214 489.657 205.337 492.038 208.34C492.836 209.346 494.341 212.25 493.072 212.051C491.97 211.879 488.389 209.003 487.48 208.596C482.865 206.528 477.992 205.453 472.938 206.647C472.278 206.803 461.053 212.715 462.473 213.726C462.984 214.09 470.256 210.918 470.674 210.811C476.009 209.45 477.759 209.283 483.719 209.945C488.798 210.509 490.295 210.896 494.135 213.508C495.129 214.185 497.403 216.801 496.262 216.423C494.182 215.733 492.688 213.82 490.67 212.967C485.258 210.679 479.367 209.252 473.44 209.63C469.005 209.913 470 210.122 466.431 211.117C466.107 211.207 465.162 211.089 465.436 211.284C467.024 212.414 475.025 211.009 475.813 210.969C481.834 210.659 487.163 210.243 493.121 211.736C497.223 212.765 498.112 213.461 499.097 216.866C499.378 217.834 500.421 220.433 499.599 219.849C491.285 213.93 473.834 206.5 464.294 212.397C463.386 212.958 466.34 213.039 467.395 213.204C469.079 213.467 470.79 213.51 472.485 213.676C474.709 213.895 476.936 214.096 479.151 214.395C484.142 215.068 489.12 216.424 493.663 218.599" fill="none" filter="url(#Filter_3)" opacity="1" stroke="#9e39a3" stroke-linecap="round" stroke-linejoin="round" stroke-opacity="0.99563" stroke-width="7.99482" vectornator:blur="8.34977"/>
<path d="M452.894 256.445C450.989 253.833 446.903 253.044 443.689 253.393C437.828 254.028 432.233 256.313 426.755 258.493C425.566 258.966 429.348 259.983 430.487 259.399C433.997 257.599 433.321 257.616 437.743 256.337C440.623 255.503 459.401 252.828 459.825 257.527C460.033 259.826 455.934 259.179 455.07 259.044C448.727 258.053 442.836 255.394 436.266 255.461C433.066 255.493 427.51 266.029 428.843 267.856C429.593 268.884 432.095 263.277 432.151 263.209C433.912 261.06 436.233 259.465 438.973 258.788C444.961 257.309 451.732 258.282 457.443 260.383C457.951 260.569 462.577 262.76 461.312 264.537C460.374 265.855 452.147 261.596 451.477 261.387C446.33 259.783 425.567 258.144 425.062 267.265C424.687 274.049 431.901 262.791 433.972 261.88C441.763 258.453 456.003 257.74 462.208 265C462.493 265.333 462.002 266.525 461.696 266.211C460.729 265.218 460.907 263.476 460.032 262.401C458.318 260.294 453.169 259.652 450.778 259.664C440.966 259.713 429.628 263.933 421.784 269.658" fill="none" filter="url(#Filter_4)" opacity="1" stroke="#9e39a3" stroke-linecap="round" stroke-linejoin="round" stroke-opacity="0.99563" stroke-width="7.99482" vectornator:blur="8.34977"/>
<path d="M368.383 276.807C371.161 275.523 374.679 276.421 377.382 274.985C378.115 274.596 376.681 273.443 376.102 272.849C374.765 271.476 372.363 272.003 370.48 271.648C366.198 270.841 358.241 269.279 354.501 272.702C353.828 273.318 349.163 278.829 350.435 280.135C351.004 280.718 364.955 274.025 368.777 274.286C372.596 274.547 375.379 276.343 378.927 277.486C380.316 277.933 382.158 278.264 383.555 278.854C383.774 278.947 384.371 279.304 384.136 279.268C375.863 277.975 366.592 271.34 359.434 278.313C357.959 279.75 354.222 285.324 356.018 287.785C356.399 288.307 356.316 286.51 356.628 285.943C357.181 284.941 357.606 283.833 358.381 282.99C360.368 280.826 363.173 278.667 365.715 277.358C369.215 275.556 386.369 268.292 389.117 274.237C391.705 279.835 372.034 272.388 369.24 273.39C364.753 275 360.039 279.409 357.652 283.521C356.987 284.667 355.495 289.897 354 290.374C352.768 290.767 354.677 287.865 355.22 286.692C355.602 285.867 356.05 285.071 356.559 284.319C358.477 281.484 359.211 280.887 362.535 279.121C367.112 276.688 380.83 272.315 385.622 275.95C388.318 277.995 384.687 279.214 383.506 279.169C375.973 278.884 369.894 276.651 362.388 280.066C357.068 282.486 343.713 294.899 357.16 297" fill="none" filter="url(#Filter_5)" opacity="1" stroke="#9e39a3" stroke-linecap="round" stroke-linejoin="round" stroke-opacity="0.99563" stroke-width="7.99482" vectornator:blur="8.34977"/>
<path d="M322.671 240.942C320.181 240.317 314.665 236.81 312.835 237.791C307.832 240.474 302.777 243.087 297.979 246.121C297.725 246.281 298.266 246.675 298.511 246.849C300.106 247.985 301.694 247.233 303.118 246.278C305.311 244.808 307.56 243.412 309.892 242.173C313.925 240.029 317.988 236.983 322.848 237.742C324.472 237.996 326.592 241.988 328.174 240.833C329.492 239.872 327.203 238.173 326.678 238.017C319.144 235.79 309.635 240.369 307.696 247.962C306.839 251.32 306.025 254.531 305.491 257.945C305.36 258.785 304.966 261.305 305.097 260.465C306.707 250.162 309.512 245.348 320.052 241.178C323.499 239.814 329.811 236.956 331.088 238.706C332.316 240.388 327.102 241.135 326.501 241.217C322.485 241.769 318.061 242.317 314.204 243.492C304.048 246.585 301.107 251.783 300.972 262.08" fill="none" filter="url(#Filter_6)" opacity="1" stroke="#9e39a3" stroke-linecap="round" stroke-linejoin="round" stroke-opacity="0.99563" stroke-width="7.99482" vectornator:blur="8.34977"/>
<path d="M316.204 316.42C313.617 317.709 312.027 320.497 310.504 322.953C309.973 323.81 308.96 326.637 309.116 325.641C309.507 323.14 312.172 320.671 313.714 318.936C314.732 317.79 318.063 314.645 316.825 315.549C313.687 317.839 312.155 322.777 311.272 326.3C311.014 327.331 310.812 328.388 310.78 329.451C310.759 330.123 311.011 332.104 311.115 331.439C312.294 323.888 308.432 321.733 317.455 315.648C318.53 314.922 319.668 313.734 320.95 313.934C321.796 314.067 319.364 314.59 318.547 314.85C317.957 315.038 317.387 315.289 316.825 315.549C314.586 316.584 312.007 317.781 310.366 319.704C308.351 322.065 306.73 326.01 306.635 329.126C306.628 329.353 307.269 333.13 307.305 333.103C307.752 332.777 310.188 323.29 311.38 321.476C312.225 320.192 317.199 315.925 316.204 316.42Z" fill="none" filter="url(#Filter_7)" opacity="1" stroke="#9e39a3" stroke-linecap="round" stroke-linejoin="round" stroke-opacity="0.99563" stroke-width="7.99482" vectornator:blur="8.34977"/>
<path d="M418.162 325.894C419.482 325.473 423.566 326.568 422.208 326.849C420.439 327.215 418.625 326.362 416.853 326.012C415.701 325.785 412.276 324.974 413.436 325.156C414.947 325.392 416.274 325.922 417.798 326.16C418.218 326.225 419.124 325.937 419.058 326.357C418.97 326.921 412.947 326.147 413.239 326.416C413.961 327.079 418.831 328.139 418.93 329.241C419.041 330.475 414.19 330.781 413.496 330.974C412.75 331.182 410.465 330.993 411.192 331.26C412.828 331.862 420.337 332.784 420.565 335.306C420.681 336.598 417.27 335.737 417.069 337.019C416.862 338.348 420.653 338.87 420.653 338.87C420.653 338.87 410.775 333.637 408.051 336.901C406.701 338.52 415.428 334.51 414.943 334.105C412.969 332.458 407.746 334.604 405.728 335.247C404.685 335.58 402.001 335.496 402.646 336.38C404.255 338.584 408.831 335.445 410.069 334.312C410.245 334.151 410.658 333.892 410.483 333.731C409.203 332.556 403.702 335.265 402.43 335.7C401.394 336.054 400.367 336.434 399.348 336.833C398.991 336.972 398.01 337.069 398.304 337.315C399.853 338.607 411.874 337.498 403.956 336.261" fill="none" filter="url(#Filter_8)" opacity="1" stroke="#9e39a3" stroke-linecap="round" stroke-linejoin="round" stroke-opacity="0.99563" stroke-width="7.99482" vectornator:blur="8.34977"/>
<path d="M484.795 320.812C481.48 316.271 473.332 323.979 471.208 325.144C470.641 325.456 469.219 327.287 468.875 327.685C468.624 327.974 468.038 328.91 468.097 328.531C468.978 322.893 483.398 319.56 488.457 320.093C490.665 320.326 494.173 320.744 494 323.864C493.764 328.125 486.879 321.297 483.022 321.826C478.381 322.464 469.319 326.569 466.493 330.54C465.443 332.014 469.522 328.546 471.13 327.714C475.022 325.699 478.696 324.136 483.091 323.451C486.445 322.928 489.33 323.644 492.129 325.508C493.119 326.167 494.249 326.683 495.034 327.576C495.412 328.006 495.755 329.712 495.418 329.249C494.064 327.395 494.888 326.134 492.228 324.878C486.421 322.137 471.839 325.242 468.599 331.514C468.531 331.648 475.672 328.511 477.214 328.019C481.845 326.542 487.746 326.428 492.366 328.127C493.919 328.698 496.329 329.803 497.741 330.903C498.161 331.23 498.919 331.998 498.49 332.311C497.251 333.215 496.372 330.059 495.103 329.2C492.796 327.639 489.638 326.27 486.892 325.981C478.704 325.118 470.464 327.178 462.761 329.634" fill="none" filter="url(#Filter_9)" opacity="1" stroke="#9e39a3" stroke-linecap="round" stroke-linejoin="round" stroke-opacity="0.99563" stroke-width="7.99482" vectornator:blur="8.34977"/>
<path d="M512.439 265.747C511.168 266.152 509.241 271.379 505.518 270.798C505.139 270.739 506.223 270.495 506.561 270.315C508.423 269.326 509.949 268.122 511.612 266.909C511.921 266.683 513.034 266.485 512.655 266.426C510.697 266.12 503.122 271.325 505.468 271.113C515.524 270.205 513.352 260.48 518.562 259.603C520.243 259.321 527.803 272.12 531.923 269.114C532.058 269.015 526.292 266.35 525.917 266.239C523.57 265.545 517.953 263.737 516.436 267.017C514.628 270.925 524.233 268.953 525.838 268.809C526.508 268.748 528.446 268.736 527.827 268.474C524.176 266.93 518.529 269.245 514.999 270.02C514.342 270.164 512.614 269.812 513.01 270.355C513.981 271.685 519.16 271.411 520.571 271.536C521.312 271.601 523.512 271.995 522.776 271.88C520.453 271.517 502.899 270.807 510.696 274.834" fill="none" filter="url(#Filter_10)" opacity="1" stroke="#9e39a3" stroke-linecap="round" stroke-linejoin="round" stroke-opacity="0.99563" stroke-width="7.99482" vectornator:blur="8.34977"/>
<path d="M448.132 386.087C451.124 381.884 445.574 381.78 441.89 380.594C440.894 380.273 443.617 381.782 444.529 382.297C445.035 382.582 453.776 386.807 453.39 387.554C452.478 389.32 447.961 384.878 446.656 385.211C446.219 385.322 445.927 385.743 445.563 386.008C441.105 389.262 444.851 384.448 444.234 384.187C441.884 383.194 435.626 387.956 433.749 389.327C432.715 390.081 429.521 391.571 430.785 391.768C433.025 392.118 442.168 388.354 442.944 386.245C443.347 385.148 438.834 386.275 435.353 387.318C431.124 388.585 427.449 390.508 423.559 392.576C422.958 392.895 421.386 393.04 421.787 393.59C422.046 393.946 426.32 392.721 426.444 392.704C432.877 391.82 437.304 390.059 442.412 385.516C443.694 384.376 445.335 382.745 445.09 380.771C445.014 380.156 443.798 378.867 444.391 379.048C447.003 379.847 458.628 390.524 456.698 393.235C456.39 393.668 455.956 392.473 455.585 392.093" fill="none" filter="url(#Filter_11)" opacity="1" stroke="#9e39a3" stroke-linecap="round" stroke-linejoin="round" stroke-opacity="0.99563" stroke-width="7.99482" vectornator:blur="8.34977"/>
<path d="M361.248 384.455C361.982 379.756 353.637 381.306 351.728 381.354C351.392 381.362 352.29 381.858 352.624 381.817C353.898 381.659 355.094 381.112 356.335 380.783C358.777 380.134 361.382 378.046 363.709 379.03C364.263 379.264 362.764 379.777 362.252 380.093C361.106 380.802 359.873 380.866 358.541 381.127C356.379 381.552 354.057 382.378 352.062 383.343C351.045 383.835 348.474 386.022 349.197 385.154C350.966 383.034 353.285 381.613 355.488 380.005C356.588 379.203 360.33 377.563 359.033 377.977C358.064 378.286 347.714 381.777 349.325 382.27C355.005 384.007 356.859 374.244 361.799 376.795C364.081 377.974 375.028 391.431 377.818 389.948C378.323 389.68 377.718 388.771 377.434 388.275C376.433 386.526 373.743 384.835 372.304 383.923C368.468 381.491 354.918 379.38 364.743 382.742C367.091 383.545 369.507 384.168 371.792 385.134C373.959 386.05 375.973 387.293 378.064 388.373" fill="none" filter="url(#Filter_12)" opacity="1" stroke="#9e39a3" stroke-linecap="round" stroke-linejoin="round" stroke-opacity="0.99563" stroke-width="7.99482" vectornator:blur="8.34977"/>
<path d="M400.315 442.196C400.48 441.141 398.229 441.056 397.214 441.389C392.589 442.906 388.232 445.143 383.746 447.031C383.175 447.271 384.903 446.584 385.469 446.332C386.869 445.708 388.24 445.019 389.643 444.402C390.688 443.943 398.736 441.762 399.301 440.424C399.635 439.635 397.556 440.111 396.732 440.346C393.568 441.246 390.744 442.773 387.753 444.107C386.837 444.515 385.905 444.887 384.986 445.288C384.635 445.442 383.564 445.712 383.943 445.771C386.746 446.209 392.845 443.689 395.393 442.718C395.698 442.602 398.897 439.573 399.085 439.745C403.206 443.53 408.404 444.934 414.197 446.302" fill="none" filter="url(#Filter_13)" opacity="1" stroke="#9e39a3" stroke-linecap="round" stroke-linejoin="round" stroke-opacity="0.99563" stroke-width="7.99482" vectornator:blur="8.34977"/>
<path d="M512.612 117.08C513.64 115.71 515.14 114.762 516.501 113.721C519.375 111.523 522.262 109.342 525.164 107.18C526.094 106.486 529.384 105.247 528.346 105.766C524.598 107.64 520.542 109.597 517.208 112.13C515.441 113.473 515.504 113.686 514.203 115.312C514.188 115.331 513.283 117.646 513.496 117.433C514.957 115.972 515.865 113.297 517.562 111.776C521.841 107.94 526.177 104.949 531.705 103.291" fill="none" filter="url(#Filter_14)" opacity="1" stroke="#025608" stroke-linecap="round" stroke-linejoin="round" stroke-width="7.99482" vectornator:blur="8.34977"/>
<path d="M539.306 120.262C542.183 116.426 551.212 113.467 555.747 112.66C555.818 112.648 553.187 115.366 552.388 115.666C549.524 116.74 546.576 116.362 543.726 117.787C542.872 118.214 542.099 118.884 541.428 119.555C541.043 119.939 539.824 120.792 540.367 120.792C541.145 120.792 544.182 116.197 544.963 115.666C547.576 113.889 550.453 113.875 553.449 114.075" fill="none" filter="url(#Filter_15)" opacity="1" stroke="#025608" stroke-linecap="round" stroke-linejoin="round" stroke-width="7.99482" vectornator:blur="8.34977"/>
<path d="M524.81 135.819C522.006 139.425 526.793 142.799 529.053 145.896C529.621 146.674 530.405 147.082 530.821 148.017C530.919 148.239 530.997 148.967 530.997 148.724C530.997 145.219 529.002 141.41 527.639 138.294C527.099 137.062 526.897 134.157 525.694 134.758C525.265 134.973 527.25 138.768 527.285 138.824C529.065 141.7 534.053 146.451 537.185 148.017" fill="none" filter="url(#Filter_16)" opacity="1" stroke="#025608" stroke-linecap="round" stroke-linejoin="round" stroke-width="7.99482" vectornator:blur="8.34977"/>
<path d="M485.741 129.985C481.715 129.985 488.742 135.333 490.868 136.349C493.209 137.469 495.861 137.344 498.116 138.471C498.175 138.5 498.823 138.736 498.646 139.001C498.053 139.891 488.113 134.85 487.155 134.405C486.27 133.994 483.631 133.603 484.503 133.167C486.144 132.347 491.012 136.67 492.105 137.41C497.31 140.936 502.049 143.933 507.839 146.249" fill="none" filter="url(#Filter_17)" opacity="1" stroke="#025608" stroke-linecap="round" stroke-linejoin="round" stroke-width="7.99482" vectornator:blur="8.34977"/>
<path d="M487.067 115.224C490.945 107.707 499.191 105.595 507.132 103.114C507.927 102.865 506.099 104.49 505.364 104.882C504.666 105.254 503.941 105.573 503.242 105.943C501.728 106.744 500.19 107.499 498.646 108.241C494.363 110.297 484.885 119.453 487.067 115.224Z" fill="none" filter="url(#Filter_18)" opacity="1" stroke="#025608" stroke-linecap="round" stroke-linejoin="round" stroke-width="7.99482" vectornator:blur="8.34977"/>
<path d="M558.752 136.349C562.061 136.349 565.536 135.606 568.829 135.112" fill="none" filter="url(#Filter_19)" opacity="1" stroke="#025608" stroke-linecap="round" stroke-linejoin="round" stroke-width="7.99482" vectornator:blur="8.34977"/>
</g>
<g id="Ebene-2" vectornator:layerName="Ebene 2">
<path d="M436.037 197.937C436.037 151.973 403.626 122.335 385.722 86.5265" fill="none" opacity="1" stroke="#000000" stroke-linecap="round" stroke-linejoin="round" stroke-width="14.0261"/>
<path d="M386.123 87.315C401.42 125.558 437.859 108.049 465.188 121.714" fill="none" opacity="1" stroke="#000000" stroke-linecap="round" stroke-linejoin="round" stroke-width="14.0261" vectornator:layerName="Kurve"/>
</g>
<g id="Ebene-3" vectornator:layerName="Ebene 3"/>
</svg>
