<?xml version="1.0" encoding="UTF-8" standalone="no"?>
<!DOCTYPE svg PUBLIC "-//W3C//DTD SVG 1.1//EN" "http://www.w3.org/Graphics/SVG/1.1/DTD/svg11.dtd">
<!-- Created with Vectornator (http://vectornator.io/) -->
<svg height="100%" stroke-miterlimit="10" style="fill-rule:nonzero;clip-rule:evenodd;stroke-linecap:round;stroke-linejoin:round;" version="1.1" viewBox="0 0 3370.82 2384.24" width="100%" xml:space="preserve" xmlns="http://www.w3.org/2000/svg" xmlns:vectornator="http://vectornator.io" xmlns:xlink="http://www.w3.org/1999/xlink">
<defs>
<filter color-interpolation-filters="sRGB" filterUnits="userSpaceOnUse" height="81.6045" id="Filter" width="64.8106" x="1729.2" y="653.428">
<feGaussianBlur in="SourceGraphic" result="Blur" stdDeviation="10.8826"/>
</filter>
<filter color-interpolation-filters="sRGB" filterUnits="userSpaceOnUse" height="78.7173" id="Filter_2" width="63.0461" x="1736.05" y="652.522">
<feGaussianBlur in="SourceGraphic" result="Blur" stdDeviation="10.8826"/>
</filter>
<filter color-interpolation-filters="sRGB" filterUnits="userSpaceOnUse" height="116.838" id="Filter_3" width="82.4884" x="1722.75" y="627.97">
<feGaussianBlur in="SourceGraphic" result="Blur" stdDeviation="10.8826"/>
</filter>
<filter color-interpolation-filters="sRGB" filterUnits="userSpaceOnUse" height="736.185" id="Filter_4" width="630.687" x="856.595" y="789.794">
<feGaussianBlur in="SourceGraphic" result="Blur" stdDeviation="28.8098"/>
</filter>
<filter color-interpolation-filters="sRGB" filterUnits="userSpaceOnUse" height="261.463" id="Filter_5" width="240.83" x="1468.43" y="607.891">
<feGaussianBlur in="SourceGraphic" result="Blur" stdDeviation="28.8098"/>
</filter>
<filter color-interpolation-filters="sRGB" filterUnits="userSpaceOnUse" height="166.627" id="Filter_6" width="162.854" x="881.34" y="1256.41">
<feGaussianBlur in="SourceGraphic" result="Blur" stdDeviation="28.8098"/>
</filter>
<filter color-interpolation-filters="sRGB" filterUnits="userSpaceOnUse" height="567.138" id="Filter_7" width="468.39" x="882.314" y="844.075">
<feGaussianBlur in="SourceGraphic" result="Blur" stdDeviation="28.8098"/>
</filter>
<filter color-interpolation-filters="sRGB" filterUnits="userSpaceOnUse" height="398.679" id="Filter_8" width="397.269" x="903.202" y="885.097">
<feGaussianBlur in="SourceGraphic" result="Blur" stdDeviation="28.8098"/>
</filter>
<filter color-interpolation-filters="sRGB" filterUnits="userSpaceOnUse" height="204.738" id="Filter_9" width="185.344" x="1489.77" y="625.199">
<feGaussianBlur in="SourceGraphic" result="Blur" stdDeviation="28.8098"/>
</filter>
<filter color-interpolation-filters="sRGB" filterUnits="userSpaceOnUse" height="190.279" id="Filter_10" width="177.516" x="1493.49" y="642.135">
<feGaussianBlur in="SourceGraphic" result="Blur" stdDeviation="28.8098"/>
</filter>
</defs>
<g id="Ebene-3" vectornator:layerName="Ebene 3">
<path d="M1714.57 802.544C1713.71 800.406 1711.55 798.388 1712 796.129C1714.63 782.994 1718.84 770.18 1723.55 757.638C1729.13 742.756 1736.34 728.538 1742.79 714.014C1756.93 682.201 1772.09 652.043 1788.98 621.635C1809.36 584.954 1832.37 549.834 1859.55 517.708C1888.38 483.632 1923.73 453.397 1958.34 425.329C1986.31 402.655 2015.71 380.918 2048.16 365.026C2099.45 339.905 2156.39 323.071 2211.1 307.289C2253.3 295.117 2294.46 287.589 2338.13 282.911C2358.08 280.773 2378.26 282.295 2397.15 275.213" fill="none" opacity="1" stroke="#70513f" stroke-linecap="round" stroke-linejoin="round" stroke-width="23.069"/>
<g opacity="1">
<path d="M2413.16 241.906C2412.73 241.933 2412.3 242.058 2411.88 242.125C2410.76 242.3 2409.67 242.473 2408.53 242.469C2407.56 242.465 2406.59 242.208 2405.62 242.125C2403.48 241.941 2401.24 242.016 2399.09 242.156C2396.04 242.356 2393.04 242.902 2390 243.25C2386.9 243.605 2383.83 243.762 2380.72 243.844C2362.12 247.153 2349.72 264.901 2353.03 283.5C2356.34 302.099 2374.09 314.497 2392.69 311.188C2400.27 309.112 2407.74 306.544 2414.62 302.688C2416.17 301.824 2417.67 300.841 2419.12 299.844C2419.51 299.581 2419.93 299.372 2420.28 299.062C2420.81 298.591 2421.15 297.903 2421.66 297.406C2422.57 296.514 2423.69 295.607 2424.78 294.938C2425.42 294.545 2426.17 294.421 2426.84 294.094C2427.25 293.898 2427.63 293.625 2428 293.375C2428.71 292.899 2429.34 292.333 2430 291.781C2431.4 290.605 2432.84 289.46 2434.31 288.375C2439.8 284.322 2445.54 280.702 2451.28 277.031C2452.73 276.102 2454.06 274.951 2455.53 274.062C2456.4 273.537 2457.39 273.269 2458.34 272.938C2459.33 272.594 2460.33 272.281 2461.31 271.906C2463.66 271.007 2465.96 269.919 2468.22 268.812C2479.16 263.456 2489.43 257.345 2499.22 250.094C2488.81 250.768 2478.27 250.782 2467.91 249.469C2464.86 249.082 2461.72 248.607 2458.75 247.781C2456.72 247.216 2454.89 246.502 2452.78 246.219C2449.91 245.834 2447.01 245.841 2444.12 245.594C2439.97 245.238 2435.84 244.68 2431.69 244.25C2427.89 243.857 2424.08 243.368 2420.31 242.781C2418.87 242.556 2417.42 242.184 2415.97 242.031C2415.03 241.933 2414.1 241.847 2413.16 241.906Z" fill="#ed0805" stroke="none"/>
</g>
<g opacity="1">
<path d="M2429.53 234.844C2427.39 234.586 2425.29 234.777 2423.16 234.938C2419.12 235.241 2415.08 235.363 2411.06 235.844C2409.24 236.062 2407.44 236.333 2405.62 236.625C2404.8 236.759 2403.75 236.789 2402.97 237.094C2402.27 237.365 2401.61 237.696 2400.94 238.031C2399.73 238.632 2398.49 239.198 2397.34 239.906C2395.4 241.111 2393.72 242.681 2391.75 243.844C2391.54 243.968 2391.31 244.093 2391.06 244.094C2390.93 244.094 2390.82 243.934 2390.72 243.844C2390.61 243.751 2390.42 243.669 2390.44 243.531C2390.47 243.265 2390.71 243.078 2390.84 242.844C2390.95 242.652 2391.04 242.438 2391.16 242.25C2391.6 241.534 2392.26 240.683 2392.97 240.219C2393.79 239.685 2394.64 239.234 2395.5 238.781C2396.34 238.344 2397.18 237.872 2398.06 237.531C2399 237.168 2400.04 237.047 2400.97 236.656C2401.19 236.562 2401.38 236.362 2401.44 236.125C2401.47 235.991 2401.28 235.87 2401.16 235.812C2400.8 235.651 2400.41 235.554 2400.03 235.469C2399.48 235.345 2398.94 235.25 2398.38 235.188C2397.61 235.102 2396.83 235.031 2396.06 235.031C2392.48 235.032 2388.9 235.744 2385.44 236.656C2384.2 236.984 2382.99 237.281 2381.81 237.812C2379.95 238.655 2378.13 239.647 2376.16 240.219C2375.53 240.399 2374.88 240.451 2374.25 240.594C2372.26 241.043 2370.31 241.646 2368.44 242.469C2365.54 243.742 2362.85 245.338 2360.19 247.031C2355.96 249.717 2352.08 252.769 2348.41 256.156C2335.84 270.26 2337.08 291.869 2351.19 304.438C2365.29 317.006 2386.9 315.76 2399.47 301.656C2399.66 301.275 2399.77 300.871 2400 300.5C2401.22 298.509 2402.59 296.557 2403.91 294.625C2404.95 293.092 2406.1 291.484 2406.72 289.719C2407.01 288.888 2407.03 288.41 2407.22 287.562C2407.31 287.174 2407.42 286.796 2407.5 286.406C2407.55 286.172 2407.58 285.597 2407.72 285.344C2407.78 285.224 2408.02 285.166 2408 285.031C2407.98 284.924 2407.76 285.083 2407.66 285.062C2407.13 284.962 2406.77 284.716 2406.19 284.75C2404.44 284.851 2402.74 285.166 2400.97 285.062C2400.31 285.024 2399.57 284.98 2399.06 284.562C2398.98 284.498 2398.89 284.345 2398.97 284.281C2399.18 284.115 2399.49 284.09 2399.75 284.031C2400.59 283.842 2401.43 283.706 2402.28 283.531C2403.91 283.194 2405.59 282.994 2407.19 282.5C2408.72 282.025 2410.18 281.313 2411.62 280.625C2413.36 279.801 2415.04 278.833 2416.5 277.594C2419.1 275.389 2421.28 272.628 2422.66 269.5C2422.83 269.109 2423.02 268.702 2423.09 268.281C2423.18 267.818 2423.39 267.281 2423.16 266.875C2422.99 266.585 2422.48 266.778 2422.16 266.688C2421.89 266.612 2421.66 266.376 2421.38 266.375C2421.05 266.374 2420.75 266.779 2420.44 266.688C2420.26 266.635 2420.6 266.352 2420.69 266.188C2420.79 266.009 2420.89 265.832 2421 265.656C2421.86 264.232 2422.92 262.949 2423.97 261.656C2425.57 259.676 2427.28 257.783 2429 255.906C2429.59 255.258 2430.26 254.655 2430.81 253.969C2431.05 253.674 2431.15 253.253 2431.41 252.938C2432.55 251.535 2434.23 250.705 2435.81 249.906C2438.22 248.695 2440.73 247.668 2443.03 246.25C2444.19 245.536 2445.33 244.844 2446.34 243.938C2448.9 241.666 2450.64 238.686 2452.47 235.844C2449.58 236.703 2446.61 237.826 2443.56 237.812C2441.86 237.805 2440.1 237.324 2438.47 236.875C2435.52 236.064 2432.57 235.209 2429.53 234.844Z" fill="#ed0805" stroke="none"/>
</g>
<g opacity="1">
<path d="M2408.12 247.969C2389.28 246.703 2372.98 260.963 2371.72 279.812C2370.45 298.662 2384.68 314.985 2403.53 316.25C2405.89 315.8 2408.26 315.387 2410.66 315.125C2413.11 314.857 2415.59 314.646 2418 314.094C2418.98 313.869 2419.96 313.614 2420.91 313.281C2423.06 312.525 2425.08 311.442 2427.25 310.719C2428.25 310.385 2429.34 310.274 2430.31 309.875C2431.09 309.558 2431.8 309.097 2432.47 308.594C2433.16 308.075 2433.73 307.423 2434.38 306.844C2436.32 305.087 2438.36 303.467 2440.34 301.75C2440.94 301.229 2441.48 300.612 2442.16 300.188C2442.87 299.736 2443.71 299.538 2444.47 299.156C2445.49 298.639 2446.46 297.985 2447.34 297.25C2447.82 296.854 2448.37 296.467 2448.62 295.906C2448.66 295.819 2448.63 295.693 2448.56 295.625C2448.41 295.473 2448.22 295.29 2448 295.281C2447.29 295.252 2446.59 295.479 2445.88 295.5C2445.22 295.519 2444.56 295.452 2443.91 295.406C2443.25 295.36 2442.59 295.33 2441.94 295.219C2441.11 295.077 2440.39 294.493 2439.81 293.938C2439.67 293.803 2439.4 293.723 2439.38 293.531C2439.36 293.361 2439.6 293.244 2439.72 293.125C2440.04 292.813 2440.52 292.652 2440.97 292.656C2441.82 292.665 2442.68 292.77 2443.53 292.844C2444.74 292.948 2445.95 293.197 2447.16 293.219C2448.34 293.24 2449.54 293.08 2450.72 292.969C2451.4 292.904 2452.08 292.837 2452.75 292.688C2453.55 292.509 2454.31 292.106 2455.06 291.781C2456.88 291 2458.59 290.121 2460.28 289.094C2465.17 286.124 2469.5 282.408 2473.56 278.406C2467.8 277.629 2461.98 276.53 2456.66 274.094C2455.73 273.671 2454.79 273.075 2454 272.438C2453.82 272.292 2453.5 272.228 2453.47 272C2453.44 271.823 2453.82 271.796 2453.88 271.625C2453.97 271.332 2453.84 270.992 2453.88 270.688C2453.92 270.343 2454.17 270.026 2454.09 269.688C2453.97 269.132 2453.62 268.634 2453.31 268.156C2452.85 267.438 2451.83 266.572 2451.22 266.062C2449.69 264.797 2447.96 263.934 2446.09 263.281C2444.11 262.587 2442.22 262.273 2440.09 262.281C2438.86 262.286 2437.63 262.291 2436.41 262.469C2435.13 262.654 2433.91 263.069 2432.66 263.375C2431.94 263.55 2431.22 263.731 2430.5 263.906C2430.12 264 2429.55 264.315 2429.31 264C2429.14 263.766 2429.47 263.385 2429.69 263.188C2429.96 262.942 2430.25 262.718 2430.56 262.531C2431.04 262.249 2432.14 262.322 2432.03 261.781C2431.91 261.164 2430.85 261.36 2430.28 261.094C2429.21 260.592 2428.26 259.895 2427.25 259.281C2426.69 258.941 2426.09 258.661 2425.53 258.312C2424.96 257.951 2424.43 257.5 2423.84 257.156C2423.24 256.801 2422.28 256.73 2422.06 256.062C2421.95 255.721 2421.98 255.352 2421.91 255C2421.67 253.844 2421.28 252.853 2420.34 252.094C2419.27 251.229 2417.83 250.709 2416.56 250.219C2413.84 249.161 2410.97 248.59 2408.12 247.969Z" fill="#ed0805" stroke="none"/>
</g>
<g opacity="1">
<path d="M2416.56 248.281C2409.53 250.23 2402.29 250.637 2395.03 250C2390.9 249.637 2386.91 248.5 2382.72 248.781C2380.62 248.922 2378.64 249.444 2376.62 250.031C2374.2 250.737 2371.81 251.592 2369.5 252.594C2367.2 253.587 2364.73 254.654 2362.69 256.125C2361.63 256.886 2360.69 257.779 2359.62 258.531C2358.14 259.582 2356.71 260.534 2355.38 261.781C2349.82 266.981 2346.37 273.485 2345.88 281.094C2345.75 287.626 2350.94 293.032 2357.47 293.156C2364 293.28 2369.41 288.064 2369.53 281.531C2369.5 281.282 2369.38 281.091 2369.38 280.844C2369.33 279.049 2370.79 276.954 2371.62 275.5C2372.27 274.377 2372.78 273.173 2373.44 272.062C2373.91 271.272 2374.58 270.621 2375.16 269.906C2375.99 268.871 2376.62 267.674 2377.44 266.625C2379.23 264.33 2381.38 262.57 2383.62 260.75C2384.07 260.394 2384.43 260.062 2384.94 259.781C2386.3 259.035 2387.96 258.721 2389.47 258.406C2391.55 257.972 2393.67 257.667 2395.72 257.125C2400.61 255.834 2405.48 254.307 2410.03 252.094C2412.31 250.985 2414.46 249.692 2416.56 248.281Z" fill="#ed5305" stroke="none"/>
</g>
<g opacity="1">
<path d="M2455.09 259.719C2450.03 260.869 2444.97 262.7 2439.75 263C2434.27 263.315 2428.9 261.536 2423.44 261.312C2416.18 261.015 2408.92 261.039 2401.66 261.281C2398.21 261.396 2394.72 261.441 2391.28 261.719C2389.51 261.862 2387.79 262.35 2386.03 262.562C2384.44 262.754 2382.84 262.81 2381.25 263.062C2379.63 263.32 2378.05 263.7 2376.47 264.125C2370.43 265.749 2364.79 268.401 2359.56 271.812C2354.25 275.621 2353.04 283.003 2356.84 288.312C2360.65 293.622 2368.03 294.839 2373.34 291.031C2377.37 287.774 2381.74 285.625 2386.41 283.438C2387.98 282.698 2389.48 281.776 2391.06 281.062C2392.14 280.577 2393.27 280.313 2394.38 279.906C2395.66 279.436 2396.86 278.785 2398.09 278.219C2400.16 277.273 2402.31 276.429 2404.44 275.625C2410.88 273.191 2417.5 271.307 2424.19 269.688C2429.57 268.383 2435.23 268.714 2440.53 267C2445.7 265.331 2450.3 262.2 2455.09 259.719Z" fill="#ed5305" stroke="none"/>
</g>
<g opacity="1">
<path d="M2379.03 271.531C2377.03 271.735 2375.08 272.142 2373.12 272.594C2371.49 272.972 2369.84 273.404 2368.16 273.469C2367.67 273.488 2367.11 273.366 2366.62 273.312C2360.09 273.131 2354.65 278.281 2354.47 284.812C2354.29 291.344 2359.44 296.787 2365.97 296.969C2368.47 296.927 2370.94 296.683 2373.38 296.094C2375.88 295.488 2378.24 294.518 2380.62 293.562C2382.83 292.677 2385.08 291.861 2387.31 291.031C2389.26 290.307 2391.3 290.145 2393.28 289.531C2396.14 288.646 2398.9 287.617 2401.84 287.031C2409.2 285.566 2416.77 285.337 2424.25 285.156C2430.28 285.011 2436.54 285.138 2442.09 282.406C2443.76 281.584 2445.23 280.499 2446.62 279.281C2445.01 280.023 2443.36 280.636 2441.59 280.938C2435.31 282.014 2428.99 279.73 2423.03 278.031C2415.19 275.796 2407.31 273.715 2399.22 272.594C2397.51 272.357 2395.81 272.218 2394.09 272.031C2392.82 271.892 2391.53 271.667 2390.25 271.594C2388.92 271.518 2387.64 271.657 2386.31 271.594C2383.86 271.477 2381.49 271.281 2379.03 271.531Z" fill="#ed5305" stroke="none"/>
</g>
<g opacity="1">
<path d="M2366.56 276.312C2363.54 276.508 2360.59 277.858 2358.44 280.312C2354.13 285.221 2354.59 292.688 2359.5 297C2362.33 299.116 2365.42 300.562 2368.97 301C2369.62 301.081 2370.67 301.119 2371.34 301.062C2372.3 300.983 2373.15 300.547 2374.09 300.469C2374.34 300.448 2374.57 300.539 2374.81 300.5C2375.56 300.38 2376.29 300.159 2377.03 300C2378.52 299.681 2380.01 299.397 2381.5 299.094C2387.72 297.827 2393.9 296.359 2400.06 294.812C2395.12 292.554 2390.09 290.338 2385.47 287.438C2384.34 286.729 2383.24 285.999 2382.19 285.188C2381.11 284.355 2380.21 283.324 2379.09 282.531C2378.55 282.143 2377.84 282.029 2377.28 281.656C2376.57 281.18 2375.92 280.587 2375.22 280.094C2375.06 279.984 2374.9 279.866 2374.75 279.75C2374.71 279.72 2374.07 279.142 2374.12 279.031C2374.19 278.892 2375.14 279.4 2375.12 279.219C2372.67 277.063 2369.58 276.117 2366.56 276.312Z" fill="#ed5305" stroke="none"/>
</g>
<g opacity="1">
<path d="M2406.91 269.562C2403.42 269.809 2399.92 269.729 2396.44 270.062C2391.33 270.552 2386.26 271.358 2381.16 271.844C2377.39 272.203 2373.59 272.331 2369.81 272.594C2368.48 272.687 2367.21 272.975 2365.88 273.062C2363.97 273.188 2361.97 273.232 2360.06 273.188C2359.12 273.165 2358.16 273.074 2357.22 273.156C2355.93 273.268 2354.56 273.866 2353.28 273.656C2349.77 273.488 2346.76 276.206 2346.59 279.719C2346.43 283.232 2349.14 286.207 2352.66 286.375C2353.85 286.389 2355.02 286.315 2356.19 286.062C2357.07 285.871 2357.91 285.53 2358.78 285.312C2359.34 285.173 2360.2 285.178 2360.69 285.125C2362.25 284.956 2363.77 284.685 2365.28 284.25C2366.24 283.974 2367.16 283.561 2368.09 283.219C2368.97 282.9 2369.87 282.682 2370.75 282.375C2372.43 281.789 2374.03 281.005 2375.69 280.375C2379.1 279.083 2382.53 277.826 2385.94 276.531C2389.59 275.145 2393.23 273.657 2396.94 272.406C2400.21 271.299 2403.6 270.586 2406.91 269.562Z" fill="#eddd05" stroke="none"/>
</g>
<g opacity="1">
<path d="M2356.97 275.938C2353.45 275.85 2350.52 278.64 2350.44 282.156C2350.35 285.672 2353.14 288.6 2356.66 288.688C2359.27 288.584 2361.95 288.554 2364.53 288.094C2366.07 287.819 2367.66 287.54 2369.19 287.219C2370.22 287.002 2371.22 286.666 2372.25 286.438C2373.26 286.213 2374.3 286.071 2375.31 285.844C2375.45 285.814 2375.54 285.713 2375.69 285.688C2376.65 285.518 2377.66 285.9 2378.62 285.938C2379.51 285.972 2380.52 285.944 2381.41 285.875C2385.81 285.531 2390.1 284.298 2394.41 283.375C2390.6 282.906 2386.7 282.722 2382.97 281.812C2381.83 281.536 2380.7 281.181 2379.62 280.719C2378.55 280.254 2377.65 279.57 2376.5 279.25C2375.12 278.867 2373.68 278.655 2372.28 278.344C2369.71 277.771 2367.13 277.227 2364.53 276.75C2362.05 276.294 2359.48 276.162 2356.97 275.938Z" fill="#eddd05" stroke="none"/>
</g>
<g opacity="1">
<path d="M2377.84 259.469C2372.62 260.573 2367.81 262.693 2363 264.969C2361.35 265.749 2359.59 266.426 2358.06 267.438C2357.04 268.115 2355.93 269.076 2355.09 269.969C2354.1 271.026 2353.41 272.177 2352.25 273.062C2349.79 275.572 2349.8 279.599 2352.31 282.062C2354.82 284.526 2358.85 284.51 2361.31 282C2362.51 280.594 2363.58 279.097 2364.28 277.375C2364.43 277.019 2364.58 276.65 2364.69 276.281C2364.85 275.729 2364.86 275.138 2365.12 274.625C2365.6 273.68 2366.2 272.78 2366.75 271.875C2369.67 267.088 2373.39 262.87 2377.84 259.469Z" fill="#eddd05" stroke="none"/>
</g>
<path d="M1766.16 685.2C1766.07 684.748 1765.93 684.304 1765.89 683.845C1765.84 683.033 1766.31 680.707 1765.89 681.405C1764.97 682.949 1764.85 684.853 1764.27 686.555C1762.61 691.361 1760.54 696.034 1759.12 700.923C1758.51 703.009 1759.03 705.952 1757.22 707.157C1756.74 707.476 1757.39 704.885 1757.76 703.904C1758.58 701.731 1759.56 699.531 1760.47 697.399C1760.55 697.213 1760.92 696.947 1760.74 696.856C1759.8 696.384 1758.85 698.051 1758.85 698.754" fill="none" filter="url(#Filter)" opacity="1" stroke="#1e1411" stroke-linecap="round" stroke-linejoin="round" stroke-width="1.2832" vectornator:blur="21.7652"/>
<path d="M1769.58 687.763C1769.43 688.205 1768.85 688.901 1768.47 688.621C1768.04 688.299 1768.78 686.514 1768.58 687.012C1767.07 690.715 1766.5 695.236 1765.46 699.088C1765.13 700.283 1764.79 701.472 1764.42 702.655C1764.35 702.899 1764.33 703.529 1764.13 703.364C1763.25 702.609 1765.15 697.632 1765.38 696.579C1766.51 691.409 1767.9 684.847 1771.1 680.471C1771.51 679.905 1770.98 681.874 1770.8 682.552C1770.63 683.215 1770.47 683.883 1770.27 684.537C1769.71 686.322 1770 686.523 1769.58 687.763Z" fill="none" filter="url(#Filter_2)" opacity="1" stroke="#1e1411" stroke-linecap="round" stroke-linejoin="round" stroke-width="1.2832" vectornator:blur="21.7652"/>
<path d="M1759.08 696.497C1757.68 699.081 1757.3 702.098 1756.36 704.883C1755.96 706.094 1755.27 707.194 1754.69 708.329C1754.63 708.449 1754.48 708.759 1754.43 708.635C1754.05 707.734 1755.24 706.858 1755.65 705.968C1756.16 704.846 1756.66 703.719 1757.16 702.592C1758.55 699.442 1759.79 696.237 1761.16 693.077C1762.16 690.754 1763.27 687.771 1764.4 685.451C1764.51 685.21 1764.94 684.571 1764.92 684.839C1764.73 687.826 1761.98 691.455 1760.78 694.022C1758.82 698.198 1754.82 704.951 1754.51 709.772C1754.48 710.24 1754.78 708.871 1754.92 708.425C1755.35 707.131 1755.76 705.833 1756.22 704.551C1757.88 699.961 1759.27 696.66 1761.31 692.037C1764.64 684.476 1768.85 677.189 1771.96 669.543C1772.01 669.418 1771.77 669.735 1771.7 669.849C1771.11 670.798 1770.52 671.747 1769.98 672.727C1768.75 674.972 1767.56 677.241 1766.39 679.522C1765.09 682.064 1763.78 684.599 1762.59 687.193C1758.12 696.924 1754.68 706.982 1750.67 716.874C1750.48 717.323 1750.69 715.891 1750.84 715.431C1751.53 713.331 1752.37 711.285 1753.1 709.196C1754.23 705.939 1755.2 702.626 1756.39 699.393C1758.03 694.972 1759.69 690.553 1761.6 686.241C1765.65 677.075 1769.13 670.867 1773.8 662.311C1774.97 660.17 1776.44 658.178 1777.36 655.918C1777.54 655.469 1776.73 656.656 1776.48 657.072C1775.32 659.023 1774.18 660.992 1773.11 662.994C1771.52 665.964 1770 668.971 1768.49 671.985C1762.68 683.606 1757.76 695.432 1753.44 707.683C1753.12 708.568 1753.48 710.012 1752.62 710.377C1751.82 710.714 1752.87 708.658 1753.1 707.824C1753.68 705.771 1754.37 703.754 1755.03 701.729C1756.27 697.93 1757.68 694.186 1759.07 690.439C1763.28 679.11 1769.02 668.365 1774.58 657.677" fill="none" filter="url(#Filter_3)" opacity="1" stroke="#1e1411" stroke-linecap="round" stroke-linejoin="round" stroke-width="1.2832" vectornator:blur="21.7652"/>
</g>
<g id="Ebene-1" vectornator:layerName="Ebene 1">
<path d="M1576.69 678.883L1903.83 861.769L1779.06 1053.04L1478.51 855.485L1576.69 678.883Z" fill="#000000" fill-rule="nonzero" opacity="1" stroke="#000000" stroke-linecap="butt" stroke-linejoin="round" stroke-width="95.1512"/>
</g>
<g id="Ebene-2" vectornator:layerName="Ebene 2">
<path d="M875.719 1357.51C875.719 1052.65 1122.86 805.51 1427.72 805.51C1732.59 805.51 1979.73 1052.65 1979.73 1357.51C1979.73 1662.38 1732.59 1909.52 1427.72 1909.52C1122.86 1909.52 875.719 1662.38 875.719 1357.51Z" fill="#000000" fill-rule="nonzero" opacity="1" stroke="#000000" stroke-linecap="butt" stroke-linejoin="round" stroke-width="95.1512"/>
</g>
<g id="Ebene-4" vectornator:layerName="Ebene 4">
<path d="M964.927 1424.59C960.26 1419.92 963.438 1416.95 962.337 1410.34C960.795 1401.09 958.451 1392.76 958.451 1383.14C958.451 1371.66 957.412 1359.6 958.451 1348.17C961.26 1317.26 968.652 1287.03 977.88 1257.5C991.569 1213.69 1013.17 1173.45 1034.87 1133.15C1049.41 1106.15 1064 1077.58 1084.09 1054.14C1096.99 1039.1 1112.81 1027.54 1128.13 1015.28C1168 983.383 1210.76 957.777 1256.36 934.976C1268.8 928.758 1280.95 921.833 1293.92 916.842C1301.75 913.833 1310.31 913.305 1318.53 911.661C1330.99 909.171 1342.89 904.414 1354.8 900.004C1359.54 898.249 1364.29 896.522 1369.05 894.823C1374.54 892.862 1380.35 889.462 1385.89 892.232" fill="none" filter="url(#Filter_4)" opacity="1" stroke="#a5a5a5" stroke-linecap="round" stroke-linejoin="round" stroke-width="58.7382" vectornator:blur="57.6196"/>
<path d="M1569.82 767.961C1571.84 762.922 1575.12 758.65 1577.56 753.775C1579.45 749.999 1580.64 745.804 1582.72 742.169C1584.31 739.395 1586.9 737.132 1588.52 734.431C1589.76 732.369 1590.16 729.963 1591.75 727.983C1595.54 723.244 1599.12 718.032 1603.35 713.798C1604.95 712.203 1606.76 711.502 1607.87 709.284" fill="none" filter="url(#Filter_5)" opacity="1" stroke="#a5a5a5" stroke-linecap="round" stroke-linejoin="round" stroke-width="58.7382" vectornator:blur="57.6196"/>
<path d="M962.384 1342C962.545 1338.98 962.303 1340.49 963.15 1337.46" fill="none" filter="url(#Filter_6)" opacity="1" stroke="#e9e9e9" stroke-linecap="round" stroke-linejoin="round" stroke-width="18.0383" vectornator:blur="57.6196"/>
<path d="M963.934 1330.17C962.213 1321.29 964.77 1313.4 966.095 1304.5C967.955 1292.01 969.524 1279.52 972.025 1267.13C973.104 1261.78 975.308 1256.92 976.134 1251.51C977.533 1242.35 978.537 1232.57 981.162 1223.64C995.963 1173.29 1025.32 1130.59 1057.94 1090.2C1083.03 1059.14 1111.43 1031.03 1141.94 1005.31C1153.56 995.509 1164.49 985.319 1176.99 976.561C1194.28 964.444 1213.08 955.701 1231.28 945.181C1244.02 937.819 1256.28 931.206 1269.66 925.119" fill="none" filter="url(#Filter_7)" opacity="1" stroke="#e9e9e9" stroke-linecap="round" stroke-linejoin="round" stroke-width="18.0383" vectornator:blur="57.6196"/>
<path d="M984.246 1202.73C991.997 1191.26 1000.58 1180.36 1008.44 1168.95C1035.95 1129.03 1062.72 1086.74 1097.9 1052.81C1134.38 1017.64 1174.62 989.635 1219.43 966.141" fill="none" filter="url(#Filter_8)" opacity="1" stroke="#e9e9e9" stroke-linecap="round" stroke-linejoin="round" stroke-width="18.0383" vectornator:blur="57.6196"/>
<path d="M1576.29 745.9C1575.38 746.128 1574.39 746.164 1573.55 746.584C1572.53 747.093 1571.18 749.716 1570.82 748.635C1570.54 747.805 1576.63 738.091 1577.66 736.328C1583.41 726.456 1588.22 715.994 1594.07 706.243" fill="none" filter="url(#Filter_9)" opacity="1" stroke="#e9e9e9" stroke-linecap="round" stroke-linejoin="round" stroke-width="18.0383" vectornator:blur="57.6196"/>
<path d="M1576.29 751.37C1570.04 748.246 1582.27 736.09 1585.18 730.858C1586.33 728.775 1587.09 726.584 1588.6 724.704C1589 724.201 1589.96 722.692 1589.96 723.336C1589.96 725.506 1579.89 746.903 1585.86 734.96" fill="none" filter="url(#Filter_10)" opacity="1" stroke="#e9e9e9" stroke-linecap="round" stroke-linejoin="round" stroke-width="18.0383" vectornator:blur="57.6196"/>
</g>
</svg>
