<?xml version="1.0" encoding="UTF-8" standalone="no"?>
<!DOCTYPE svg PUBLIC "-//W3C//DTD SVG 1.1//EN" "http://www.w3.org/Graphics/SVG/1.1/DTD/svg11.dtd">
<!-- Created with Vectornator (http://vectornator.io/) -->
<svg height="100%" stroke-miterlimit="10" style="fill-rule:nonzero;clip-rule:evenodd;stroke-linecap:round;stroke-linejoin:round;" version="1.1" viewBox="0 0 841.995 595.35" width="100%" xml:space="preserve" xmlns="http://www.w3.org/2000/svg" xmlns:vectornator="http://vectornator.io" xmlns:xlink="http://www.w3.org/1999/xlink">
<defs>
<filter color-interpolation-filters="sRGB" filterUnits="userSpaceOnUse" height="28.5868" id="Filter" width="18.5394" x="397.03" y="200.423">
<feGaussianBlur in="SourceGraphic" result="Blur" stdDeviation="2.72859"/>
</filter>
<filter color-interpolation-filters="sRGB" filterUnits="userSpaceOnUse" height="22.1522" id="Filter_2" width="16.0089" x="396.865" y="202.955">
<feGaussianBlur in="SourceGraphic" result="Blur" stdDeviation="2.72859"/>
</filter>
<filter color-interpolation-filters="sRGB" filterUnits="userSpaceOnUse" height="274.657" id="Filter_3" width="150.058" x="292.339" y="112.922">
<feGaussianBlur in="SourceGraphic" result="Blur" stdDeviation="4.02108"/>
</filter>
<filter color-interpolation-filters="sRGB" filterUnits="userSpaceOnUse" height="271.205" id="Filter_4" width="150.355" x="290.247" y="131.337">
<feGaussianBlur in="SourceGraphic" result="Blur" stdDeviation="4.02108"/>
</filter>
<filter color-interpolation-filters="sRGB" filterUnits="userSpaceOnUse" height="290.409" id="Filter_5" width="103.585" x="439.671" y="93.5004">
<feGaussianBlur in="SourceGraphic" result="Blur" stdDeviation="4.02108"/>
</filter>
<filter color-interpolation-filters="sRGB" filterUnits="userSpaceOnUse" height="40.459" id="Filter_6" width="55.7238" x="442.022" y="83.3254">
<feGaussianBlur in="SourceGraphic" result="Blur" stdDeviation="4.02108"/>
</filter>
<filter color-interpolation-filters="sRGB" filterUnits="userSpaceOnUse" height="77.3512" id="Filter_7" width="67.2831" x="436.094" y="75.9803">
<feGaussianBlur in="SourceGraphic" result="Blur" stdDeviation="4.02108"/>
</filter>
<filter color-interpolation-filters="sRGB" filterUnits="userSpaceOnUse" height="88.734" id="Filter_8" width="276.856" x="245.107" y="399.244">
<feGaussianBlur in="SourceGraphic" result="Blur" stdDeviation="4.02108"/>
</filter>
<filter color-interpolation-filters="sRGB" filterUnits="userSpaceOnUse" height="84.5129" id="Filter_9" width="185.965" x="242.122" y="395.296">
<feGaussianBlur in="SourceGraphic" result="Blur" stdDeviation="4.02108"/>
</filter>
<filter color-interpolation-filters="sRGB" filterUnits="userSpaceOnUse" height="61.089" id="Filter_10" width="78.4734" x="517.906" y="400.225">
<feGaussianBlur in="SourceGraphic" result="Blur" stdDeviation="4.02108"/>
</filter>
<filter color-interpolation-filters="sRGB" filterUnits="userSpaceOnUse" height="47.7886" id="Filter_11" width="48.6525" x="526.123" y="405.221">
<feGaussianBlur in="SourceGraphic" result="Blur" stdDeviation="4.02108"/>
</filter>
</defs>
<g id="Ebene-3" vectornator:layerName="Ebene 3">
<path d="M455.312 315.32C455.218 315.794 455.378 316.407 455.029 316.74C451.334 320.258 447.273 323.37 443.388 326.677C442.825 327.156 442.264 327.637 441.684 328.097C436.774 331.991 431.868 335.89 426.921 339.737C426.754 339.867 426.279 340.219 426.353 340.021C428.119 335.311 435.241 330.885 438.845 328.097C445.771 322.739 447.819 321.263 455.312 317.308C457.064 316.383 465.425 313.289 463.83 317.876C462.049 322.996 456.504 325.951 452.189 329.232C443.79 335.62 435.073 341.616 426.069 347.119C422.492 349.305 418.827 351.379 414.996 353.081C413.516 353.739 410.615 355.207 410.17 353.649C408.438 347.588 412.794 344.568 417.268 340.021C427.55 329.57 440.092 319.641 454.745 316.456C456.788 316.012 459.261 315.85 460.991 317.024C465.561 320.125 460.168 327.974 459.003 329.8C450.815 342.636 437.118 353.029 423.514 359.611C421.552 360.56 418.474 361.863 416.416 360.179C415.137 359.132 414.831 356.943 415.28 355.352C416.146 352.291 417.876 349.387 420.107 347.119C423.571 343.596 427.647 340.594 432.031 338.317C437.586 335.434 443.566 333.319 449.634 331.787C453.406 330.835 457.39 331.156 461.275 330.936C463.946 330.784 479.079 332.197 479.729 337.182C481.344 349.56 465.096 358.683 455.596 362.734C449.913 365.158 442.216 368.282 438.278 361.882C437.426 360.499 437.887 358.579 439.129 357.624C441.275 355.973 443.389 354.271 445.659 352.797C451.935 348.724 461.246 343.506 468.373 341.724C472.238 340.758 476.457 339.806 480.297 340.873C482.27 341.421 483.462 343.95 483.704 345.983C484.345 351.372 478.434 357.148 475.47 360.179C468.165 367.651 460.019 372.334 450.202 375.51C447.045 376.532 443.303 377.412 440.265 376.078C438.3 375.216 436.618 373.308 436.006 371.252C434.355 365.699 439.973 362.863 443.956 361.599C447.515 360.469 451.305 360.181 455.029 359.895C461.731 359.379 477.551 358.305 479.729 367.561C480.972 372.842 473.86 378.802 470.644 380.905C464.251 385.085 455.737 386.898 449.634 381.189C448.271 379.914 447.042 378.212 446.795 376.362C446.227 372.101 452.616 370.072 455.596 369.264C459.363 368.244 463.1 367.043 466.953 366.425C470.794 365.809 474.703 365.573 478.593 365.573C483.152 365.573 488.963 365.028 491.654 369.832C493.39 372.933 489.676 376.597 487.963 378.066C483.299 382.063 475.845 385.044 469.508 383.46C467.427 382.94 463.578 381.041 464.682 379.201C466.192 376.684 470.113 376.954 472.915 376.078C478.059 374.471 495.235 368.221 497.048 376.078C497.793 379.306 493.68 381.783 491.654 383.176C486.758 386.542 473.208 387.871 468.94 382.892C467.757 381.512 471.439 379.939 473.199 379.485C479.36 377.895 486.761 376.882 493.073 377.498C493.607 377.55 499.551 377.835 498.468 380.905C497.108 384.756 480.222 388.086 477.174 386.867C476.584 386.631 478.285 386.243 478.877 386.015C480.749 385.295 482.608 384.504 484.556 384.028C486.883 383.459 489.266 383.095 491.654 382.892C493.728 382.716 495.844 382.561 497.9 382.892C498.871 383.049 501.441 384.342 501.023 386.015C500.102 389.699 492.146 390.405 489.382 389.99C488.21 389.814 485.884 389.412 486.259 388.287C486.379 387.927 487.025 388.369 487.395 388.287C491.457 387.384 492.457 388.32 496.196 388.854C499.163 389.278 501.612 387.16 504.43 388.287C504.626 388.365 504.998 388.359 504.998 388.57C504.998 389.964 491.086 392.672 491.086 393.681C491.086 394.272 496.428 392.276 496.48 392.261C498.705 391.626 500.904 391.327 503.01 390.274" fill="none" opacity="1" stroke="#ff0045" stroke-linecap="round" stroke-linejoin="round" stroke-width="32.4012"/>
<path d="M425.785 280.967C425.785 279.168 427.364 274.711 425.785 275.572C420.674 278.36 415.944 282.597 413.293 287.781C405.257 303.49 400.18 320.555 394.271 337.182C393.912 338.191 395.868 335.743 396.542 334.911C397.483 333.747 398.384 332.535 399.097 331.22C401.418 326.941 403.49 322.533 405.627 318.16C407.56 314.204 409.418 310.212 411.306 306.235C419.313 289.363 426.553 272.106 436.574 256.266C438.297 253.542 440.394 251.007 442.82 248.884C443.204 248.549 443.549 249.82 443.388 250.304C442.087 254.206 440.212 257.893 438.561 261.66C433.595 272.997 428.395 284.238 423.798 295.73C417.531 311.396 412.504 327.744 407.047 343.712C406.495 345.326 405.956 346.946 405.343 348.538C404.063 351.868 403.891 355.953 401.369 358.475C400.147 359.697 400.303 355.079 400.517 353.365C401.449 345.906 402.991 338.522 404.776 331.22C411.358 304.292 421.31 279.411 435.154 255.414C436.034 253.889 436.517 251.156 438.278 251.156C439.725 251.156 437.996 254.084 437.426 255.414C435.992 258.761 433.944 261.811 432.315 265.067C428.508 272.682 425.133 280.51 421.81 288.348C415.136 304.095 409.576 320.291 403.64 336.33C402.121 340.434 401.357 344.978 398.813 348.538C397.972 349.716 397.808 345.719 397.962 344.28C398.763 336.745 400.285 329.303 401.652 321.85C405.384 301.519 410.294 280.485 416.416 260.809C418.578 253.86 421.494 247.168 424.082 240.367C424.807 238.461 427.484 232.992 426.353 234.688C425.036 236.663 424.566 239.091 423.514 241.218C420.117 248.085 416.435 254.808 413.009 261.66C405.075 277.528 395.937 296.744 388.308 312.765C384.796 320.142 381.434 327.591 377.804 334.911C375.659 339.235 374.147 344.036 370.99 347.687C370.289 348.497 368.848 346.478 368.718 345.415C368.246 341.559 368.912 337.642 369.286 333.775C369.481 331.761 369.898 329.767 370.422 327.813C372.739 319.161 374.576 310.331 377.804 301.976C386.308 279.966 400.762 260.282 415.848 242.354C418.003 239.794 420.179 237.138 422.946 235.256C423.572 234.831 423.3 236.858 422.946 237.528C420.698 241.774 417.863 245.684 415.28 249.736C411.414 255.802 407.544 261.865 403.64 267.907C394.737 281.685 386.415 294.292 378.371 308.79C372.904 318.645 369.594 330.079 361.904 338.317C361.4 338.858 360.154 337.636 360.201 336.898C360.46 332.841 361.582 328.865 362.756 324.973C367.311 309.879 371.906 299.068 378.655 284.941C383.196 275.437 389.479 266.864 395.122 257.969C402.52 246.309 410.613 233.602 420.675 223.9C420.92 223.663 421.413 224.456 421.243 224.751C419.513 227.755 417.328 230.473 415.28 233.269C411.365 238.613 407.184 243.761 403.356 249.168C398.002 256.73 392.587 264.268 387.741 272.165C372.914 296.323 361.879 321.795 349.412 347.119C348.925 348.109 348.582 349.283 347.709 349.958C346.401 350.969 344.335 353.114 343.166 351.945C341.414 350.194 342.011 347.022 342.314 344.564C342.97 339.255 344.361 334.038 346.005 328.948C354.494 302.673 368.042 277.797 383.198 254.846C387.412 248.465 392.195 242.478 396.826 236.392C398.822 233.769 401.043 231.324 403.072 228.726C403.412 228.291 404.324 226.927 403.924 227.307C380.688 249.319 363.85 281.028 351.399 309.926C347.95 317.932 345.029 326.157 342.03 334.343C340.486 338.558 339.27 342.887 337.772 347.119C337.658 347.441 337.204 348.312 337.204 347.971C337.204 342.584 340.639 337.759 342.314 332.639C342.808 331.131 343.177 329.582 343.734 328.097C346.869 319.737 349.65 311.221 353.387 303.112C364.955 278.009 378.846 253.6 396.258 232.133C401.317 225.896 407.152 220.201 413.577 215.382C415.689 213.798 418.955 212.078 421.243 213.395C423.431 214.655 423.112 218.257 422.946 220.777C422.628 225.611 420.966 230.264 419.823 234.972C417.842 243.136 415.527 251.218 413.577 259.389C408.34 281.333 404.697 301.126 401.936 323.554C400.699 333.608 399.419 343.94 401.085 353.933C401.289 355.161 403.937 355.42 404.776 354.501C407.342 351.686 408.46 347.812 409.886 344.28C415.952 329.26 419.379 316.107 423.514 300.273C427.958 283.255 431.635 265.959 437.71 249.452C439.128 245.599 440.708 241.713 443.104 238.379C443.549 237.76 444.102 239.616 444.24 240.367C444.774 243.265 444.967 246.223 445.091 249.168C445.346 255.22 445.334 261.281 445.375 267.339C445.478 282.455 444.987 299.649 446.227 314.753C446.751 321.136 446.528 328.454 450.486 333.491C450.778 333.863 451.581 333.111 451.622 332.639C451.889 329.515 452.395 326.405 452.473 323.27C452.584 318.822 452.388 314.371 452.189 309.926C451.282 289.665 448.505 268.441 446.227 248.316C445.635 243.09 445.273 237.793 443.956 232.701C443.775 232.003 442.263 231.192 441.968 231.849C438.509 239.566 439.541 248.662 439.697 257.118C439.962 271.416 442.603 283.136 446.227 297.15C447.292 301.266 448.663 305.296 449.918 309.358C450.994 312.838 452.687 318.089 455.88 319.863C457.506 320.766 460.078 319.867 461.275 318.443C463.891 315.332 465.22 311.265 466.385 307.371C468.268 301.076 469.639 294.595 470.36 288.064C471.836 274.691 470.711 260.999 468.373 247.749C467.386 242.158 467.019 235.344 462.126 231.849C460.262 230.518 458.573 235.064 457.868 237.244C456.411 241.747 455.487 246.445 455.029 251.156C454.442 257.185 454.2 263.293 454.745 269.326C456.274 286.275 462.056 302.324 470.928 316.74C473.899 321.567 475.349 323.94 479.729 326.677C481.752 327.942 479.488 320.648 479.445 320.431C478.23 314.276 476.86 308.151 475.754 301.976C474.115 292.818 472.36 283.669 471.212 274.437C469.992 264.633 469.721 254.731 468.656 244.909C468.017 239.015 468.483 232.736 466.101 227.307C465.464 225.854 462.323 227.336 461.559 228.726C458.933 233.5 457.779 238.995 456.732 244.342C455.119 252.578 453.831 260.936 453.609 269.326C453.356 278.898 453.856 288.538 455.312 298.002C456.332 304.632 458.54 311.064 460.991 317.308C462.539 321.252 464.567 325.09 467.237 328.38C468.742 330.235 470.832 332.035 473.199 332.355C474.921 332.588 476.975 331.359 477.742 329.8C479.898 325.412 480.709 320.44 481.433 315.604C484.312 296.366 485.814 276.854 485.691 257.402C485.661 252.624 485.917 247.44 483.704 243.206C482.955 241.773 480.526 244.041 479.161 244.909C478.363 245.417 477.891 246.339 477.458 247.181C474.666 252.599 471.736 257.974 469.508 263.648C466.708 270.779 464.422 278.116 462.41 285.509C460.188 293.677 458.069 302.031 457.868 310.494C457.838 311.756 457.761 313.363 458.719 314.185C459.513 314.865 461.035 314.564 461.842 313.901C463.876 312.231 465.06 309.737 466.669 307.655" fill="none" opacity="1" stroke="#ff0045" stroke-linecap="round" stroke-linejoin="round" stroke-width="32.4012"/>
<path d="M459.855 197.212C459.193 198.537 458.273 199.762 457.868 201.186C455.709 208.782 452.744 216.307 452.189 224.184C452.07 225.885 455.591 222.819 456.448 221.344C458.088 218.523 458.354 215.102 459.287 211.975C461.206 205.549 463.082 199.248 464.398 192.669C464.844 190.438 465.826 186.491 465.533 184.152C465.496 183.855 464.908 183.672 464.682 183.868C460.775 187.254 457.244 194.737 455.312 198.347C448.616 210.867 442.701 223.737 435.722 236.108C434.509 238.259 432.492 241.792 431.18 243.206C430.914 243.492 430.806 242.45 430.896 242.07C431.669 238.807 432.707 235.61 433.735 232.417C435.358 227.375 436.952 222.317 438.845 217.37C443.158 206.097 448.649 195.307 453.893 184.435C455.948 180.175 459.541 175.749 458.719 171.091C458.364 169.075 454.897 172.907 453.609 174.498C450.514 178.321 447.99 182.923 445.659 187.275C437.95 201.665 431.134 216.679 426.637 232.417C426.579 232.621 426.845 232.047 426.921 231.849C427.319 230.815 427.688 229.771 428.057 228.726C428.824 226.553 429.613 224.387 430.328 222.196C431.415 218.868 432.425 215.507 433.735 212.259C437.918 201.886 442.268 191.554 447.363 181.596C448.887 178.618 450.634 175.757 452.189 172.795C452.623 171.97 453.939 170.941 453.325 170.24C452.096 168.835 447.014 172.12 443.956 174.498C440.779 176.969 437.844 179.737 434.871 182.448C425.198 191.267 416.836 201.05 407.615 210.272C405.913 211.973 402.783 214.857 400.233 215.95C399.885 216.099 399.129 216.327 399.097 215.95C398.751 211.799 401.802 208.047 403.64 204.31C405.153 201.232 406.878 198.263 408.466 195.224C413.788 185.044 419.881 175.366 426.069 165.697C428.73 161.54 431.516 157.459 434.019 153.205C434.984 151.563 435.722 149.798 436.574 148.094C436.669 147.905 437.043 147.424 436.858 147.526C432.306 150.055 430.948 153.275 427.489 158.031C424.292 162.427 421.08 166.817 418.12 171.375C410.599 182.955 403.465 195.322 397.394 207.716C395.774 211.024 394.153 214.33 392.567 217.654C391.066 220.798 388.827 229.823 388.876 229.862C389.898 230.68 392.227 226.999 394.271 223.048C396.041 219.625 397.44 216.022 399.097 212.543C404.099 202.039 409.001 191.462 414.145 181.028C416.709 175.828 419.217 170.599 421.81 165.413C423.003 163.028 424.246 160.668 425.501 158.315C426.124 157.148 428.002 154.66 426.637 154.908C421.958 155.759 419.704 161.512 416.984 165.413C413.891 169.849 411.006 174.429 408.182 179.041C396.165 198.674 385.789 219.078 375.248 239.515C372.9 244.067 371.429 249.208 368.15 253.143C367.842 253.514 368.291 252.184 368.434 251.723C369.144 249.437 369.876 247.155 370.706 244.909C372.148 241.002 373.687 237.13 375.248 233.269C382.015 216.531 390.103 201.815 399.949 186.707C402.228 183.21 404.463 179.685 406.763 176.202C407.776 174.669 408.885 173.2 409.886 171.659C410.258 171.087 411.341 169.353 411.022 169.956C397.16 196.139 382.497 221.949 368.434 248.032C365.943 252.653 363.575 257.34 361.053 261.944C359.173 265.375 358.161 269.868 354.806 271.881C354.563 272.027 354.758 271.309 354.806 271.03C355.232 268.56 355.515 266.051 356.226 263.648C357.508 259.313 359.163 255.097 360.769 250.872C367.1 234.209 375.133 218.996 383.766 203.458C385.431 200.46 387.01 197.415 388.592 194.372C389.471 192.683 390.296 190.965 391.148 189.262C391.242 189.073 391.49 188.491 391.431 188.694C389.991 193.737 386.276 200.141 384.334 204.026C379.374 213.945 374.079 223.693 369.002 233.553C365.379 240.591 361.788 247.65 357.93 254.562C357.145 255.967 356.411 257.399 355.658 258.821C355.559 259.008 355.374 259.601 355.374 259.389C355.374 255.196 359.181 250.923 361.053 247.181C362.415 244.455 363.633 241.657 365.027 238.947C366.946 235.22 368.915 231.517 370.99 227.874C379.446 213.028 389.205 199.029 397.962 184.435C399.664 181.598 400.363 178.359 401.652 175.35C404.351 169.052 408.161 163.28 412.157 157.747C419.172 148.035 424.87 136.759 430.612 126.233C432.451 122.861 433.993 119.307 436.006 116.012C436.708 114.864 437.78 113.983 438.561 112.889C439.015 112.254 439.562 109.968 439.129 110.617C436.57 114.457 435.291 119.014 433.167 123.11C427.146 134.722 420.199 146.262 413.009 157.18C412.177 158.443 407.342 164.466 405.911 165.981C405.064 166.878 403.528 168.956 402.788 167.968C401.579 166.356 405.982 160.32 406.479 159.451C410.783 151.919 414.409 144.135 418.403 136.454C420.797 131.851 420.097 128.826 421.243 124.245C423.108 116.783 428.845 106.706 434.303 101.248C439.598 95.9527 449.848 92.8192 457.016 91.0273C459.534 90.3978 462.137 90.9684 464.682 90.4595C467.95 89.8058 470.802 87.0261 474.051 86.4847C477.065 85.9824 480.487 85.4749 483.42 84.4973" fill="none" opacity="1" stroke="#ff0045" stroke-linecap="round" stroke-linejoin="round" stroke-width="32.4012"/>
<path d="M446.511 379.485C438.142 380.64 429.967 382.963 421.81 385.164C421.345 385.289 420.873 385.428 420.391 385.447C409.226 385.901 398.06 386.321 386.889 386.583C383.478 386.663 380.074 386.222 376.668 386.015C376 385.975 374.469 386.366 374.68 385.731C374.773 385.454 380.391 384.566 382.062 384.312C384.709 383.909 387.375 383.637 390.012 383.176C403.381 380.842 422.331 373.288 435.722 376.078C437.651 376.48 443.672 380.206 443.672 381.189C443.672 382.135 441.779 381.189 440.833 381.189C439.18 381.189 437.629 382.01 436.006 382.324C429.256 383.631 422.281 383.514 415.564 385.164C406.518 387.385 397.477 395.952 388.025 395.952C386.885 395.952 390.297 396.133 391.431 396.236C392.566 396.339 393.701 396.453 394.838 396.52C396.831 396.637 398.812 396.907 400.801 397.088C406.211 397.58 411.836 397.372 417.268 397.372C424.999 397.372 432.835 396.737 440.549 397.088C447.028 397.382 455.496 398.675 461.842 397.088C462.948 396.812 459.575 396.804 458.435 396.804C457.205 396.804 455.974 396.758 454.745 396.804C451.618 396.92 448.49 397.075 445.375 397.372C439.546 397.927 433.93 398.791 428.057 398.791C426.165 398.791 423.383 397.476 421.527 397.94C420.737 398.137 422.733 399.13 423.514 399.359C424.888 399.763 426.344 399.832 427.773 399.927C432.981 400.274 438.162 400.211 443.388 400.211C448.982 400.211 454.304 399.138 459.855 398.791C465.697 398.426 471.623 398.956 477.458 398.508C480.31 398.288 482.805 397.372 485.691 397.372" fill="none" opacity="1" stroke="#ff0045" stroke-linecap="round" stroke-linejoin="round" stroke-width="32.4012"/>
<path d="M308.967 370.342C307.208 370.522 306.137 372.479 304.602 373.358C302.284 374.685 299.721 375.541 297.209 376.448C295.545 377.05 295.912 374.483 293.925 376.316C292.68 377.465 289.743 378.327 288.867 379.402C288.709 379.597 287.08 384.779 286.815 382.182C286.732 381.37 289.828 378.501 290.32 377.619C294.022 370.986 298.429 365.373 302.677 359.071C305.216 355.302 305.648 350.829 307.739 346.874C309.553 343.44 312.464 340.789 314.24 337.333C322.777 320.717 331.646 303.542 342.396 288.205C346.486 282.37 351.949 276.188 354.752 269.657C355.336 268.295 354.741 266.877 355.275 265.632C355.633 264.799 359.374 261.181 358.71 260.376C357.901 259.396 354.719 262.035 354.251 262.467C350.152 266.249 349.009 270.128 346.391 274.716C344.876 277.372 345.238 281.137 344.306 284.039C343.411 286.829 341.65 289.245 340.924 292.093C339.265 298.598 338.856 305.591 338.075 312.24" fill="none" opacity="1" stroke="#ff0045" stroke-linecap="round" stroke-linejoin="round" stroke-width="32.4012"/>
<path d="M298.714 377.463C298.73 377.617 298.654 377.813 298.761 377.925C300.246 379.47 301.359 381.766 303.419 382.355C305.803 383.038 308.321 381.562 310.793 381.369C312.339 381.248 313.879 381.521 315.464 381.359C316.466 381.257 317.607 380.533 318.47 381.052C319.033 381.391 317.79 382.246 317.224 382.581C314.942 383.931 312.276 384.271 309.76 384.978C307.598 385.586 305.455 386.64 303.15 386.588C301.753 386.556 296.88 382.056 295.19 384.13C294.686 384.748 296.643 384.791 297.389 385.073C297.875 385.257 298.353 385.464 298.847 385.625C302.57 386.845 306.491 387.41 310.322 388.191C316.312 389.413 323.119 393.893 329.294 393.263C330.922 393.096 332.477 392.362 334.078 392.073C339.93 391.017 345.706 393.201 351.493 393.332C367.587 393.696 383.199 395.147 399.228 396.401C405.288 396.875 410.877 397.269 416.761 398.816C417.709 399.065 418.87 398.839 419.63 399.458C420.242 399.957 418.144 400.024 417.365 400.156C416.065 400.377 414.763 400.589 413.459 400.788C409.996 401.318 406.838 401.218 403.399 400.647C399.372 399.979 395.457 398.444 391.438 397.897C387.054 397.301 382.795 398.77 378.444 398.757C376.08 398.749 373.629 397.721 371.296 397.384C367.858 396.888 364.496 398.018 361.053 397.729C350.262 396.825 338.204 394.6 334.082 382.962C333.329 380.836 333.221 379.098 333.006 376.999C332.405 371.112 331.942 365.287 331.675 359.381C331.381 352.881 329.315 344.22 330.867 337.738C331.073 336.879 332.185 336.558 332.782 335.907C333.079 335.584 333.179 334.826 333.613 334.888C334.446 335.008 332.859 340.935 332.495 342.244C330.315 350.083 326.673 357.177 324.286 364.807C324.118 365.345 323.033 370.725 324.763 371.766C326.813 373 327.883 368.965 328.981 365.029C330.377 360.024 330.926 353.662 331.745 348.628C332.044 346.79 331.644 344.589 332.821 343.145C333.084 342.822 333.593 342.319 333.929 342.565C336.524 344.461 336.386 348.509 337.417 351.553C338.465 354.649 339.353 357.815 340.696 360.796C341.879 363.42 343.298 365.957 344.967 368.302C347.422 371.753 353.491 372.23 355.72 368.372C356.916 366.3 357.629 363.984 358.55 361.776C359.631 359.186 360.533 356.518 361.725 353.977C362.456 352.42 363.109 350.744 364.306 349.508C365.248 348.535 366.446 351.441 366.741 352.764C367.094 354.354 367.261 355.98 367.467 357.595C368.14 362.846 368.012 367.924 367.893 373.203C367.863 374.522 366.757 376.969 368.063 377.157C369.039 377.298 369.496 375.749 369.931 374.864C371.445 371.785 372.535 368.514 373.866 365.352C375.84 360.661 378.185 353.546 381.787 349.125C382.279 348.522 381.903 350.69 381.792 351.461C381.735 351.852 381.694 352.246 381.679 352.64C381.616 354.206 381.592 355.774 381.457 357.335C380.905 363.7 380.018 369.574 376.985 375.312" fill="none" opacity="1" stroke="#ff0045" stroke-linecap="round" stroke-linejoin="round" stroke-width="32.4012"/>
<path d="M451.861 111.441C448.634 119.822 452.668 123.095 455.281 131.015C461.172 148.878 467.083 166.736 472.679 184.693C473.172 186.274 473.518 187.931 473.534 189.587C473.539 190.059 472.93 188.85 472.716 188.429C471.196 185.44 469.552 182.497 468.338 179.37C465.622 172.376 462.323 160.062 460.86 152.826C458.305 140.2 457.046 127.314 454.702 114.641C454.167 111.749 452.357 105.367 453.411 103.4C453.718 102.827 454.008 104.576 454.116 105.216C454.77 109.073 455.471 112.921 456.202 116.763C457.283 122.444 458.349 128.128 459.552 133.783C463.681 153.192 469.601 171.652 476.113 190.369C477.243 193.618 478.488 196.829 479.526 200.11C479.664 200.547 479.838 201.892 479.629 201.484C475.569 193.559 474.032 179.128 472.5 170.93C469.072 152.594 466.305 134.267 466.069 115.576C466.023 111.921 466.136 108.261 466.426 104.617C466.63 102.054 466.416 98.8092 468.385 97.1555C470.024 95.7795 471.858 99.967 472.647 101.956C473.987 105.337 474.915 108.868 475.947 112.356C480.133 126.5 483.636 140.839 487.604 155.045C488.548 158.428 489.513 161.806 490.438 165.195C490.97 167.143 491.432 169.109 491.975 171.054C492.062 171.366 492.272 172.282 492.327 171.962C492.931 168.444 490.647 165.024 489.879 161.539C489.067 157.852 488.193 154.176 487.544 150.457C484.846 135.015 483.614 119.226 483.901 103.55C484.002 98.0559 485.027 92.8781 485.299 87.5146C485.379 85.9221 485.58 84.2419 485.625 82.6541C485.653 81.6276 484.463 79.403 485.475 79.5768C486.338 79.7251 487.621 89.7995 487.674 90.4654C488.748 103.94 489.885 117.425 491.074 130.889C492.691 149.212 496.326 166.5 500.012 184.471C503.386 200.919 505.337 217.584 508.971 233.986C513.097 252.614 521.513 272.117 520.967 291.483" fill="none" opacity="1" stroke="#ff0045" stroke-linecap="round" stroke-linejoin="round" stroke-width="32.4012"/>
<path d="M471.316 165.98C477.279 202.468 490.258 237.161 501.559 272.215C502.598 275.439 503.608 278.673 504.643 281.899C506.388 287.341 511.166 295.392 509.3 301.178" fill="none" opacity="1" stroke="#ff0045" stroke-linecap="round" stroke-linejoin="round" stroke-width="32.4012"/>
<path d="M474.303 150.557C478.678 157.88 484.013 164.698 487.49 172.487C500.06 200.643 511.553 229.409 520.275 258.984C521.501 263.141 522.697 267.307 523.895 271.473C525.489 277.016 529.173 284.175 528.143 290.173" fill="none" opacity="1" stroke="#ff0045" stroke-linecap="round" stroke-linejoin="round" stroke-width="32.4012"/>
<path d="M492.494 132.489C494.461 138.997 498.823 144.565 501.193 150.937C506.432 165.015 510.476 179.511 515.019 193.829C517.108 200.41 518.372 207.227 520.222 213.879C526.749 237.349 534.38 261.19 536.214 285.625" fill="none" opacity="1" stroke="#ff0045" stroke-linecap="round" stroke-linejoin="round" stroke-width="32.4012"/>
<path d="M511.308 306.657C515.699 312.166 516.878 319.604 519.339 326.204C519.654 327.049 519.929 327.907 520.21 328.764C524.48 341.791 528.852 354.786 532.991 367.856C533.131 368.298 533.488 369.161 533.032 369.247C531.132 369.604 527.803 363.553 527.061 362.264C525.493 359.542 524.167 356.685 522.836 353.839C516.359 339.987 508.849 324.518 504.744 309.932C504.624 309.506 504.961 310.788 505.079 311.214C505.517 312.794 505.994 314.362 506.412 315.947C506.852 317.618 507.226 319.306 507.653 320.981C509.092 326.624 510.528 332.272 512.225 337.846C515.963 350.116 522.542 361.658 524.335 374.374C524.739 377.241 525.758 381.285 523.821 383.933C523.267 384.69 521.425 384.216 520.569 384.923C520.386 385.075 519.005 386.881 519.538 387.041C520.677 387.384 524.254 385.529 525.343 384.982C527.437 383.929 529.819 383.554 531.829 382.405C534.451 380.906 535.886 378.663 539.062 378.216C542.615 377.715 546.699 378.516 550.073 377.395C552.856 376.47 555.809 373.448 558.703 373.363C560.241 373.318 561.853 373.569 563.381 373.524C564.186 373.5 565.544 374.623 565.776 373.851C565.851 373.603 563.455 371.192 562.685 370.164C560.282 366.954 558.212 363.601 556.422 360.009C548.473 344.065 543.665 326.964 537.66 310.256C535.292 303.667 532.695 297.166 530.616 290.48C530.031 288.599 529.404 286.731 528.761 284.868C528.556 284.274 527.542 282.833 528.112 283.098C529.472 283.728 530.071 286.516 530.534 287.699C532.64 293.071 534.544 298.494 536.775 303.82C543.482 319.837 549.83 335.989 556.682 351.948C558.605 356.428 560.507 360.858 562.738 365.192C562.989 365.679 562.929 366.677 563.477 366.661C564.055 366.644 563 362.748 562.741 361.911C560.846 355.779 558.374 349.861 556.539 343.701C552.545 330.3 548.729 316.611 545.697 302.961C545.237 300.893 544.83 298.814 544.42 296.735C544.111 295.166 539.645 280.376 541.604 288.865" fill="none" opacity="1" stroke="#ff0045" stroke-linecap="round" stroke-linejoin="round" stroke-width="32.4012"/>
<path d="M311.114 432.703C311.573 432.732 312.062 432.625 312.491 432.79C315.244 433.855 323.356 435.339 320.59 436.369C313.641 438.957 305.816 437.725 298.407 438.036C294.269 438.209 290.148 437.145 286.12 436.181C285.391 436.006 283.587 435.765 284.092 435.21C284.81 434.42 286.212 434.897 287.279 434.906C289.881 434.926 292.48 435.097 295.074 435.297C299.012 435.6 302.941 436 306.869 436.413C312.596 437.014 318.339 437.514 324.039 438.34C328.377 438.969 332.661 439.93 336.963 440.774C339.332 441.239 341.751 441.528 344.048 442.267C344.354 442.365 344.709 443.092 344.396 443.165C339.78 444.233 333.312 442.424 328.922 441.614C316.417 439.309 304.008 436.671 291.771 433.167C289.463 432.506 282.036 430.473 281.962 428.907C281.89 427.402 285.793 427.226 291.64 427.226C303.576 427.226 315.625 428.152 327.328 430.559C328.242 430.747 329.789 430.584 329.965 431.501C330.118 432.299 328.34 431.683 327.531 431.617C324.81 431.393 322.101 431.039 319.402 430.632C316.211 430.15 313.039 429.552 309.868 428.951C299.088 426.906 288.203 424.859 277.789 421.329C276.267 420.813 272.163 418.544 271.689 418.113C270.462 416.998 274.344 415.799 275.992 415.62C278.769 415.32 281.578 415.224 284.367 415.374C289.963 415.675 299.343 416.238 304.522 419.141C304.529 419.145 300.828 419.29 299.798 419.214C295.997 418.933 296.01 419.039 293.365 418.605C287 417.563 279.347 417.061 273.616 413.751C271.454 412.503 276.391 411.275 278.673 411.071C280.995 410.863 287.613 410.466 289.554 412.23C289.894 412.539 288.652 412.44 288.192 412.447C287.071 412.464 285.947 412.408 284.831 412.302C283.443 412.171 282.056 411.998 280.687 411.737C278.625 411.345 274.136 410.827 272.631 409.071C272.397 408.799 273.63 407.641 273.616 407.347C273.616 407.345 268.42 403.515 270.399 407.043" fill="none" opacity="1" stroke="#008a0a" stroke-linecap="round" stroke-linejoin="round" stroke-width="21.0882"/>
<path d="M296.161 419.692C310.499 421.856 324.473 425.286 338.89 426.806C341.926 427.127 344.888 428.808 347.975 428.661C348.119 428.654 347.796 428.403 347.656 428.371C346.492 428.104 345.297 427.987 344.121 427.777C342.375 427.466 340.635 427.126 338.89 426.806C331.707 425.49 324.595 423.972 317.359 422.952C315.466 422.685 313.574 422.414 311.679 422.155C310.712 422.023 309.735 421.965 308.767 421.836C308.608 421.815 308.143 421.714 308.303 421.706C310.398 421.606 312.876 422.992 314.794 423.532C321.723 425.481 329.009 426.902 336.065 428.313C348.643 430.829 361.42 430.825 374.085 432.602C378.159 433.174 381.879 435.094 385.691 436.167" fill="none" opacity="1" stroke="#008a0a" stroke-linecap="round" stroke-linejoin="round" stroke-width="21.0882"/>
<path d="M284.092 438.412C282.166 436.662 279.102 436.865 276.528 436.485C272.606 435.906 268.652 435.568 264.719 435.065C263.907 434.961 261.452 434.853 262.271 434.877C264.68 434.947 267.17 434.843 269.588 434.833C270.148 434.831 271.812 434.77 271.268 434.906C267.489 435.85 260.921 436.198 257.373 434.5C256.952 434.299 260.411 433.72 259.952 434.225C259.14 435.119 256.16 435.111 255.127 435.369C254.816 435.447 254.345 436.017 254.229 435.717C253.888 434.836 255.375 434.202 255.794 433.355C256.667 431.592 256.978 429.494 257.967 427.762C259.152 425.689 261.532 424.021 262.097 421.619C262.311 420.707 263.044 417.68 261.879 417.055C261.048 416.608 260.967 420.455 260.981 420.605C261.23 423.331 262.119 426.035 263.488 428.414C266.52 433.686 273.413 437.684 278.977 439.876C286.662 442.903 293.842 446.575 301.812 448.7C303.134 449.052 307.785 451.312 309.1 451.25C309.459 451.233 308.703 450.494 308.897 450.192C309.264 449.623 310.516 449.468 310.998 449.482C317.402 449.669 323.664 452.965 329.965 453.916" fill="none" opacity="1" stroke="#008a0a" stroke-linecap="round" stroke-linejoin="round" stroke-width="21.0882"/>
<path d="M433.37 449.975C405.708 446.915 378.32 449.512 350.767 452.271C349.549 452.393 348.295 452.531 347.174 453.022C346.302 453.403 349.052 452.684 350.001 452.606C353.249 452.339 356.507 452.197 359.759 451.986C364.014 451.71 368.261 451.303 372.521 451.146C383.543 450.74 394.579 451.399 405.608 451.539C419.523 451.717 433.424 450.539 447.333 451.255C449.823 451.383 452.306 451.666 454.776 452.012C455.84 452.16 457.973 451.661 457.918 452.734C457.908 452.934 453.035 452.692 452.499 452.643C448.588 452.284 444.685 451.839 440.775 451.478C435.501 450.992 430.229 450.484 424.947 450.103C405.265 448.683 385.5 447.861 365.763 447.993C357.33 448.049 348.906 448.608 340.473 448.749C338.667 448.779 336.858 448.75 335.054 448.657C334.367 448.622 332.501 448.826 333.012 448.365C336.228 445.463 341.24 445.461 345.535 444.894C354.316 443.736 368.525 443.303 377.029 443.522C394.161 443.964 411.375 445.789 428.478 446.918C437.147 447.49 447.782 449.244 456.36 446.669C457.459 446.339 454.963 444.627 453.863 444.296C451.148 443.478 448.329 443.048 445.536 442.558C441.282 441.812 437.013 441.147 432.731 440.59C419.597 438.883 406.289 437.92 393.063 437.24C390.824 437.124 380.012 437.477 378.159 436.099C377.492 435.603 379.784 435.726 380.613 435.664C383.232 435.466 385.86 435.384 388.486 435.321C392.478 435.225 396.471 435.215 400.464 435.189C414.451 435.098 428.137 436.171 442.074 437.143C446.484 437.45 450.893 437.784 455.309 438.011C455.626 438.027 456.016 438.085 456.251 437.872C456.397 437.74 455.896 437.689 455.701 437.657C453.665 437.324 451.623 437.018 449.574 436.781C445.796 436.344 442.002 436.064 438.223 435.635C433.943 435.15 429.681 434.514 425.399 434.04C412.075 432.566 398.586 430.879 385.182 430.475C381.8 430.373 378.224 429.905 375.05 431.076C374.583 431.248 376.045 431.127 376.543 431.152C378.657 431.261 380.769 431.446 382.885 431.479C385.942 431.525 388.999 431.362 392.055 431.389C400.735 431.467 409.111 432.15 417.78 433.087C441.607 435.663 460.701 435.968 484.125 430.515C490.766 428.97 497.33 427.528 503.991 426.113C506.057 425.675 510.757 424.548 513.08 423.962C513.462 423.866 514.602 423.558 514.218 423.647C504.974 425.781 495.574 427.117 486.263 428.942C480.647 430.043 475.074 431.368 469.44 432.378C465.232 433.133 460.985 433.675 456.797 434.534C455.331 434.834 453.882 435.219 452.439 435.619C451.982 435.745 450.634 436.055 451.105 436.111C457.36 436.853 464.687 435.656 470.956 435.636C484.21 435.595 497.467 435.625 510.677 434.313C511.841 434.198 524.281 432.291 524.596 432.785C524.979 433.383 523.51 433.742 522.85 434.004C521.131 434.69 519.335 435.185 517.531 435.601C512.028 436.872 506.439 437.737 500.904 438.86C490.144 441.045 479.359 443.101 468.591 445.241C467.057 445.546 460.267 446.491 457.795 447.865C456.991 448.311 459.24 449.185 460.153 449.296C463.226 449.669 470.784 449.221 473.445 449.044C488.536 448.042 503.44 447.408 518.567 448.186C518.911 448.204 526.611 447.965 526.737 449.355C526.898 451.13 523.528 451.041 521.771 451.344C516.616 452.232 511.358 452.361 506.163 452.972C492.177 454.619 477.045 458.208 462.911 457.48C461.976 457.432 464.788 457.341 465.719 457.438C466.157 457.483 466.577 457.646 467.015 457.691C468.936 457.892 470.866 457.993 472.789 458.176C475.147 458.4 477.503 458.653 479.858 458.913C488.8 459.902 497.716 460.73 506.644 461.788C508.504 462.008 515.703 463.222 516.522 462.483C516.707 462.316 516.024 462.465 515.776 462.445C513.975 462.297 512.181 462.049 510.375 461.98C507.511 461.871 504.642 461.944 501.775 461.912C498.411 461.873 495.046 461.825 491.682 461.766C475.321 461.48 459.257 461.835 443.245 465.259C438.798 466.211 434.562 469.291 429.937 469.438C423.129 469.654 416.86 467.707 410.259 466.555C403.275 465.336 395.926 464.729 388.873 464.145C378.455 463.282 368.192 464.952 357.81 464.417C348.992 463.964 339.728 461.786 331.101 460.05C323.465 458.514 317.245 453.677 309.807 452.221" fill="none" opacity="1" stroke="#008a0a" stroke-linecap="round" stroke-linejoin="round" stroke-width="21.0882"/>
<path d="M570.957 401.943C572.532 401.724 576.008 401.699 576.675 399.908C576.755 399.694 576.293 399.656 576.088 399.558C575.281 399.173 574.809 399.319 573.782 399.645C573.028 399.885 572.336 400.286 571.616 400.611C570.099 401.297 568.587 401.994 567.07 402.681C563.056 404.499 559 406.225 554.935 407.927C542.555 413.109 530.057 417.907 517.071 421.207C516.427 421.371 518.225 420.546 518.826 420.263C519.818 419.796 520.791 419.29 521.792 418.844C525.84 417.038 530.08 415.975 534.224 414.437C539.425 412.508 544.258 409.744 549.56 408.045C557.001 405.662 564.862 404.12 572.463 402.308C573.787 401.993 583.184 399.991 583.193 402.325C583.206 405.702 576.954 408.976 574.723 410.547C564.376 417.835 553.777 424.048 542.236 429.279C537.392 431.475 532.492 433.289 527.503 435.102C526.079 435.619 524.641 435.995 523.169 436.369C522.492 436.541 521.824 436.753 521.139 436.885C520.921 436.927 520.361 437.078 520.474 436.888C521.357 435.404 523.716 435.697 525.353 435.149C529.41 433.791 533.492 432.509 537.592 431.291C548.91 427.927 560.169 423.468 571.675 420.8C575.983 419.801 580.42 419.149 584.84 418.951C585.452 418.923 586.646 418.371 586.678 418.983C586.728 419.957 579.723 424.703 579.021 425.169C578.03 425.826 577.024 426.46 576.019 427.096C566.481 433.126 556.166 437.594 546.158 442.749C540.483 445.672 534.918 448.768 528.814 450.732C528.124 450.954 527.407 451.275 526.686 451.189C526.447 451.161 525.931 451.271 525.982 451.036C526.323 449.47 528.738 449.367 530.234 448.791C533.717 447.45 537.866 445.969 541.358 444.8C551.285 441.477 561.143 436.992 571.457 434.989C577.423 433.831 582.42 433.423 587.857 430.822C588.429 430.548 591.594 429.199 592.093 429.496C592.166 429.539 590.198 430.618 590.065 430.676" fill="none" opacity="1" stroke="#008a0a" stroke-linecap="round" stroke-linejoin="round" stroke-width="21.0882"/>
<path d="M407.037 210.985C405.742 208.395 405 219.068 404.844 220.001C404.802 220.252 404.377 221.96 404.194 221.869C404.03 221.787 404.66 218.036 404.682 217.808C404.978 214.691 405.73 212.155 407.199 209.442C407.543 208.808 407.908 207.145 408.418 207.655C408.642 207.879 406.263 211.383 406.225 211.473C405.557 213.03 405.421 213.479 405.006 214.722" fill="none" filter="url(#Filter)" opacity="1" stroke="#ffffff" stroke-linecap="round" stroke-linejoin="round" stroke-width="0.63064" vectornator:blur="5.45717"/>
<path d="M404.357 217.97C403.813 217.064 403.984 216.021 404.275 215.046C404.768 213.396 405.25 211.743 405.737 210.092" fill="none" filter="url(#Filter_2)" opacity="1" stroke="#ffffff" stroke-linecap="round" stroke-linejoin="round" stroke-width="0.63064" vectornator:blur="5.45717"/>
</g>
<g id="Ebene-1" vectornator:layerName="Ebene 1">
<path d="M427.629 81.7571L236.593 443.243" fill="none" opacity="1" stroke="#000000" stroke-linecap="butt" stroke-linejoin="round" stroke-width="11.8487" vectornator:layerName="(line)"/>
<path d="M527.264 464.653L427.629 81.7571" fill="none" opacity="1" stroke="#000000" stroke-linecap="butt" stroke-linejoin="round" stroke-width="11.8487" vectornator:layerName="(line)"/>
<path d="M424.65 84.4459L500.195 63.8588" fill="none" opacity="1" stroke="#000000" stroke-linecap="butt" stroke-linejoin="round" stroke-width="11.8487"/>
<path d="M492.827 60.1764L601.079 436.898" fill="none" opacity="1" stroke="#000000" stroke-linecap="butt" stroke-linejoin="round" stroke-width="11.8487" vectornator:layerName="(line)"/>
<path d="M522.151 466.323L606.917 433.712" fill="none" opacity="1" stroke="#000000" stroke-linecap="butt" stroke-linejoin="round" stroke-width="11.8487"/>
<path d="M514.128 408.248L586.322 384.145" fill="none" opacity="1" stroke="#ffffff" stroke-linecap="butt" stroke-linejoin="round" stroke-width="11.8487"/>
<path d="M240.071 436.803C241.37 440.329 237.109 435.621 244.074 440.126C259.964 450.403 289.304 459.429 307.456 464.749C330.629 471.541 353.661 475.874 376.817 478.143C406.955 481.096 437.305 480.551 468.456 477.378C482.113 475.987 508.552 468.795 521.94 466.248C528.365 465.025 520.378 464.488 526.914 464.666" fill="none" opacity="1" stroke="#000000" stroke-linecap="round" stroke-linejoin="round" stroke-width="11.8487"/>
<path d="M512.875 405.158C512.902 405.147 516.669 405.473 514.513 406.371C508.58 408.842 513.196 408.03 507.153 410.273C489.732 416.739 446.231 421.345 427.669 420.848C385.852 419.727 307.078 414.446 271.986 395.26C264.046 390.919 274.912 396.478 266.803 393.138" fill="none" opacity="1" stroke="#ffffff" stroke-linecap="round" stroke-linejoin="round" stroke-width="11.8487"/>
<path d="M519.493 400.064C519.49 400.063 515.689 401.548 515.13 401.534" fill="none" opacity="1" stroke="#ff0045" stroke-linecap="round" stroke-linejoin="round" stroke-width="0.174915"/>
<path d="M517.319 400.411C517.495 400.5 517.4 400.465 517.795 400.408C518.477 400.308 517.218 400.402 517.231 400.472C517.254 400.6 518.372 400.34 518.372 400.34C518.388 400.252 517.123 400.506 517.144 400.526C517.309 400.686 518.076 400.369 518.237 400.308C518.376 400.256 517.945 400.365 517.798 400.389C517.755 400.396 517.134 400.54 517.146 400.552C517.258 400.674 517.814 400.483 517.928 400.451C518.012 400.427 518.253 400.356 518.166 400.341C517.929 400.297 517.484 400.478 517.283 400.571C517.233 400.595 517.076 400.623 517.13 400.639C517.451 400.74 518.61 400.292 517.733 400.499C517.547 400.543 517.535 400.548 517.389 400.59" fill="none" opacity="1" stroke="#ff0045" stroke-linecap="round" stroke-linejoin="round" stroke-width="0.174915"/>
<path d="M516.91 399.977C517.436 400.607 516.872 399.897 516.81 399.753C516.798 399.724 517.149 400.394 517.129 400.395C517.014 400.403 516.773 399.906 516.737 399.836C516.708 399.78 516.616 399.631 516.673 399.657C516.788 399.709 516.877 400.135 516.907 400.239C516.932 400.324 517.032 400.556 516.963 400.5C516.83 400.392 516.712 400.11 516.662 399.963C516.647 399.918 516.605 399.804 516.65 399.82C516.775 399.865 516.906 400.424 516.881 400.562C516.879 400.57 516.862 400.558 516.857 400.551C516.773 400.439 516.704 400.27 516.655 400.142C516.619 400.047 516.557 399.747 516.595 399.842C516.665 400.019 516.701 400.218 516.763 400.399C516.974 401.015 516.613 399.997 516.543 399.916C516.428 399.784 516.765 400.577 516.716 400.41C516.516 399.723 516.641 399.75 516.68 400.358C516.681 400.364 516.673 400.349 516.67 400.344C516.592 400.231 516.536 400.033 516.54 399.896C516.544 399.758 516.648 400.151 516.688 400.283C516.729 400.421 516.771 400.559 516.811 400.697C516.833 400.774 516.878 400.997 516.825 400.937C516.736 400.835 516.617 400.204 516.842 400.176C516.986 400.158 517.163 400.259 517.293 400.31C517.373 400.341 517.602 400.46 517.531 400.411C517.405 400.323 517.272 400.225 517.134 400.159C517.06 400.123 516.84 400.112 516.907 400.066C516.988 400.01 517.524 400.322 517.507 400.297C517.478 400.256 517.041 400.14 517.077 400.084C517.09 400.064 517.728 400.321 517.7 400.223C517.619 399.945 516.707 400.837 517.535 400.424C517.541 400.421 517.522 400.426 517.515 400.427C517.388 400.442 516.887 400.465 516.99 400.704C517.101 400.961 517.465 400.533 517.459 400.526C517.398 400.46 516.942 400.737 516.96 400.762C516.999 400.819 517.524 400.701 517.523 400.698C517.464 400.496 516.897 400.789 516.897 400.789C516.897 400.789 517.359 400.832 517.319 400.693C517.284 400.572 516.861 400.847 516.985 400.87C517.006 400.874 517.002 400.829 516.979 400.83C516.799 400.842 516.779 400.19 516.712 400.358C516.632 400.56 516.79 400.781 516.675 400.492" fill="none" opacity="1" stroke="#ff0045" stroke-linecap="round" stroke-linejoin="round" stroke-width="0.174915"/>
<path d="M272.455 385.138C270.144 389.677 267.899 393.906 265.189 398.19C264.203 399.75 263.198 401.527 262.41 403.205C262.267 403.512 262.05 404.408 261.759 404.651C261.632 404.756 261.761 404.319 261.785 404.156" fill="none" opacity="1" stroke="#000000" stroke-linecap="round" stroke-linejoin="round" stroke-width="0.174915"/>
<path d="M273.182 384.154L262.522 403.319" fill="none" opacity="1" stroke="#000000" stroke-linecap="butt" stroke-linejoin="round" stroke-width="0.174915"/>
<path d="M274.508 384.065L271.405 390.113L262.898 405.936" fill="none" opacity="1" stroke="#000000" stroke-linecap="butt" stroke-linejoin="round" stroke-width="0.174915"/>
<path d="M266.473 390.408C266.078 391.224 265.98 392.153 265.695 393.013C265.121 394.741 264.482 396.446 263.86 398.157C263.854 398.175 263.822 398.207 263.814 398.19C263.198 396.712 265.319 392.269 266.022 391.007C266.313 390.483 266.636 389.976 266.974 389.48C267.135 389.245 267.335 389.038 267.517 388.818C267.591 388.728 267.791 388.474 267.782 388.59C267.714 389.512 266.673 390.977 266.313 391.735C265.676 393.078 265.102 394.451 264.534 395.825C264.301 396.389 264.086 396.96 263.835 397.516C263.739 397.73 263.657 398.235 263.457 398.111C262.991 397.822 263.899 394.422 263.978 394.212C264.317 393.309 264.623 392.389 265.045 391.521C265.452 390.685 265.95 389.895 266.457 389.116C266.781 388.619 267.151 388.152 267.535 387.7C267.611 387.61 267.82 387.384 267.828 387.502C267.877 388.313 267.233 389.014 266.909 389.759C265.945 391.975 265.176 394.258 264.25 396.484C264.118 396.801 264.058 397.218 263.761 397.39C263.602 397.482 263.578 397.051 263.586 396.868C263.614 396.223 263.717 395.579 263.865 394.95C264.077 394.047 264.312 393.143 264.662 392.284C265.469 390.302 266.121 389.389 267.358 387.79C267.506 387.599 267.624 387.16 267.846 387.255C267.952 387.3 266.979 389.158 266.754 389.676C266.033 391.34 265.377 393.033 264.787 394.748C264.668 395.095 264.377 396.129 264.368 395.763" fill="none" opacity="1" stroke="#000000" stroke-linecap="round" stroke-linejoin="round" stroke-width="0.174915"/>
<path d="M266.26 387.34C266.396 386.941 266.064 388.168 265.879 388.547C264.975 390.411 263.942 392.21 262.983 394.046C262.836 394.329 262.719 394.627 262.596 394.922C262.495 395.166 262.818 394.441 262.917 394.196C263.135 393.657 263.339 393.112 263.563 392.576C263.857 391.87 264.144 391.161 264.471 390.469C265.196 388.938 266.053 386.881 267.312 385.654C267.351 385.617 267.364 385.764 267.341 385.813C267.163 386.182 266.986 386.553 266.801 386.919C266.485 387.543 266.151 388.157 265.838 388.782C264.596 391.265 263.664 393.948 262.348 396.386C262.161 396.733 262.477 395.606 262.576 395.224C262.729 394.63 262.883 394.035 263.064 393.448C263.758 391.194 264.624 389.023 265.689 386.918C265.882 386.537 266.466 385.407 266.341 385.815C265.757 387.721 264.624 389.553 263.836 391.382C263.633 391.853 263.442 392.329 263.241 392.802C262.318 394.971 263.731 390.828 263.748 390.778C263.931 390.25 264.114 389.722 264.314 389.201C264.6 388.458 264.796 387.997 265.131 387.344C265.247 387.117 264.901 387.8 264.778 388.024C264.579 388.388 264.377 388.749 264.177 389.112C263.669 390.032 263.178 390.961 262.713 391.903C262.535 392.264 262.362 392.626 262.185 392.988C262.076 393.209 261.856 393.878 261.822 393.634C261.693 392.703 263.425 389.585 264.224 389.024" fill="none" opacity="1" stroke="#000000" stroke-linecap="round" stroke-linejoin="round" stroke-width="6.98576"/>
<path d="M268.772 388.368C268.673 388.756 268.837 389.185 268.724 389.569C268.412 390.628 267.931 391.631 267.515 392.654C267.327 393.115 267.011 393.601 266.781 394.041C266.697 394.201 266.418 394.658 266.535 394.522C267.589 393.305 268.064 391.312 268.742 389.878C268.871 389.606 269.234 388.844 269.401 388.551C269.471 388.429 269.669 388.077 269.653 388.216C269.489 389.643 268.314 391.196 267.762 392.488C267.323 393.513 267.11 394.85 266.529 395.803C266.417 395.986 266.593 395.377 266.655 395.172C266.745 394.875 266.841 394.58 266.947 394.288C267.085 393.907 267.228 393.528 267.387 393.156C268.173 391.313 269.111 389.541 270.016 387.755C270.515 386.77 270.427 386.925 270.905 386.081C270.982 385.946 271.151 385.524 271.137 385.678C271.051 386.631 270.133 387.922 269.76 388.759C269.407 389.551 268.869 390.775 268.536 391.608C268.398 391.953 268.276 392.304 268.144 392.651C267.337 394.772 268.971 390.906 269.1 390.642C269.717 389.384 270.404 388.159 271.246 387.035C271.287 386.981 272.297 385.5 272.683 385.642C273.01 385.763 272.443 386.301 272.265 386.601C271.46 387.957 270.58 389.261 269.825 390.648C269.487 391.268 269.052 392.17 268.722 392.849C268.624 393.051 268.27 393.86 268.264 393.857C268.026 393.729 268.457 393.353 268.557 393.102C268.695 392.758 268.826 392.412 268.971 392.071C269.586 390.626 270.316 389.229 271.13 387.886C271.618 387.08 271.718 386.982 272.201 386.324C272.283 386.212 272.741 385.755 272.705 385.84C272.292 386.803 271.611 387.702 271.085 388.603C270.813 389.07 270.545 389.539 270.283 390.011C270.059 390.413 269.845 390.821 269.627 391.226C269.414 391.62 268.773 392.797 268.933 392.378C269.03 392.127 269.135 391.879 269.249 391.635C269.805 390.444 270.821 387.873 272.115 387.276C272.321 387.181 271.873 387.659 271.749 387.849C271.567 388.126 271.382 388.402 271.2 388.68C270.971 389.031 270.743 389.384 270.516 389.737C269.701 391.004 268.904 392.292 268.011 393.507C267.952 393.587 267.324 394.48 267.173 394.424C267.002 394.361 267.21 394.052 267.291 393.889C267.45 393.568 268.669 391.575 268.841 391.758C269.037 391.967 268.082 393.454 268.062 393.491C267.49 394.55 266.928 395.607 266.384 396.68C266.185 397.072 265.982 397.462 265.791 397.858C265.744 397.956 265.635 398.254 265.636 398.145C265.643 397.205 266.46 395.902 266.948 395.159C267.263 394.679 267.787 394.135 267.826 394.192C267.977 394.406 266.897 396.124 266.889 396.14C266.655 396.594 266.418 397.046 266.184 397.5C266.027 397.804 265.332 399.719 264.869 399.857C264.668 399.917 264.928 399.44 265 399.243C265.085 399.013 265.553 397.925 265.631 397.758C265.974 397.024 266.668 395.112 267.462 394.708C267.601 394.638 267.418 395.021 267.358 395.166C267.255 395.414 267.133 395.653 267.02 395.897C266.583 396.844 266.126 397.786 265.724 398.749C265.59 399.068 265.479 399.396 265.345 399.715C265.339 399.73 265.322 399.776 265.321 399.759C265.271 398.654 266.485 397.052 267.051 396.184C267.178 395.99 267.27 395.48 267.456 395.618C267.702 395.8 267.208 396.178 267.076 396.455C266.795 397.046 266.503 397.628 266.234 398.226C266.069 398.593 265.904 398.96 265.728 399.322C265.708 399.364 265.657 399.493 265.674 399.45C266.08 398.403 266.528 397.412 267.11 396.444C267.205 396.286 267.317 396.138 267.417 395.982C267.478 395.887 267.656 395.599 267.589 395.69C267.018 396.462 266.72 397.425 266.151 398.195" fill="none" opacity="1" stroke="#000000" stroke-linecap="round" stroke-linejoin="round" stroke-width="0.884378"/>
<path d="M271.421 387.455C271.465 387.628 271.258 387.783 271.243 387.961C271.242 387.979 271.582 387.551 271.589 387.542C271.639 387.48 271.693 387.422 271.74 387.358C271.784 387.297 271.924 387.129 271.856 387.162C271.689 387.242 271.482 387.908 271.388 388.059C271.362 388.103 271.291 388.233 271.33 388.2C271.59 387.975 271.693 387.31 271.986 387.17C272.136 387.098 271.822 387.459 271.747 387.607C271.661 387.776 271.587 387.95 271.501 388.118C271.46 388.196 271.287 388.369 271.372 388.348C271.735 388.255 271.984 387.391 272.123 387.104C272.209 386.924 272.013 387.49 271.932 387.673C271.831 387.903 271.72 388.14 271.565 388.34C271.443 388.497 271.744 387.984 271.845 387.813C271.966 387.61 272.015 387.538 272.158 387.354C272.198 387.303 272.324 387.158 272.285 387.209C272.058 387.501 271.766 387.93 271.645 388.273C271.538 388.577 272.498 387.345 272.207 387.485C272.105 387.534 271.929 388.307 271.792 388.259C271.457 388.141 272.334 387.34 272.334 387.34C272.334 387.34 272.176 387.542 272.102 387.647C271.728 388.184 271.483 388.787 271.085 389.299C271.009 389.397 271.236 389.101 271.305 388.997C271.478 388.734 271.623 388.44 271.816 388.191C271.824 388.181 271.845 388.15 271.845 388.163C271.832 388.934 270.648 390.336 270.215 390.964C268.819 392.984 267.565 395.14 266.292 397.235" fill="none" opacity="1" stroke="#000000" stroke-linecap="round" stroke-linejoin="round" stroke-width="0.884378"/>
<path d="M266.166 398.951C266.024 399.071 266.246 398.868 266.283 398.827C266.411 398.684 266.589 398.294 266.656 398.091C266.881 397.402 267.267 396.708 267.629 396.073C268.708 394.18 269.533 392.004 270.763 390.223" fill="none" opacity="1" stroke="#000000" stroke-linecap="round" stroke-linejoin="round" stroke-width="0.884378"/>
<path d="M270.819 389.635C270.841 389.633 270.545 390.417 270.506 390.568C270.476 390.689 270.358 391.046 270.389 390.924C270.443 390.712 270.629 390.488 270.769 390.324C270.805 390.283 270.718 390.421 270.69 390.467C270.62 390.584 270.539 390.697 270.471 390.815C270.309 391.093 270.22 391.401 270.056 391.678C269.553 392.528 269.189 393.443 268.657 394.273" fill="none" opacity="1" stroke="#000000" stroke-linecap="round" stroke-linejoin="round" stroke-width="0.884378"/>
</g>
<g id="Ebene-5" vectornator:layerName="Ebene 5">
<path d="M337.444 328.02C340.744 319.88 344.571 311.959 348.447 304.077C348.579 303.806 349.262 303.201 349.106 303.458C340.177 318.13 330.559 332.393 322.114 347.348C319.265 352.394 318.009 358.204 316.469 363.791C316.322 364.324 315.499 369.519 315.917 369.016C319.104 365.181 319.469 359.692 321.48 355.128C323.135 351.37 324.89 347.657 326.573 343.911C333.382 328.758 340.549 313.795 347.721 298.81C351.788 290.312 353.116 287.959 356.507 280.166C356.775 279.548 356.915 278.878 357.207 278.271C357.785 277.069 360.084 273.839 359.111 274.751C352.147 281.281 347.781 294.932 343.493 303.022C336.932 315.398 330.743 327.968 324.257 340.383C320.154 348.237 315.755 355.933 311.359 363.626C309.515 366.853 307.655 370.072 305.804 373.294C305.374 374.042 304.142 376.263 304.329 375.421C307.621 360.526 319.362 341.909 325.674 328.152C334.636 308.62 343.264 288.984 353.004 269.823C358.358 259.288 363.964 248.889 369.866 238.651C371.247 236.256 372.554 233.814 374.061 231.497C374.489 230.838 375.924 229.02 375.652 229.757C370.278 244.299 361.316 257.462 354.24 271.141C342.914 293.037 333.077 315.556 322.172 337.631C318.247 345.575 314.462 353.691 309.273 360.873C308.599 361.807 307.587 363.391 306.521 362.959C305.57 362.573 306.566 360.879 306.875 359.901C308.092 356.047 309.596 352.287 311.078 348.527C315.466 337.398 320.505 327.245 325.542 316.382C342.555 279.696 364.276 244.558 384.363 209.449C391.182 197.531 398.478 185.892 405.454 174.065C407.535 170.536 409.434 166.899 411.552 163.392C412.543 161.753 413.792 160.279 414.775 158.636C414.93 158.377 415.178 157.573 414.932 157.746C407.647 162.851 401.961 176.917 398.234 183.807C383.896 210.312 371.671 237.611 358.666 264.762C354.487 273.486 349.126 283.015 344.251 291.409C343.194 293.229 342.177 295.114 340.757 296.667C340.469 296.982 339.43 297.049 339.479 296.626C340.298 289.559 344.117 283.155 347.028 276.664C353.677 261.84 359.19 252.379 367.08 237.794C377.957 217.686 388.817 197.549 400.22 177.733C406.717 166.443 413.089 154.906 420.61 144.245C422.398 141.711 424.411 139.337 426.47 137.017C427.47 135.89 428.668 134.956 429.767 133.926C429.986 133.72 430.436 133.007 430.426 133.308C430.259 138.474 426.314 142.711 423.973 147.039C421.026 152.486 418.332 158.068 415.385 163.515C403.195 186.049 390.329 208.242 378.553 231.002C372.81 242.102 367.382 253.381 362.498 264.885C361.108 268.16 360.046 271.565 358.724 274.867C358.191 276.196 356.58 280.161 356.935 278.773C366.336 242.092 384.357 206.643 399.379 172.079C404.296 160.767 409.294 149.49 414.156 138.154C415.684 134.592 417.233 128.178 420.338 124.926C420.524 124.731 420.631 125.438 420.568 125.701C419.932 128.353 419.14 130.97 418.269 133.555C416.453 138.943 414.582 144.317 412.508 149.611C410.029 155.939 407.225 162.136 404.613 168.411C390.963 201.203 377.032 233.89 363.463 266.707C359.152 277.133 354.577 287.45 349.93 297.73C348.186 301.588 346.438 305.753 344.565 309.45C344.345 309.884 343.772 311.037 343.633 310.571C342.264 305.973 347.167 301.651 348.924 297.186C353.702 285.047 358.369 272.86 363.397 260.822C373.431 236.796 384.017 212.843 395.242 189.338C398.896 181.686 403.751 174.622 407.094 166.829C407.774 165.243 405.039 169.607 404.143 171.082C401.075 176.133 398.166 181.279 395.209 186.396C386.046 202.25 376.157 219.522 367.665 235.511C346.468 275.42 327.582 315.841 312.801 358.557" fill="none" filter="url(#Filter_3)" opacity="1" stroke="#ff4477" stroke-linecap="round" stroke-linejoin="round" stroke-width="3.83575" vectornator:blur="8.04215"/>
<path d="M319.683 345.567C317.265 346.929 316.786 350.317 315.638 352.844C313.82 356.843 309.442 360.167 309.598 364.557C309.737 368.459 315.782 371.707 318.282 373.594C328.412 381.236 348.407 380.099 360.704 382.107C363.077 382.495 377.212 386.737 375.875 390.298C375.547 391.172 369.662 389.696 368.712 389.446C359.632 387.062 351.631 381.81 342.358 379.747C334.804 378.066 327.206 376.677 319.626 375.083C318.181 374.779 315.16 375.216 315.398 373.758C315.65 372.212 318.518 374.13 320.036 374.515C323.528 375.401 323.968 375.967 327.256 376.964C334.06 379.027 341.164 380.01 348.233 380.706C358.758 381.742 369.267 379.72 379.655 380.756C380.354 380.826 386.762 381.421 386.206 383.413C385.213 386.967 374.545 388.167 372.057 388.405C357.463 389.803 341.056 383.17 327.774 377.683C321.801 375.216 316.099 372.295 309.926 370.325C308.926 370.006 307.909 369.74 306.885 369.511C306.171 369.351 304.035 368.9 304.72 369.157C309.272 370.867 314.495 370.833 319.203 371.839C326.487 373.396 333.558 375.868 340.805 377.588C348.654 379.452 357.086 379.396 365.027 380.908C369.363 381.734 373.333 382.503 377.756 382.669C378.288 382.689 379.041 382.179 379.352 382.612C379.611 382.972 378.7 383.268 378.273 383.388C373.312 384.787 367.377 385.137 362.313 385.862C346.923 388.065 332.783 388.738 317.903 383.691C315.15 382.757 305.244 379.56 307.673 374.402C308.521 372.601 320.057 376.358 321.28 376.623C331.792 378.897 342.718 380.673 353.389 382.183C358.987 382.975 364.63 383.325 370.239 383.981C371.173 384.09 372.108 384.218 373.022 384.436C373.541 384.559 375.003 384.777 374.518 384.997C371.944 386.166 363.084 384.146 360.71 384.013C357.981 383.86 355.247 383.793 352.518 383.628C340.099 382.876 328.008 381.4 315.827 378.907C311.908 378.106 307.407 377.6 304.07 375.083C302.934 374.226 301.29 371.897 302.871 370.76C304.945 369.268 307.894 370.252 310.28 368.16C319.279 360.267 324.915 345.195 330.31 334.921C337.703 320.845 343.653 306.151 350.669 291.893C357.828 277.344 365.201 262.701 371.23 247.629C371.39 247.229 370.923 248.436 370.719 248.815C369.557 250.966 368.259 253.044 367.134 255.214C365.477 258.412 363.884 261.644 362.376 264.914C357.798 274.845 353.76 285.872 349.704 295.863C343.077 312.186 336.151 328.355 329.364 344.608C327.88 348.162 326.368 351.709 325.072 355.336C323.838 358.791 321.696 362.403 322.378 366.008C322.694 367.679 325.495 364.301 326.385 362.853C327.942 360.32 329.276 357.652 330.531 354.958C334.34 346.783 337.388 338.274 340.957 329.992C347.955 313.749 355.3 297.675 362.224 281.398C364.247 276.643 366.236 271.872 368.358 267.161C369.39 264.871 370.592 262.663 371.684 260.402C371.871 260.014 372.448 258.866 372.195 259.215C355.101 282.884 343.235 309.458 332.892 336.612C330.697 342.374 328.553 348.157 326.562 353.992C325.508 357.082 324.691 360.248 323.76 363.376C323.398 364.592 321.909 369.532 322.031 370.079C322.176 370.731 323.373 369.626 323.779 369.094C325.567 366.75 327.015 364.16 328.493 361.609C330.994 357.294 333.3 352.868 335.713 348.502C341.088 338.775 346.474 329.014 352.771 319.857C354.386 317.508 356.019 315.139 358.002 313.091C358.232 312.854 358.953 313.23 358.88 313.552C357.046 321.591 349.006 331.11 345.053 337.962C340.365 346.087 335.877 354.339 331.794 362.783C330.757 364.927 331.101 368.575 328.827 369.283C326.823 369.907 329.679 365.15 330.456 363.2C332.02 359.267 333.958 355.492 335.826 351.695C339.375 344.483 343.623 336.743 349.925 331.456C350.965 330.583 352.725 329.815 353.888 330.516C355.079 331.234 353.879 336.947 353.042 339.584C350.625 347.204 346.42 354.646 342.762 361.717C341.638 363.888 340.339 365.964 339.177 368.116C338.973 368.495 338.597 369.727 338.666 369.302C339.342 365.165 342.233 361.187 344.087 357.488C345.952 353.768 347.586 349.918 349.716 346.343C352.607 341.494 357.233 334.511 359.107 335.495C360.437 336.194 358.465 339.599 355.838 343.851C352.27 349.624 342.193 367.246 334.854 369.315C333.265 369.763 333.572 366 334.065 364.424C334.808 362.055 335.889 359.792 337.082 357.615C339.399 353.385 347.554 339.679 352.316 338.196C353.014 337.979 352.225 339.678 351.963 340.361C351.299 342.088 350.419 343.727 349.559 345.365C348.575 347.237 347.502 349.061 346.435 350.887C342.787 357.127 338.256 363.044 333.977 368.854C332.924 370.284 331.719 371.604 330.746 373.089C330.574 373.351 330.392 374.256 330.594 374.017C335.174 368.604 343.535 350.957 352.619 351.897C357.577 352.41 349.87 369.706 349.029 371.947C348.586 373.124 347.531 376.082 348.732 375.708C351.631 374.805 353.821 372.382 356.494 370.943C360.844 368.601 365.014 367.863 369.823 367.087C372.459 366.662 377.331 366.478 373.439 370.217C370.805 372.748 363.783 372.072 360.773 371.959C349.804 371.548 342.35 368.102 334.362 360.663C332.895 359.296 326.674 350.964 323.621 352.56C323.287 352.734 323.854 353.293 324.088 353.588C327.333 357.675 331.903 361.488 335.921 364.727C344.772 371.863 353.629 375.198 364.143 378.541C365.781 379.062 370.141 380.512 370.176 380.479C370.687 379.988 367.922 377.167 365.266 375.55C363.122 374.244 360.834 373.168 358.507 372.224C346.2 367.232 331.817 366.296 318.768 364.784C317.001 364.579 315.237 364.326 313.46 364.235C312.17 364.169 308.437 363.991 309.598 364.557C319.694 369.475 332.276 372.9 343.216 374.49C349.791 375.445 356.354 374.095 362.793 375.146C363.903 375.327 360.584 375.584 359.498 375.878C357.375 376.454 354.685 376.282 352.493 376.004C344.605 375.004 337.113 372.66 332.267 365.718C325.531 356.069 327.323 340.037 328.386 329.209C330.759 305.026 340.676 282.246 353.66 261.904C356.275 257.809 359.099 253.849 361.965 249.926C364.144 246.944 366.325 243.95 368.787 241.198C370.61 239.161 373.099 235.426 375.572 236.591C376.242 236.907 375.098 242.227 374.108 245.559C373.017 249.23 371.376 252.717 370.125 256.338C362.11 279.543 353.957 302.806 343.361 324.987C340.414 331.156 337.266 337.244 333.737 343.1C333.255 343.9 332.217 346.298 332.096 345.371C331.443 340.362 334.682 335.591 336.375 330.831C341.003 317.819 346.03 305.084 352.424 292.815C360.626 277.075 369.134 261.98 376.013 245.552C383.929 226.648 390.212 207.648 399.78 189.43C405.975 177.633 410.972 165.537 416.453 153.42C417.393 151.342 418.466 149.324 419.369 147.229C419.831 146.157 419.39 143.74 420.543 143.928C422.192 144.198 420.172 147.263 419.735 148.876C418.716 152.631 417.336 156.323 416.321 160.065C415.662 162.493 415.08 164.941 414.491 167.386C413.515 171.432 411.947 185.318 409.354 187.183C408.754 187.614 409.249 185.691 409.398 184.968C409.759 183.217 410.408 181.538 410.874 179.812C411.477 177.585 412.013 175.34 412.604 173.11C414.088 167.508 414.79 163.608 415.746 157.749C416.016 156.1 416.285 154.451 416.554 152.801C416.638 152.286 416.746 150.737 416.807 151.255C417.982 161.306 407.656 178.653 403.535 187.82C403.449 188.011 403.553 187.394 403.636 187.202C404.408 185.41 405.291 183.668 406.091 181.888C407.285 179.231 408.384 176.531 409.619 173.892C411.972 168.864 414.41 163.875 416.832 158.879C417.884 156.709 419.045 154.594 420.107 152.429C420.632 151.36 422.144 148.125 421.59 149.179C412.963 165.606 406.561 182.664 401.774 200.55C401.693 200.852 401.83 199.92 401.926 199.622C402.698 197.201 403.448 194.769 404.374 192.402C405.629 189.194 407.083 186.067 408.464 182.911C413.505 171.383 419.631 160.631 425.352 149.476C425.909 148.388 426.593 147.367 427.144 146.276C427.532 145.507 427.316 143.764 428.166 143.903C428.72 143.994 427.159 147.971 426.387 150.914C425.455 154.463 424.646 158.044 423.692 161.586C422.031 167.751 420.641 173.989 419.375 180.247C418.919 182.502 418.487 184.762 417.955 187C417.809 187.618 417.319 189.44 417.343 188.805C417.778 177.219 423.178 166.247 422.638 154.43C422.469 150.729 421.757 148.52 421.319 145.008C421.253 144.479 421.147 142.891 421.262 143.411C424.131 156.322 421.519 170.282 423.301 183.428C423.77 186.894 426.135 195.924 427.27 199.95C427.587 201.074 427.769 204.328 428.311 203.295C429.102 201.789 428.179 199.896 428.192 198.195C428.215 195.138 428.387 192.083 428.419 189.026C428.509 180.369 428.006 172.155 426.532 163.637C426.022 160.69 424.958 157.866 424.134 154.991C423.631 153.238 423.282 151.443 422.777 149.69C422.672 149.328 422.422 148.302 422.31 148.662C420.538 154.313 422.534 164.254 423.307 169.778C423.737 172.853 424.302 175.912 424.986 178.941C425.976 183.329 427.397 187.468 428.274 191.859" fill="none" filter="url(#Filter_4)" opacity="1" stroke="#ff4477" stroke-linecap="round" stroke-linejoin="round" stroke-width="3.83575" vectornator:blur="8.04215"/>
<path d="M481.895 107.901C479.985 108.401 480.487 108.24 477.44 109.44C471.564 111.754 465.686 114.065 459.847 116.47C458.601 116.982 457.501 118.453 456.182 118.175C455.064 117.939 458.158 117.011 459.056 116.303C460.869 114.871 462.909 114.361 465.031 113.432C465.381 113.279 465.989 112.808 465.989 112.808C465.989 112.808 464.659 113.354 465.031 113.432C467.676 113.99 472.536 111.914 474.962 111.396C476.629 111.04 479.127 112.253 480.042 110.815C480.457 110.162 480.59 106.489 479.461 105.735C477.719 104.573 474.483 107.602 474.047 107.898C471.523 109.618 469.203 111.624 466.697 113.37C464.196 115.114 461.678 116.846 459.034 118.364C456.829 119.629 454.066 122.268 451.872 120.984C451.554 120.797 455.061 117.363 459.306 115.116C464.18 112.536 469.352 110.087 474.443 107.982C475.447 107.567 476.494 107.259 477.545 106.984C477.957 106.876 479.232 106.926 478.815 106.838C476.185 106.284 462.859 105.283 460.829 105.936C458.626 106.645 456.988 109.667 455.227 110.951C454.254 111.661 451.979 110.687 451.73 111.866C451.012 115.268 454.854 118.11 455.91 121.422C457.833 127.45 459.175 133.648 460.712 139.785C466.323 162.183 472.576 183.399 480.401 205.075C483.085 212.51 485.128 220.162 487.616 227.665C489.039 231.957 490.792 235.515 491.818 235.161C493.497 234.581 487.898 213.696 487.767 213.239C481.14 189.995 474.255 166.985 470.349 143.057C469.086 135.32 468.651 127.463 467.423 119.72C467.082 117.57 466.607 115.442 466.301 113.287C466.14 112.147 465.878 108.726 465.782 109.873C462.558 148.384 474.98 187.452 488.221 222.835C493.895 237.998 499.367 253.09 503.754 268.66C504.797 272.362 507.125 278.739 505.707 278.986C504.477 279.201 501.93 272.499 499.966 267.035C498.598 263.229 497.415 259.359 496.202 255.501C490.721 238.06 485.816 220.494 482.171 202.557C480.726 195.447 479.641 188.268 478.432 181.114C478.049 178.844 477.768 176.557 477.394 174.286C477.345 173.988 477.178 173.11 477.166 173.411C476.364 192.162 483.396 213.755 487.177 231.703C491.33 251.419 496.473 270.888 500.352 290.662C502.428 301.244 503.247 311.59 504.858 322.181C505.23 324.63 505.926 327.028 506.208 329.489C506.271 330.041 506.658 331.551 506.27 331.154C502.796 327.607 499.506 312.586 498.431 307.607C494.8 290.803 494.781 273.568 491.83 256.644C490.274 247.719 488.509 238.98 487.115 230.038C486.872 228.48 485.59 224.032 486.451 225.354C489.148 229.493 488.89 234.931 490.026 239.74C491.397 245.546 492.782 251.35 494.203 257.144C499.727 279.67 507.234 301.35 513.642 323.621C517.602 337.384 520.497 351.575 522.952 365.655C523.035 366.133 522.638 364.731 522.411 364.301C521.652 362.867 520.751 361.512 519.998 360.074C518.885 357.95 517.72 355.841 516.815 353.62C513.877 346.408 511.593 338.932 509.517 331.426C507.317 323.47 505.328 315.455 503.427 307.421C500.871 296.625 498.408 285.803 496.237 274.923C495.448 270.971 495.514 265.73 494.472 261.745C494.224 260.796 494.493 263.717 494.679 264.68C495.548 269.18 496.577 273.649 497.63 278.109C498.905 283.504 500.154 288.909 501.662 294.244C507.212 313.869 515.138 332.6 522.624 351.54C524.3 355.78 525.954 360.032 527.803 364.199C528.909 366.693 532.684 369.932 530.735 371.84C530.304 372.262 529.649 371.22 529.32 370.716C527.978 368.656 524.798 361.947 523.808 359.639C516.825 343.366 514.36 326.935 510.379 309.714C500.827 268.4 491.231 226.863 485.925 184.76" fill="none" filter="url(#Filter_5)" opacity="1" stroke="#ff4477" stroke-linecap="round" stroke-linejoin="round" stroke-width="3.83575" vectornator:blur="8.04215"/>
<path d="M462.994 107.426C470.623 103.471 477.353 100.642 485.001 99.0552C485.545 98.9424 483.842 98.8901 483.335 99.117C482.118 99.662 481.122 100.608 479.983 101.302C478.435 102.245 476.851 103.128 475.277 104.027C469.551 107.296 463.447 109.932 456.893 110.889C456.213 110.989 454.582 111.508 454.832 110.868C456.106 107.613 473.528 97.3155 477.258 96.5958C479.985 96.0695 483.82 94.1413 485.585 96.2868C487.17 98.2151 478.335 103.122 477.9 103.341C471.04 106.798 462.701 110.658 455.061 111.742C451.128 112.3 459.024 109.483 462.994 107.426Z" fill="none" filter="url(#Filter_6)" opacity="1" stroke="#ff4477" stroke-linecap="round" stroke-linejoin="round" stroke-width="3.83575" vectornator:blur="8.04215"/>
<path d="M478.731 107.234C479.065 105.652 479.221 104.022 479.733 102.488C480.727 99.504 480.09 93.842 483.233 93.7253C486.195 93.6154 482.125 99.5527 481.398 102.426C479.65 109.334 471.157 116.868 465.903 121.052C464.859 121.882 463.855 123.511 462.55 123.236C461.488 123.012 463.983 121.602 464.716 120.801C466.308 119.063 467.999 117.414 469.527 115.62C473.323 111.161 476.363 106.106 479.587 101.218C480.65 99.6079 481.805 98.0553 483.045 96.5772C483.29 96.2852 484.081 95.5802 484.003 95.9531C483.231 99.6109 478.837 104.597 476.983 107.691C473.607 113.323 470.799 119.198 468.316 125.278C468.155 125.673 468.79 124.565 468.962 124.175C469.847 122.169 470.607 120.108 471.483 118.098C472.475 115.82 473.293 113.446 474.566 111.313C477.998 105.564 484.082 99.3255 490.726 97.3712C492.83 96.7524 489.501 101.679 488.205 103.449C486.674 105.54 484.84 107.393 483.227 109.421C477.958 116.052 473.552 122.994 469.688 130.525C468.792 132.27 467.877 134.006 466.938 135.728C466.53 136.476 465.793 138.774 465.646 137.934C464.545 131.614 471.764 120.3 474.523 115.434C475.057 114.493 478.384 109.449 478.793 108.899C479.084 108.51 479.855 107.394 479.835 107.88C479.666 111.82 477.109 115.283 475.833 119.015C473.333 126.333 471.485 133.755 469.892 141.308C469.836 141.572 470.144 140.773 470.059 140.517C469.541 138.956 468.881 137.439 468.124 135.978C467.116 134.031 466.097 132.065 464.775 130.315C462.002 126.645 456.102 124.061 456.494 118.654C457.196 108.97 470.307 102.971 478.172 100.093C482.69 98.4408 488.325 96.7625 488.582 97.7451C488.903 98.9748 486.256 98.8536 485.001 99.0552C481.868 99.5584 478.556 98.5218 475.487 99.114C472.785 99.6355 468.263 102.534 466.243 103.774C464.943 104.571 462.977 107.686 462.411 106.27C461.547 104.107 474.628 95.8578 476.8 94.847C478.225 94.184 481.58 91.7708 481.256 93.3082C481.177 93.6811 480.652 93.791 480.298 93.9324C473.75 96.5487 468.088 98.584 462.288 102.939C460.077 104.599 457.799 109.238 455.499 107.704C453.389 106.296 461.238 101.225 461.435 101.107C466.799 97.9096 472.171 94.9591 477.78 92.162C479.757 91.1757 481.68 90.0507 483.755 89.2915C484.135 89.1526 485.089 89.1654 484.942 89.5418C482.222 96.4906 468.628 101.132 462.371 102.544C459.833 103.116 457.213 103.267 454.668 103.811C454.374 103.874 453.732 104.334 453.794 104.039C454.64 100.025 471.907 92.0313 475.178 90.787C477.274 89.9898 481.003 90.5896 481.466 88.3955C481.767 86.9695 478.713 89.3732 477.406 90.0176C475.951 90.7351 474.62 91.6847 473.179 92.4308C467.207 95.5235 460.92 98.0462 454.857 100.959C453.131 101.788 451.534 102.89 449.755 103.601C449.24 103.807 447.86 104.168 448.09 103.662C450.128 99.1783 461.722 90.1177 466.184 94.26" fill="none" filter="url(#Filter_7)" opacity="1" stroke="#ff4477" stroke-linecap="round" stroke-linejoin="round" stroke-width="3.83575" vectornator:blur="8.04215"/>
<path d="M271.488 418.377C272.053 417.56 272.639 416.758 273.182 415.926C273.977 414.705 276.42 411.086 275.501 412.219C270.784 418.037 266.373 424.097 261.766 430.004C261.438 430.425 260.972 430.739 260.7 431.198C259.983 432.406 257.697 435.812 258.82 434.968C263.761 431.255 268.339 422.349 272.492 417.622C274.037 415.864 275.607 414.125 277.26 412.468C277.704 412.024 278.389 410.834 278.766 411.336C279.295 412.04 276.15 415.595 274.251 417.872C269.448 423.63 264.59 429.085 260.139 435.155C259.16 436.49 258.161 437.817 257.317 439.24C257.166 439.494 256.937 440.27 257.192 440.119C265.013 435.496 270.643 424.161 274.438 416.553C274.711 416.007 275.539 417.374 276.134 417.242C278.013 416.826 279.81 416.006 281.722 415.792C284.551 415.475 287.42 415.494 290.262 415.658C298.841 416.154 305.902 420.174 313.944 422.605C315.863 423.185 320.322 423.149 321.795 424.167C322.34 424.544 320.572 424.843 319.912 424.797C318.428 424.694 316.996 424.182 315.578 423.734C313.557 423.095 311.591 422.294 309.61 421.542C299.027 417.522 284.917 411.722 273.559 416.428C271.23 417.393 266.896 417.947 267.157 420.454C267.434 423.103 272.407 421.579 275.071 421.576C278.235 421.573 281.389 421.13 284.553 421.127C288.28 421.123 304.301 423.946 308.104 422.674C309.236 422.295 305.841 421.8 304.649 421.735C302.388 421.613 300.118 421.868 297.867 422.119C286.85 423.344 278.129 425.919 268.676 431.881C266.551 433.221 264.66 434.9 262.652 436.409C261.728 437.103 258.942 438.943 260.079 438.735C268.487 437.197 277.959 429.707 285.626 426.213C288.467 424.918 291.282 423.54 294.225 422.499C294.937 422.247 296.35 421.629 296.486 422.371C296.588 422.928 292.185 425.035 289.583 426.774C284.756 429.998 272.162 440 266.736 439.231C266.409 439.184 267.354 438.984 267.678 438.916C269.052 438.626 270.435 438.374 271.822 438.158C273.951 437.826 276.073 437.35 278.227 437.272C284.803 437.037 291.344 439.26 297.322 441.775C298.056 442.084 299.897 442.347 299.395 442.966C297.368 445.466 277.678 441.56 275.467 440.917C273.846 440.446 272.345 439.63 270.818 438.912C270.518 438.772 269.673 438.302 270.001 438.348C276.182 439.225 282.474 441.887 288.594 443.228C297.474 445.174 300.567 444.942 309.07 447.478C311.686 448.258 314.232 449.271 316.735 450.359C318.556 451.151 323.224 452.552 321.636 453.745C320.154 454.86 318.802 451.31 317.174 450.421C315.157 449.32 312.915 448.69 310.829 447.727C305.532 445.283 301.413 442.491 295.688 440.646C290.836 439.083 287.193 440.153 288.781 441.909C291.891 445.349 303.312 446.017 306.935 446.726C314.951 448.297 322.966 449.449 331.053 450.596C334.277 451.053 337.501 451.511 340.725 451.968C342.191 452.176 343.676 452.272 345.121 452.592C345.579 452.693 346.752 452.937 346.378 453.218C342.276 456.301 332.119 454.44 327.916 453.739C316.788 451.883 306.484 446.737 295.753 443.346C290.672 441.741 285.024 441.503 280.175 439.343C279.873 439.208 279.312 439.106 279.358 438.778C279.526 437.597 281.283 440.194 282.186 440.974C284.954 443.363 286.308 444.175 289.601 445.613C297.052 448.868 307.06 449.435 314.914 450.549C327.366 452.316 339.816 454.228 352.221 456.29C356.602 457.018 360.983 457.831 365.411 458.161C365.854 458.194 366.928 457.95 366.73 458.348C365.139 461.536 357.17 459.683 355.364 459.427C351.847 458.928 348.3 458.607 344.813 457.93C332.107 455.464 320.883 450.828 308.693 446.976C306.766 446.367 295.798 447.643 299.214 450.565C308.622 458.613 331.533 462.737 343.123 463.52C361.124 464.738 378.861 463.322 396.005 470.125C397.926 470.887 412.254 477.159 414.034 475.821C416.514 473.958 402.606 468.003 402.157 467.858C389.886 463.885 378.633 463.78 365.857 464.503C362.842 464.673 359.828 464.844 356.814 465.014C354.843 465.126 351.189 463.567 350.912 465.522C350.757 466.613 358.124 467.57 360.02 467.711C366.046 468.16 373.075 467.926 378.859 467.693C400.105 466.833 421.244 464.29 442.405 462.355C450.996 461.569 459.956 459.911 468.591 461.136C468.918 461.182 467.98 461.439 467.649 461.45C465.41 461.526 463.169 461.368 460.93 461.394C453.581 461.481 446.228 461.499 438.888 461.856C431.639 462.208 424.399 462.721 417.161 463.259C411.253 463.697 405.371 464.503 399.454 464.783C392.882 465.095 385.524 464.833 378.981 463.673C376.499 463.234 373.584 460.659 371.569 462.174C371.195 462.455 372.362 462.735 372.825 462.8C374.882 463.092 376.966 463.258 379.043 463.234C382.816 463.189 386.576 462.762 390.346 462.595C398.737 462.221 407.548 462.841 415.842 463.072C436.76 463.652 457.226 462.267 478.073 460.687C483.836 460.25 489.598 459.759 495.341 459.1C496.553 458.96 500.134 459.124 498.982 458.719C491.19 455.978 478.871 460.072 471.291 461.07C454.046 463.34 437.046 464.456 419.674 464.512C415.781 464.525 411.883 464.448 407.994 464.649C405.049 464.802 401.231 463.903 399.267 466.102C398.851 466.568 404.935 467.11 405.861 467.038C409.191 466.778 412.513 466.427 415.845 466.212C424.449 465.656 433.054 465.104 441.654 464.49C456.656 463.42 471.485 462.417 486.298 459.611C494.27 458.101 501.781 455.72 509.843 454.878C510.593 454.799 508.32 454.847 507.582 455.006C505.378 455.48 503.233 456.196 501.053 456.77C498.74 457.38 496.402 457.885 494.084 458.473C484.556 460.889 474.856 462.791 465.077 463.777C444.694 465.831 422.705 468.529 402.282 466.979C394.824 466.412 390.661 465.627 386.261 459.773" fill="none" filter="url(#Filter_8)" opacity="1" stroke="#006107" stroke-linecap="round" stroke-linejoin="round" stroke-width="3.83575" vectornator:blur="8.04215"/>
<path d="M292.722 426.771C292.115 426.834 291.419 426.637 290.901 426.961C288.24 428.626 283.812 429.511 283.371 432.62C283.008 435.184 288.166 430.66 290.527 429.599C291.202 429.295 291.799 428.835 292.473 428.529C295.317 427.24 298.191 426.017 301.073 424.816C305.785 422.852 312.427 420.064 312.875 420.659C313.569 421.584 311.26 422.338 310.302 422.986C307.774 424.695 305.038 426.075 302.457 427.703C296.074 431.729 290.131 435.662 283.378 438.9C282.956 439.102 284.325 438.824 284.759 438.648C286.241 438.043 287.646 437.263 289.09 436.571C289.571 436.34 290.042 436.086 290.534 435.879C292.596 435.008 306.213 429.262 307.106 429.708C307.781 430.045 306.83 431.258 306.355 431.844C305.161 433.316 303.608 434.458 302.214 435.742C297.814 439.793 296.837 440.82 292.049 444.166C291.272 444.709 288.844 446.183 289.601 445.613C292.925 443.115 312.597 433.473 315.905 437.235C317.853 439.451 308.937 449.425 308.07 451.372C307.949 451.643 307.715 452.065 307.945 452.252C314.232 457.35 326.492 449.499 333.881 452.791C338.445 454.825 329.034 460.453 330.311 462.152C331.55 463.8 335.235 461.751 335.773 461.581C342.623 459.423 349.658 455.807 356.867 455.155C360.919 454.788 366.395 454.447 370.119 456.586C375.532 459.696 371.587 465.816 378.921 467.253C391.399 469.698 403.589 463.576 415.97 465.332C416.703 465.436 414.495 465.18 413.772 465.02C412.607 464.763 411.455 464.441 410.317 464.082C406.777 462.963 403.112 462.254 399.451 461.644C386.31 459.452 373.008 458.341 359.82 456.471C345.4 454.425 330.462 453.851 316.295 450.297C305.596 447.613 295.51 444.985 284.388 444.425C275.017 443.954 260.917 442.34 258.502 430.887C256.854 423.075 263.829 418.444 269.035 413.544C270.381 412.276 273.813 410.3 272.985 407.825C272.215 405.523 269.195 410.946 267.778 412.917C264.53 417.434 260.689 421.31 257.429 425.801C256.534 427.034 255.58 428.224 254.67 429.446C254.472 429.711 254.013 430.581 254.105 430.263C256.064 423.521 261.008 416.189 265.39 410.784C265.785 410.297 266.427 409.234 266.896 409.653C268.502 411.087 254.982 431.952 255.552 432.711C257.597 435.432 262.31 433.558 265.664 434.145C271.789 435.216 277.91 436.331 284.067 437.204C304.472 440.098 323.798 447.866 344.613 446.689" fill="none" filter="url(#Filter_9)" opacity="1" stroke="#006107" stroke-linecap="round" stroke-linejoin="round" stroke-width="3.83575" vectornator:blur="8.04215"/>
<path d="M541.099 424.577C539.717 422.353 536.902 417.489 536.756 419.055C535.965 427.567 536.422 436.162 536.816 444.701C536.889 446.276 536.952 448.214 538.15 449.238C538.937 449.91 538.683 447.177 538.519 446.155C538.195 444.143 537.368 442.243 536.716 440.312C535.07 435.433 533.348 426.086 530.149 422.017C529.117 420.706 531.297 425.164 532.099 426.628C532.321 427.034 532.412 427.499 532.568 427.935C534.651 433.738 537.111 439.568 539.899 445.07C540.498 446.252 541.362 449.611 541.997 448.447C544.728 443.441 537.539 430.645 535.255 426.38C534.116 424.252 532.293 419.772 532.293 419.772C532.293 419.772 534.317 423.766 535.329 425.763C537.728 430.498 539.548 435.162 541.105 440.211C541.461 441.365 542.274 442.349 542.586 443.515C542.693 443.915 542.113 445.004 542.439 444.748C548.719 439.81 552.383 434.975 561.323 433.249C566.426 432.264 575.213 432.142 575.255 431.788C575.633 428.631 568.27 429.594 568.004 429.67C559.179 432.204 552.481 438.136 545.669 443.884C544.55 444.828 541.593 447.921 542.218 446.598C546.384 437.766 572.752 426.486 581.394 427.519C582.592 427.663 579.213 428.558 578.09 429C576.367 429.678 574.627 430.316 572.863 430.877C569.334 431.998 565.894 433.379 562.409 434.629C552.19 438.298 541.95 441.241 531.342 443.421C529.866 443.725 534.339 443.056 535.805 442.704C540.14 441.663 544.447 440.504 548.725 439.246C561.313 435.546 563.016 435.012 574.243 429.791C575.182 429.355 575.994 428.677 576.931 428.236C577.768 427.843 580.272 426.726 579.544 427.298C572.269 433.02 558.953 438.603 549.884 440.01C546.809 440.488 541.587 441.273 540.71 438.288C539.786 435.143 554.4 422.026 553.476 420.429C551.745 417.437 539.935 425.297 538.412 426.132C537.249 426.769 536.181 427.566 535.034 428.229C534.388 428.603 532.719 429.916 533.037 429.241C535.347 424.345 542.358 418.59 546.051 414.539C546.748 413.774 547.331 411.724 548.196 412.294C549.12 412.903 537.662 430.482 537.132 431.607C536.681 432.561 535.134 434.913 536.146 434.616C540.485 433.34 554.614 416.767 559.715 420.55C563.733 423.53 556.251 432.155 554.937 434.361C554.293 435.443 552.628 437.837 553.878 437.987C563.289 439.112 573.183 424.575 582.627 427.667C588.778 429.681 577.059 436.664 576.736 435.092C576.003 431.526 582.022 429.739 583.96 432.204" fill="none" filter="url(#Filter_10)" opacity="1" stroke="#006107" stroke-linecap="round" stroke-linejoin="round" stroke-width="3.83575" vectornator:blur="8.04215"/>
<path d="M548.068 430.118C551.104 429.106 541.441 436.291 538.572 436.291C536.558 436.291 541.462 433.482 542.846 432.017C546.151 428.518 549.262 424.817 552.816 421.572C554.313 420.205 555.943 418.989 557.564 417.773C557.848 417.561 558.514 416.945 558.514 417.298C558.514 422.778 551.045 428.566 547.594 432.017C546.562 433.049 544.092 434.036 544.745 435.341C545.147 436.145 547.488 432.598 549.493 430.593C550.601 429.485 551.785 428.448 552.816 427.269C553.111 426.932 553.566 425.919 553.766 426.32C554.911 428.61 548.418 435.983 547.119 437.715C546.85 438.073 546.169 438.665 546.169 438.665C546.169 438.665 550.152 435.31 552.342 433.917C552.519 433.804 561.444 427.906 562.787 430.593C563.236 431.491 554.91 439.322 553.766 441.039" fill="none" filter="url(#Filter_11)" opacity="1" stroke="#006107" stroke-linecap="round" stroke-linejoin="round" stroke-width="3.83575" vectornator:blur="8.04215"/>
</g>
<g id="Ebene-4" vectornator:layerName="Ebene 4">
<path d="M513.106 417.914L508.533 400.018" fill="none" opacity="1" stroke="#000000" stroke-linecap="butt" stroke-linejoin="round" stroke-width="8.03164"/>
<path d="M511.643 406.816L514.508 415.078" fill="none" opacity="1" stroke="#000000" stroke-linecap="butt" stroke-linejoin="round" stroke-width="8.03164"/>
<path d="M510.677 393.95L511.66 397.351L514.915 409.662L517.038 417.661" fill="none" opacity="1" stroke="#000000" stroke-linecap="butt" stroke-linejoin="round" stroke-width="8.03164"/>
<path d="M588.749 400.882L579.189 366.874" fill="none" opacity="1" stroke="#000000" stroke-linecap="butt" stroke-linejoin="round" stroke-width="8.03164"/>
</g>
<g id="Ebene-2" vectornator:layerName="Ebene 2">
<path d="M439.84 355.589C440.003 354.972 439.227 356.73 438.973 357.321C438.8 357.725 438.657 358.14 438.523 358.558C437.941 360.375 437.523 362.204 437.065 364.047C435.736 369.384 435.242 377.434 443.954 376.016C453.516 374.459 446.597 362.69 443.432 358.967C442.899 358.341 439.678 356.201 439.84 355.589Z" fill="none" opacity="1" stroke="#000000" stroke-linecap="round" stroke-linejoin="round" stroke-width="1.93545"/>
<path d="M440.285 354.81C441.903 355.919 443.025 357.004 444.127 358.611" fill="none" opacity="1" stroke="#000000" stroke-linecap="round" stroke-linejoin="round" stroke-width="0.475393"/>
<path d="M441.058 355.61C441.427 355.922 441.735 356.279 442.137 356.555" fill="none" opacity="1" stroke="#000000" stroke-linecap="round" stroke-linejoin="round" stroke-width="0.475393"/>
<path d="M441.756 366.82C441.474 366.924 441.78 367.056 441.867 367.222C442.201 367.868 442.524 368.519 442.847 369.17C442.909 369.295 443.017 369.674 443.047 369.539C443.249 368.637 442.815 366.949 442.26 366.158C442.177 366.039 442.083 365.865 441.906 366.068C441.242 366.827 441.963 368.319 442.187 369.098C442.272 369.394 442.356 369.64 442.433 369.957C442.45 370.026 442.47 370.239 442.459 370.169C442.38 369.674 442.217 367.121 441.595 367.006C440.895 366.877 440.698 369.278 440.698 369.587C440.697 369.936 440.929 370.955 440.783 370.631C440.655 370.346 440.419 367.963 440.601 367.976C440.675 367.981 440.803 370.223 440.83 370.424C440.857 370.632 441.053 371.232 440.966 371.038C440.337 369.639 440.112 371.666 440.633 372.08C441.118 372.467 444.094 372.158 444.755 371.788C445.387 371.434 444.915 370.062 444.768 369.566C444.439 368.457 442.772 363.892 441.961 363.166C441.412 362.674 441.632 361.728 441.586 361.089C441.569 360.855 441.523 360.638 441.425 360.42C441.371 360.3 441.302 359.914 441.356 360.034C442.125 361.747 440.306 366.21 440.322 368.364" fill="none" opacity="1" stroke="#000000" stroke-linecap="round" stroke-linejoin="round" stroke-width="6.15778"/>
</g>
<g id="Ebene-2-kopieren" vectornator:layerName="Ebene 2 kopieren">
<path d="M330.229 345.597C330.58 345.069 329.315 346.478 328.896 346.954C328.609 347.28 328.345 347.625 328.087 347.976C326.967 349.502 325.984 351.089 324.96 352.678C321.996 357.276 318.812 364.684 326.729 366.066C335.418 367.583 333.555 354.373 332.133 349.89C331.894 349.135 329.881 346.122 330.229 345.597Z" fill="none" opacity="1" stroke="#000000" stroke-linecap="round" stroke-linejoin="round" stroke-width="1.93545"/>
<path d="M330.876 345.004C331.875 346.55 332.46 347.919 332.848 349.772" fill="none" opacity="1" stroke="#000000" stroke-linecap="round" stroke-linejoin="round" stroke-width="0.475393"/>
<path d="M331.26 345.996C331.468 346.404 331.608 346.836 331.857 347.22" fill="none" opacity="1" stroke="#000000" stroke-linecap="round" stroke-linejoin="round" stroke-width="0.475393"/>
<path d="M327.813 356.723C327.537 356.733 327.753 356.953 327.769 357.135C327.833 357.846 327.885 358.558 327.937 359.27C327.947 359.407 327.91 359.796 327.981 359.679C328.463 358.895 328.672 357.174 328.47 356.258C328.44 356.121 328.42 355.928 328.199 356.063C327.372 356.569 327.475 358.196 327.399 358.997C327.369 359.302 327.357 359.559 327.314 359.88C327.305 359.951 327.248 360.157 327.263 360.087C327.366 359.599 328.103 357.149 327.612 356.848C327.059 356.508 326.068 358.702 325.961 358.992C325.841 359.32 325.689 360.349 325.676 360C325.664 359.692 326.28 357.38 326.432 357.449C326.493 357.477 325.833 359.622 325.786 359.82C325.738 360.023 325.7 360.648 325.692 360.439C325.636 358.929 324.748 360.763 325.05 361.314C325.331 361.828 327.975 362.465 328.666 362.323C329.327 362.188 329.395 360.752 329.44 360.241C329.54 359.097 329.684 354.289 329.242 353.355C328.942 352.721 329.455 351.902 329.634 351.287C329.7 351.062 329.735 350.844 329.726 350.609C329.722 350.478 329.795 350.094 329.8 350.225C329.869 352.073 326.786 355.698 326.061 357.727" fill="none" opacity="1" stroke="#000000" stroke-linecap="round" stroke-linejoin="round" stroke-width="6.15778"/>
</g>
<g id="Ebene-2-kopieren-kopieren" vectornator:layerName="Ebene 2 kopieren kopieren">
<path d="M385.369 355.997C385.686 355.448 384.509 356.931 384.12 357.432C383.854 357.774 383.611 358.135 383.375 358.501C382.349 360.092 381.464 361.736 380.539 363.384C377.86 368.154 375.132 375.741 383.118 376.64C391.884 377.626 389.222 364.554 387.53 360.166C387.245 359.427 385.053 356.541 385.369 355.997Z" fill="none" opacity="1" stroke="#000000" stroke-linecap="round" stroke-linejoin="round" stroke-width="1.93545"/>
<path d="M385.978 355.365C387.069 356.847 387.736 358.178 388.237 360.004" fill="none" opacity="1" stroke="#000000" stroke-linecap="round" stroke-linejoin="round" stroke-width="0.475393"/>
<path d="M386.422 356.332C386.654 356.727 386.82 357.149 387.092 357.518" fill="none" opacity="1" stroke="#000000" stroke-linecap="round" stroke-linejoin="round" stroke-width="0.475393"/>
<path d="M383.632 367.248C383.358 367.275 383.587 367.481 383.614 367.662C383.721 368.368 383.816 369.076 383.911 369.783C383.929 369.919 383.916 370.31 383.981 370.189C384.414 369.377 384.518 367.646 384.26 366.745C384.222 366.609 384.19 366.418 383.978 366.566C383.184 367.122 383.385 368.739 383.357 369.543C383.347 369.849 383.35 370.107 383.327 370.43C383.322 370.501 383.278 370.71 383.289 370.64C383.362 370.146 383.949 367.656 383.44 367.385C382.867 367.08 382.011 369.33 381.922 369.626C381.822 369.96 381.733 370.997 381.699 370.649C381.669 370.343 382.143 367.997 382.298 368.057C382.361 368.081 381.833 370.263 381.798 370.463C381.763 370.668 381.762 371.295 381.742 371.087C381.594 369.582 380.819 371.467 381.154 371.999C381.466 372.495 384.144 372.97 384.825 372.786C385.476 372.611 385.457 371.174 385.47 370.661C385.501 369.513 385.353 364.705 384.855 363.8C384.517 363.186 384.978 362.336 385.121 361.711C385.173 361.483 385.194 361.263 385.171 361.029C385.159 360.899 385.209 360.511 385.221 360.641C385.402 362.482 382.545 366.288 381.945 368.357" fill="none" opacity="1" stroke="#000000" stroke-linecap="round" stroke-linejoin="round" stroke-width="6.15778"/>
</g>
<g id="Ebene-2-kopieren-kopieren-kopieren" vectornator:layerName="Ebene 2 kopieren kopieren kopieren">
<path d="M410.153 201.73C410.503 201.201 409.238 202.611 408.819 203.087C408.533 203.412 408.269 203.758 408.011 204.109C406.89 205.634 405.907 207.222 404.884 208.81C401.919 213.409 398.735 220.816 406.652 222.198C415.342 223.715 413.479 210.505 412.057 206.023C411.817 205.268 409.805 202.255 410.153 201.73Z" fill="none" opacity="1" stroke="#000000" stroke-linecap="round" stroke-linejoin="round" stroke-width="1.93545"/>
<path d="M410.799 201.137C411.799 202.682 412.383 204.051 412.772 205.904" fill="none" opacity="1" stroke="#000000" stroke-linecap="round" stroke-linejoin="round" stroke-width="0.475393"/>
<path d="M411.184 202.129C411.392 202.537 411.532 202.968 411.78 203.353" fill="none" opacity="1" stroke="#000000" stroke-linecap="round" stroke-linejoin="round" stroke-width="0.475393"/>
<path d="M407.736 212.855C407.46 212.865 407.677 213.085 407.693 213.268C407.757 213.979 407.809 214.691 407.86 215.403C407.87 215.54 407.833 215.929 407.905 215.812C408.387 215.027 408.596 213.306 408.394 212.391C408.363 212.253 408.344 212.06 408.122 212.195C407.296 212.702 407.399 214.328 407.322 215.129C407.293 215.434 407.281 215.691 407.238 216.013C407.228 216.083 407.172 216.289 407.187 216.22C407.29 215.731 408.027 213.282 407.536 212.98C406.983 212.64 405.991 214.834 405.885 215.124C405.764 215.452 405.612 216.481 405.6 216.132C405.588 215.825 406.204 213.513 406.355 213.581C406.416 213.609 405.757 215.755 405.71 215.952C405.662 216.155 405.624 216.78 405.616 216.572C405.56 215.061 404.672 216.895 404.974 217.446C405.255 217.96 407.899 218.598 408.59 218.456C409.25 218.32 409.319 216.884 409.363 216.374C409.463 215.229 409.608 210.422 409.166 209.487C408.866 208.854 409.378 208.034 409.558 207.419C409.624 207.194 409.659 206.976 409.65 206.741C409.645 206.611 409.719 206.227 409.724 206.357C409.793 208.205 406.709 211.83 405.984 213.859" fill="none" opacity="1" stroke="#000000" stroke-linecap="round" stroke-linejoin="round" stroke-width="6.15778"/>
</g>
<g id="Ebene-2-kopieren-kopieren-kopieren_2" vectornator:layerName="Ebene 2 kopieren kopieren kopieren">
<path d="M373.134 279.889C373.424 279.325 372.323 280.867 371.959 281.386C371.711 281.741 371.486 282.114 371.269 282.492C370.325 284.132 369.524 285.819 368.683 287.511C366.248 292.41 363.906 300.125 371.928 300.62C380.732 301.163 377.414 288.241 375.503 283.944C375.181 283.221 372.846 280.45 373.134 279.889Z" fill="none" opacity="1" stroke="#000000" stroke-linecap="round" stroke-linejoin="round" stroke-width="1.93545"/>
<path d="M373.711 279.228C374.875 280.653 375.609 281.949 376.201 283.747" fill="none" opacity="1" stroke="#000000" stroke-linecap="round" stroke-linejoin="round" stroke-width="0.475393"/>
<path d="M371.968 291.214C371.695 291.255 371.934 291.449 371.97 291.629C372.113 292.328 372.243 293.03 372.374 293.732C372.399 293.867 372.405 294.258 372.463 294.134C372.855 293.301 372.872 291.567 372.569 290.68C372.524 290.546 372.483 290.357 372.278 290.516C371.513 291.111 371.796 292.715 371.809 293.52C371.813 293.826 371.83 294.084 371.823 294.408C371.821 294.479 371.788 294.69 371.795 294.619C371.843 294.122 372.304 291.606 371.782 291.361C371.195 291.084 370.453 293.375 370.379 293.675C370.296 294.014 370.259 295.054 370.208 294.708C370.162 294.404 370.518 292.038 370.676 292.089C370.739 292.11 370.322 294.316 370.298 294.517C370.273 294.724 370.304 295.35 370.273 295.143C370.049 293.648 369.371 295.569 369.732 296.084C370.068 296.563 372.767 296.903 373.438 296.685C374.079 296.478 373.987 295.043 373.975 294.53C373.947 293.382 373.557 288.588 373.014 287.708C372.646 287.112 373.064 286.241 373.175 285.61C373.215 285.379 373.226 285.158 373.191 284.925C373.171 284.797 373.202 284.407 373.221 284.536C373.495 286.365 370.833 290.31 370.338 292.407" fill="none" opacity="1" stroke="#000000" stroke-linecap="round" stroke-linejoin="round" stroke-width="6.15778"/>
</g>
<g id="Ebene-2-kopieren-kopieren-kopieren_3" vectornator:layerName="Ebene 2 kopieren kopieren kopieren">
<path d="M423.893 283.517C424.183 282.953 423.082 284.494 422.718 285.013C422.47 285.369 422.245 285.741 422.028 286.119C421.084 287.759 420.283 289.446 419.442 291.138C417.007 296.038 414.665 303.753 422.687 304.247C431.491 304.79 428.173 291.869 426.262 287.572C425.94 286.848 423.605 284.077 423.893 283.517Z" fill="none" opacity="1" stroke="#000000" stroke-linecap="round" stroke-linejoin="round" stroke-width="1.93545"/>
<path d="M424.47 282.856C425.634 284.281 426.368 285.576 426.96 287.374" fill="none" opacity="1" stroke="#000000" stroke-linecap="round" stroke-linejoin="round" stroke-width="0.475393"/>
<path d="M424.962 283.799C425.214 284.181 425.401 284.595 425.691 284.949" fill="none" opacity="1" stroke="#000000" stroke-linecap="round" stroke-linejoin="round" stroke-width="0.475393"/>
<path d="M422.727 294.842C422.454 294.883 422.693 295.077 422.729 295.256C422.872 295.956 423.002 296.658 423.133 297.36C423.158 297.494 423.164 297.885 423.222 297.761C423.614 296.928 423.631 295.194 423.328 294.307C423.283 294.174 423.242 293.984 423.037 294.143C422.272 294.738 422.555 296.343 422.568 297.148C422.572 297.454 422.589 297.711 422.582 298.035C422.58 298.106 422.547 298.317 422.554 298.247C422.602 297.749 423.063 295.233 422.541 294.988C421.954 294.712 421.212 297.002 421.138 297.302C421.055 297.641 421.018 298.681 420.967 298.336C420.921 298.031 421.277 295.665 421.435 295.717C421.498 295.737 421.081 297.943 421.057 298.144C421.032 298.352 421.063 298.977 421.032 298.771C420.808 297.275 420.13 299.197 420.491 299.711C420.827 300.191 423.526 300.53 424.197 300.313C424.838 300.105 424.746 298.67 424.734 298.158C424.706 297.009 424.316 292.215 423.773 291.336C423.405 290.74 423.823 289.868 423.934 289.237C423.974 289.006 423.985 288.785 423.95 288.553C423.93 288.424 423.961 288.034 423.98 288.163C424.254 289.992 421.592 293.937 421.097 296.034" fill="none" opacity="1" stroke="#000000" stroke-linecap="round" stroke-linejoin="round" stroke-width="6.15778"/>
</g>
<g id="Ebene-6" vectornator:layerName="Ebene 6">
<path d="M408.255 211.635C407.933 212.602 407.609 213.57 407.362 214.559" fill="none" opacity="1" stroke="#000000" stroke-linecap="round" stroke-linejoin="round" stroke-width="6.15778"/>
</g>
</svg>
