<?xml version="1.0" encoding="UTF-8"?>
<!DOCTYPE svg PUBLIC "-//W3C//DTD SVG 1.1//EN" "http://www.w3.org/Graphics/SVG/1.1/DTD/svg11.dtd">
<svg xmlns="http://www.w3.org/2000/svg" version="1.1" width="80px" height="46px" style="shape-rendering:geometricPrecision; text-rendering:geometricPrecision; image-rendering:optimizeQuality; fill-rule:evenodd; clip-rule:evenodd" xmlns:xlink="http://www.w3.org/1999/xlink">
<g><path style="opacity:1" fill="#1a3422" d="M 10.5,-0.5 C 14.5,-0.5 18.5,-0.5 22.5,-0.5C 22.5,2.5 22.5,5.5 22.5,8.5C 21.209,8.26269 20.209,8.59603 19.5,9.5C 17.8828,8.962 16.2161,8.62867 14.5,8.5C 13.791,7.59603 12.791,7.26269 11.5,7.5C 10.8902,6.60895 10.5569,5.60895 10.5,4.5C 11.8946,6.05436 12.5613,5.72102 12.5,3.5C 11.7745,2.13307 11.1079,0.79974 10.5,-0.5 Z"/></g>
<g><path style="opacity:1" fill="#9cd58b" d="M 31.5,-0.5 C 34.8333,-0.5 38.1667,-0.5 41.5,-0.5C 40.588,3.13059 40.4213,6.79725 41,10.5C 42.8245,12.8238 44.9912,13.1572 47.5,11.5C 48.1174,11.3893 48.6174,11.056 49,10.5C 49.813,12.4357 50.313,14.4357 50.5,16.5C 50.1667,16.5 49.8333,16.5 49.5,16.5C 48.9101,15.234 48.4101,13.9007 48,12.5C 46.9882,15.4264 45.1549,16.2597 42.5,15C 43.3279,15.9147 44.3279,16.5814 45.5,17C 44.2341,17.3095 43.0674,17.8095 42,18.5C 40.064,9.33723 39.2307,9.67056 39.5,19.5C 36.1155,18.756 35.7822,17.4226 38.5,15.5C 38.8226,11.774 38.4892,8.10728 37.5,4.5C 36.4763,3.14682 35.143,2.48015 33.5,2.5C 33.5,4.5 33.5,6.5 33.5,8.5C 31.9892,7.04249 30.9892,5.20916 30.5,3C 31.1667,2.66667 31.8333,2.33333 32.5,2C 31.7476,1.32924 31.4142,0.495904 31.5,-0.5 Z"/></g>
<g><path style="opacity:1" fill="#5aa51a" d="M 58.5,-0.5 C 61.5,-0.5 64.5,-0.5 67.5,-0.5C 67.3253,1.6208 67.6586,3.6208 68.5,5.5C 69.4728,7.14938 70.4728,8.81604 71.5,10.5C 69.5393,9.53984 67.8726,8.20651 66.5,6.5C 66.114,4.06338 64.9473,2.06338 63,0.5C 63.5948,2.35017 64.0948,4.35017 64.5,6.5C 60.8976,6.69238 57.8976,8.02571 55.5,10.5C 52.509,10.8337 50.1757,9.83372 48.5,7.5C 51.0792,7.91668 53.2458,7.25001 55,5.5C 55.6036,7.6857 56.7703,7.85237 58.5,6C 58.7295,4.11505 58.7295,1.94838 58.5,-0.5 Z"/></g>
<g><path style="opacity:1" fill="#a8dc72" d="M 67.5,-0.5 C 70.5,-0.5 73.5,-0.5 76.5,-0.5C 76.7947,1.73535 76.4614,3.73535 75.5,5.5C 73.6159,5.28818 72.2826,4.28818 71.5,2.5C 70.7124,3.77013 69.7124,4.77013 68.5,5.5C 67.6586,3.6208 67.3253,1.6208 67.5,-0.5 Z"/></g>
<g><path style="opacity:1" fill="#112819" d="M -0.5,-0.5 C 3.16667,-0.5 6.83333,-0.5 10.5,-0.5C 11.1079,0.79974 11.7745,2.13307 12.5,3.5C 12.5613,5.72102 11.8946,6.05436 10.5,4.5C 8.66783,4.16609 6.66783,4.16609 4.5,4.5C 3.28534,2.21187 1.61867,1.54521 -0.5,2.5C -0.5,1.5 -0.5,0.5 -0.5,-0.5 Z"/></g>
<g><path style="opacity:1" fill="#598058" d="M 22.5,-0.5 C 24.1667,-0.5 25.8333,-0.5 27.5,-0.5C 25.7649,1.23453 24.4316,3.23453 23.5,5.5C 23.8333,6.16667 24.1667,6.83333 24.5,7.5C 25.8139,6.68723 26.9805,5.68723 28,4.5C 28.6667,5.16667 28.6667,5.83333 28,6.5C 25.2161,9.1194 22.0494,11.1194 18.5,12.5C 16.5,12.8333 14.5,13.1667 12.5,13.5C 11.8333,13.5 11.1667,13.5 10.5,13.5C 11.3414,11.6208 11.6747,9.6208 11.5,7.5C 12.791,7.26269 13.791,7.59603 14.5,8.5C 12.9519,8.82124 12.2852,9.82124 12.5,11.5C 14.5273,11.6621 16.5273,11.4955 18.5,11C 19.056,10.6174 19.3893,10.1174 19.5,9.5C 20.209,8.59603 21.209,8.26269 22.5,8.5C 22.5,5.5 22.5,2.5 22.5,-0.5 Z"/></g>
<g><path style="opacity:1" fill="#83d42e" d="M 51.5,-0.5 C 53.8333,-0.5 56.1667,-0.5 58.5,-0.5C 58.7295,1.94838 58.7295,4.11505 58.5,6C 56.7703,7.85237 55.6036,7.6857 55,5.5C 53.2458,7.25001 51.0792,7.91668 48.5,7.5C 48.0825,6.77842 47.4158,6.27842 46.5,6C 49.9431,5.77869 50.2764,4.77869 47.5,3C 49.3237,2.34001 50.657,1.17335 51.5,-0.5 Z"/></g>
<g><path style="opacity:1" fill="#68b63a" d="M 41.5,-0.5 C 44.8333,-0.5 48.1667,-0.5 51.5,-0.5C 50.657,1.17335 49.3237,2.34001 47.5,3C 50.2764,4.77869 49.9431,5.77869 46.5,6C 47.4158,6.27842 48.0825,6.77842 48.5,7.5C 47.5655,8.56764 47.2322,9.90097 47.5,11.5C 44.9912,13.1572 42.8245,12.8238 41,10.5C 40.4213,6.79725 40.588,3.13059 41.5,-0.5 Z"/></g>
<g><path style="opacity:1" fill="#90d447" d="M 75.5,5.5 C 75.5,6.16667 75.5,6.83333 75.5,7.5C 74.7377,9.26242 73.4044,10.2624 71.5,10.5C 70.4728,8.81604 69.4728,7.14938 68.5,5.5C 69.7124,4.77013 70.7124,3.77013 71.5,2.5C 72.2826,4.28818 73.6159,5.28818 75.5,5.5 Z"/></g>
<g><path style="opacity:1" fill="#315514" d="M 76.5,-0.5 C 77.5,-0.5 78.5,-0.5 79.5,-0.5C 79.5,3.16667 79.5,6.83333 79.5,10.5C 78.391,10.4431 77.391,10.1098 76.5,9.5C 76.6716,8.50838 76.3382,7.84171 75.5,7.5C 75.5,6.83333 75.5,6.16667 75.5,5.5C 76.4614,3.73535 76.7947,1.73535 76.5,-0.5 Z"/></g>
<g><path style="opacity:1" fill="#122919" d="M 10.5,4.5 C 10.5569,5.60895 10.8902,6.60895 11.5,7.5C 11.6747,9.6208 11.3414,11.6208 10.5,13.5C 9.17793,13.33 8.01127,13.6634 7,14.5C 6.72158,13.5842 6.22158,12.9175 5.5,12.5C 5.5,11.8333 5.16667,11.5 4.5,11.5C 3.37734,9.02131 3.37734,6.68797 4.5,4.5C 6.66783,4.16609 8.66783,4.16609 10.5,4.5 Z"/></g>
<g><path style="opacity:1" fill="#79b281" d="M 27.5,-0.5 C 28.8333,-0.5 30.1667,-0.5 31.5,-0.5C 31.4142,0.495904 31.7476,1.32924 32.5,2C 31.8333,2.33333 31.1667,2.66667 30.5,3C 30.9892,5.20916 31.9892,7.04249 33.5,8.5C 33.6716,9.49162 33.3382,10.1583 32.5,10.5C 31.8333,10.5 31.1667,10.5 30.5,10.5C 26.8842,9.10935 23.8842,10.4427 21.5,14.5C 20.609,15.1098 19.609,15.4431 18.5,15.5C 18.5,14.5 18.5,13.5 18.5,12.5C 22.0494,11.1194 25.2161,9.1194 28,6.5C 28.6667,5.83333 28.6667,5.16667 28,4.5C 26.9805,5.68723 25.8139,6.68723 24.5,7.5C 24.1667,6.83333 23.8333,6.16667 23.5,5.5C 24.4316,3.23453 25.7649,1.23453 27.5,-0.5 Z"/></g>
<g><path style="opacity:1" fill="#bfaf75" d="M 14.5,8.5 C 16.2161,8.62867 17.8828,8.962 19.5,9.5C 19.3893,10.1174 19.056,10.6174 18.5,11C 16.5273,11.4955 14.5273,11.6621 12.5,11.5C 12.2852,9.82124 12.9519,8.82124 14.5,8.5 Z"/></g>
<g><path style="opacity:1" fill="#578c2b" d="M 66.5,6.5 C 67.8726,8.20651 69.5393,9.53984 71.5,10.5C 73.4044,10.2624 74.7377,9.26242 75.5,7.5C 76.3382,7.84171 76.6716,8.50838 76.5,9.5C 76.5997,12.1085 75.9331,14.4418 74.5,16.5C 73.1266,16.6567 71.7932,16.49 70.5,16C 69.6006,14.3484 68.6006,12.8484 67.5,11.5C 66.9094,10.8485 66.2427,10.1818 65.5,9.5C 66.1272,8.58317 66.4606,7.58317 66.5,6.5 Z"/></g>
<g><path style="opacity:1" fill="#4f7a1b" d="M 66.5,6.5 C 66.4606,7.58317 66.1272,8.58317 65.5,9.5C 66.2427,10.1818 66.9094,10.8485 67.5,11.5C 65.3796,12.4033 65.0462,13.7367 66.5,15.5C 63.989,16.3944 61.489,17.3944 59,18.5C 57.9701,18.1639 57.4701,17.4972 57.5,16.5C 59.1238,16.6399 60.2904,15.9733 61,14.5C 61.3333,14.8333 61.6667,15.1667 62,15.5C 63.6186,13.0441 64.1186,10.5441 63.5,8C 64.1667,7.66667 64.8333,7.33333 65.5,7C 65.2716,6.60123 64.9382,6.43456 64.5,6.5C 64.0948,4.35017 63.5948,2.35017 63,0.5C 64.9473,2.06338 66.114,4.06338 66.5,6.5 Z"/></g>
<g><path style="opacity:1" fill="#1b3321" d="M 4.5,4.5 C 3.37734,6.68797 3.37734,9.02131 4.5,11.5C 3.62554,13.69 1.95888,14.69 -0.5,14.5C -0.5,10.5 -0.5,6.5 -0.5,2.5C 1.61867,1.54521 3.28534,2.21187 4.5,4.5 Z"/></g>
<g><path style="opacity:1" fill="#4c771d" d="M 48.5,7.5 C 50.1757,9.83372 52.509,10.8337 55.5,10.5C 55.5,11.8333 55.5,13.1667 55.5,14.5C 54.8333,14.5 54.5,14.8333 54.5,15.5C 53.2921,16.2341 51.9587,16.5674 50.5,16.5C 50.313,14.4357 49.813,12.4357 49,10.5C 48.6174,11.056 48.1174,11.3893 47.5,11.5C 47.2322,9.90097 47.5655,8.56764 48.5,7.5 Z"/></g>
<g><path style="opacity:1" fill="#abeaa9" d="M 38.5,15.5 C 37.2502,15.4226 36.4169,14.756 36,13.5C 35.2798,15.0557 34.1132,16.0557 32.5,16.5C 32.5,14.5 32.5,12.5 32.5,10.5C 33.3382,10.1583 33.6716,9.49162 33.5,8.5C 33.5,6.5 33.5,4.5 33.5,2.5C 35.143,2.48015 36.4763,3.14682 37.5,4.5C 38.4892,8.10728 38.8226,11.774 38.5,15.5 Z"/></g>
<g><path style="opacity:1" fill="#18331f" d="M 4.5,11.5 C 5.16667,11.5 5.5,11.8333 5.5,12.5C 4.95691,12.56 4.62358,12.8933 4.5,13.5C 5.3829,14.548 6.04957,15.7147 6.5,17C 5.34981,18.981 4.01648,20.8143 2.5,22.5C 1.39105,22.5569 0.391047,22.8902 -0.5,23.5C -0.5,20.5 -0.5,17.5 -0.5,14.5C 1.95888,14.69 3.62554,13.69 4.5,11.5 Z"/></g>
<g><path style="opacity:1" fill="#98ce5a" d="M 64.5,6.5 C 64.9382,6.43456 65.2716,6.60123 65.5,7C 64.8333,7.33333 64.1667,7.66667 63.5,8C 64.1186,10.5441 63.6186,13.0441 62,15.5C 61.6667,15.1667 61.3333,14.8333 61,14.5C 60.2904,15.9733 59.1238,16.6399 57.5,16.5C 57.1667,16.5 56.8333,16.5 56.5,16.5C 56.6716,15.5084 56.3382,14.8417 55.5,14.5C 55.5,13.1667 55.5,11.8333 55.5,10.5C 57.8976,8.02571 60.8976,6.69238 64.5,6.5 Z"/></g>
<g><path style="opacity:1" fill="#b49860" d="M 18.5,12.5 C 18.5,13.5 18.5,14.5 18.5,15.5C 17.7659,16.7079 17.4326,18.0413 17.5,19.5C 16.1667,19.8333 14.8333,20.1667 13.5,20.5C 13.702,18.0504 13.3686,15.717 12.5,13.5C 14.5,13.1667 16.5,12.8333 18.5,12.5 Z"/></g>
<g><path style="opacity:1" fill="#82cc7a" d="M 76.5,9.5 C 77.391,10.1098 78.391,10.4431 79.5,10.5C 79.5,13.8333 79.5,17.1667 79.5,20.5C 77.246,19.8763 75.5794,18.543 74.5,16.5C 75.9331,14.4418 76.5997,12.1085 76.5,9.5 Z"/></g>
<g><path style="opacity:1" fill="#acb77d" d="M 21.5,14.5 C 21.5,15.8333 21.5,17.1667 21.5,18.5C 20.209,18.2627 19.209,18.596 18.5,19.5C 18.6347,21.5542 17.968,23.2209 16.5,24.5C 15.6236,24.6309 14.9569,24.2975 14.5,23.5C 15.8262,22.3578 16.8262,21.0245 17.5,19.5C 17.4326,18.0413 17.7659,16.7079 18.5,15.5C 19.609,15.4431 20.609,15.1098 21.5,14.5 Z"/></g>
<g><path style="opacity:1" fill="#96de92" d="M 30.5,10.5 C 30.665,13.8499 30.4983,17.1832 30,20.5C 29.3333,21.1667 28.6667,21.8333 28,22.5C 24.9608,21.1148 21.7941,20.1148 18.5,19.5C 19.209,18.596 20.209,18.2627 21.5,18.5C 21.5,17.1667 21.5,15.8333 21.5,14.5C 23.8842,10.4427 26.8842,9.10935 30.5,10.5 Z"/></g>
<g><path style="opacity:1" fill="#86d885" d="M 49.5,16.5 C 48.7659,17.7079 48.4326,19.0413 48.5,20.5C 47.5041,20.5858 46.6708,20.2524 46,19.5C 45.5357,20.0944 45.369,20.7611 45.5,21.5C 42.9179,21.9746 40.9179,21.3079 39.5,19.5C 39.2307,9.67056 40.064,9.33723 42,18.5C 43.0674,17.8095 44.2341,17.3095 45.5,17C 44.3279,16.5814 43.3279,15.9147 42.5,15C 45.1549,16.2597 46.9882,15.4264 48,12.5C 48.4101,13.9007 48.9101,15.234 49.5,16.5 Z"/></g>
<g><path style="opacity:1" fill="#8ed785" d="M 38.5,15.5 C 35.7822,17.4226 36.1155,18.756 39.5,19.5C 40.9179,21.3079 42.9179,21.9746 45.5,21.5C 45.5,22.1667 45.5,22.8333 45.5,23.5C 41.4517,23.6054 37.4517,23.2721 33.5,22.5C 32.7611,22.631 32.0944,22.4643 31.5,22C 32.4061,20.3005 32.7394,18.4672 32.5,16.5C 34.1132,16.0557 35.2798,15.0557 36,13.5C 36.4169,14.756 37.2502,15.4226 38.5,15.5 Z"/></g>
<g><path style="opacity:1" fill="#76520f" d="M 67.5,11.5 C 68.6006,12.8484 69.6006,14.3484 70.5,16C 71.7932,16.49 73.1266,16.6567 74.5,16.5C 75.5794,18.543 77.246,19.8763 79.5,20.5C 79.5,21.8333 79.5,23.1667 79.5,24.5C 78.1266,24.6567 76.7932,24.49 75.5,24C 78.3224,21.1446 77.9891,20.3113 74.5,21.5C 71.8333,19.5 69.1667,17.5 66.5,15.5C 65.0462,13.7367 65.3796,12.4033 67.5,11.5 Z"/></g>
<g><path style="opacity:1" fill="#68ab67" d="M 5.5,12.5 C 6.22158,12.9175 6.72158,13.5842 7,14.5C 8.01127,13.6634 9.17793,13.33 10.5,13.5C 11.1667,13.5 11.8333,13.5 12.5,13.5C 13.3686,15.717 13.702,18.0504 13.5,20.5C 12.0256,21.4363 11.0256,22.7697 10.5,24.5C 9.77842,24.9175 9.27842,25.5842 9,26.5C 7.36213,24.2663 5.19547,22.933 2.5,22.5C 4.01648,20.8143 5.34981,18.981 6.5,17C 6.04957,15.7147 5.3829,14.548 4.5,13.5C 4.62358,12.8933 4.95691,12.56 5.5,12.5 Z"/></g>
<g><path style="opacity:1" fill="#76d075" d="M 55.5,14.5 C 56.3382,14.8417 56.6716,15.5084 56.5,16.5C 56.5858,17.4959 56.2524,18.3292 55.5,19C 59.1667,19.3333 62.8333,19.6667 66.5,20C 67.7383,20.69 67.7383,21.19 66.5,21.5C 62.1701,23.0137 57.8368,23.3471 53.5,22.5C 53.448,20.0971 53.7814,17.7638 54.5,15.5C 54.5,14.8333 54.8333,14.5 55.5,14.5 Z"/></g>
<g><path style="opacity:1" fill="#62ae5d" d="M 66.5,15.5 C 69.1667,17.5 71.8333,19.5 74.5,21.5C 73.343,23.1376 72.1764,24.8043 71,26.5C 69.6703,25.4178 68.1703,24.7512 66.5,24.5C 66.5,23.5 66.5,22.5 66.5,21.5C 67.7383,21.19 67.7383,20.69 66.5,20C 62.8333,19.6667 59.1667,19.3333 55.5,19C 56.2524,18.3292 56.5858,17.4959 56.5,16.5C 56.8333,16.5 57.1667,16.5 57.5,16.5C 57.4701,17.4972 57.9701,18.1639 59,18.5C 61.489,17.3944 63.989,16.3944 66.5,15.5 Z"/></g>
<g><path style="opacity:1" fill="#b4a772" d="M 54.5,15.5 C 53.7814,17.7638 53.448,20.0971 53.5,22.5C 52.0335,25.2583 51.3668,24.925 51.5,21.5C 50.209,21.7373 49.209,21.404 48.5,20.5C 48.4326,19.0413 48.7659,17.7079 49.5,16.5C 49.8333,16.5 50.1667,16.5 50.5,16.5C 51.9587,16.5674 53.2921,16.2341 54.5,15.5 Z"/></g>
<g><path style="opacity:1" fill="#7bc371" d="M 30.5,10.5 C 31.1667,10.5 31.8333,10.5 32.5,10.5C 32.5,12.5 32.5,14.5 32.5,16.5C 32.7394,18.4672 32.4061,20.3005 31.5,22C 32.0944,22.4643 32.7611,22.631 33.5,22.5C 34.8654,24.5909 35.5321,26.9242 35.5,29.5C 34.8333,29.5 34.1667,29.5 33.5,29.5C 31.9151,27.9137 31.0818,26.247 31,24.5C 27.0541,24.6082 23.2207,24.6082 19.5,24.5C 18.8333,24.5 18.1667,24.5 17.5,24.5C 17.1667,24.5 16.8333,24.5 16.5,24.5C 17.968,23.2209 18.6347,21.5542 18.5,19.5C 21.7941,20.1148 24.9608,21.1148 28,22.5C 28.6667,21.8333 29.3333,21.1667 30,20.5C 30.4983,17.1832 30.665,13.8499 30.5,10.5 Z"/></g>
<g><path style="opacity:1" fill="#72d073" d="M 33.5,22.5 C 37.4517,23.2721 41.4517,23.6054 45.5,23.5C 45.2786,24.7348 44.6119,25.7348 43.5,26.5C 44.6119,27.2652 45.2786,28.2652 45.5,29.5C 42.1667,29.5 38.8333,29.5 35.5,29.5C 35.5321,26.9242 34.8654,24.5909 33.5,22.5 Z"/></g>
<g><path style="opacity:1" fill="#65b764" d="M 66.5,21.5 C 66.5,22.5 66.5,23.5 66.5,24.5C 65.0222,24.238 63.6888,24.5713 62.5,25.5C 63.0253,26.1924 63.6919,26.6924 64.5,27C 62.4156,27.6972 60.7489,28.8639 59.5,30.5C 58.1667,30.5 56.8333,30.5 55.5,30.5C 55.5,30.1667 55.5,29.8333 55.5,29.5C 56.552,29.6495 57.552,29.4828 58.5,29C 57.7314,26.0737 56.0647,23.9071 53.5,22.5C 57.8368,23.3471 62.1701,23.0137 66.5,21.5 Z"/></g>
<g><path style="opacity:1" fill="#7bc329" d="M 17.5,19.5 C 16.8262,21.0245 15.8262,22.3578 14.5,23.5C 14.9569,24.2975 15.6236,24.6309 16.5,24.5C 16.8333,24.5 17.1667,24.5 17.5,24.5C 15.8814,26.1186 14.2147,27.7853 12.5,29.5C 13.7598,30.3816 14.9264,31.3816 16,32.5C 16.3333,31.8333 16.6667,31.1667 17,30.5C 17.8518,31.5707 18.6851,32.5707 19.5,33.5C 19.5,34.8333 19.5,36.1667 19.5,37.5C 19.1667,37.5 18.8333,37.5 18.5,37.5C 18.8808,35.0582 18.2141,34.3915 16.5,35.5C 13.8463,34.164 11.513,32.4974 9.5,30.5C 10.2245,28.2152 11.5578,26.3819 13.5,25C 12.552,24.5172 11.552,24.3505 10.5,24.5C 11.0256,22.7697 12.0256,21.4363 13.5,20.5C 14.8333,20.1667 16.1667,19.8333 17.5,19.5 Z"/></g>
<g><path style="opacity:1" fill="#71b06d" d="M 33.5,29.5 C 28.1563,29.666 22.8229,29.4994 17.5,29C 17.1667,28.6667 16.8333,28.3333 16.5,28C 17.7101,26.9609 18.7101,25.7942 19.5,24.5C 23.2207,24.6082 27.0541,24.6082 31,24.5C 31.0818,26.247 31.9151,27.9137 33.5,29.5 Z"/></g>
<g><path style="opacity:1" fill="#478d60" d="M 48.5,20.5 C 49.209,21.404 50.209,21.7373 51.5,21.5C 51.3668,24.925 52.0335,25.2583 53.5,22.5C 56.0647,23.9071 57.7314,26.0737 58.5,29C 57.552,29.4828 56.552,29.6495 55.5,29.5C 53.8762,29.6399 52.7096,28.9733 52,27.5C 50.2976,28.3672 48.1309,29.0339 45.5,29.5C 45.2786,28.2652 44.6119,27.2652 43.5,26.5C 44.6119,25.7348 45.2786,24.7348 45.5,23.5C 45.5,22.8333 45.5,22.1667 45.5,21.5C 45.369,20.7611 45.5357,20.0944 46,19.5C 46.6708,20.2524 47.5041,20.5858 48.5,20.5 Z"/></g>
<g><path style="opacity:1" fill="#6eba2d" d="M 2.5,22.5 C 5.19547,22.933 7.36213,24.2663 9,26.5C 9.27842,25.5842 9.77842,24.9175 10.5,24.5C 11.552,24.3505 12.552,24.5172 13.5,25C 11.5578,26.3819 10.2245,28.2152 9.5,30.5C 6.10293,30.057 2.76959,30.7237 -0.5,32.5C -0.5,29.5 -0.5,26.5 -0.5,23.5C 0.391047,22.8902 1.39105,22.5569 2.5,22.5 Z"/></g>
<g><path style="opacity:1" fill="#75bc2d" d="M 79.5,24.5 C 79.5,27.8333 79.5,31.1667 79.5,34.5C 78.5326,33.1938 77.1993,32.5271 75.5,32.5C 76.6256,31.1417 76.6256,29.8084 75.5,28.5C 73.4437,30.0194 71.1104,30.8528 68.5,31C 70.8096,32.4585 71.1429,34.2919 69.5,36.5C 68.7784,36.0825 68.2784,35.4158 68,34.5C 65.8074,34.9174 63.6408,35.2507 61.5,35.5C 61.8588,33.629 62.8588,32.129 64.5,31C 62.5459,30.8382 60.8793,30.6715 59.5,30.5C 60.7489,28.8639 62.4156,27.6972 64.5,27C 63.6919,26.6924 63.0253,26.1924 62.5,25.5C 63.6888,24.5713 65.0222,24.238 66.5,24.5C 68.1703,24.7512 69.6703,25.4178 71,26.5C 72.1764,24.8043 73.343,23.1376 74.5,21.5C 77.9891,20.3113 78.3224,21.1446 75.5,24C 76.7932,24.49 78.1266,24.6567 79.5,24.5 Z"/></g>
<g><path style="opacity:1" fill="#3a6f06" d="M 9.5,30.5 C 11.513,32.4974 13.8463,34.164 16.5,35.5C 18.2141,34.3915 18.8808,35.0582 18.5,37.5C 17.5398,38.5152 16.3731,38.5152 15,37.5C 13.4487,39.894 11.282,41.2273 8.5,41.5C 8.5,42.5 8.5,43.5 8.5,44.5C 7.83333,43.5 7.16667,42.5 6.5,41.5C 5.3157,40.3121 5.3157,39.1455 6.5,38C 4.56138,37.0922 3.56138,35.5922 3.5,33.5C 2.16667,33.5 0.833333,33.5 -0.5,33.5C -0.5,33.1667 -0.5,32.8333 -0.5,32.5C 2.76959,30.7237 6.10293,30.057 9.5,30.5 Z"/></g>
<g><path style="opacity:1" fill="#bdd54f" d="M 55.5,30.5 C 56.8333,30.5 58.1667,30.5 59.5,30.5C 60.8793,30.6715 62.5459,30.8382 64.5,31C 62.8588,32.129 61.8588,33.629 61.5,35.5C 60.8141,34.1516 59.8141,32.985 58.5,32C 55.8078,31.5702 53.1411,31.7369 50.5,32.5C 43.2025,31.4409 35.8692,31.2743 28.5,32C 27.6195,32.7083 26.9528,33.5416 26.5,34.5C 25.8333,34.5 25.1667,34.5 24.5,34.5C 23.6364,33.3117 22.6364,32.1451 21.5,31C 32.8986,30.6788 44.232,30.5121 55.5,30.5 Z"/></g>
<g><path style="opacity:1" fill="#6fa725" d="M 17.5,24.5 C 18.1667,24.5 18.8333,24.5 19.5,24.5C 18.7101,25.7942 17.7101,26.9609 16.5,28C 16.8333,28.3333 17.1667,28.6667 17.5,29C 22.8229,29.4994 28.1563,29.666 33.5,29.5C 34.1667,29.5 34.8333,29.5 35.5,29.5C 38.8333,29.5 42.1667,29.5 45.5,29.5C 48.1309,29.0339 50.2976,28.3672 52,27.5C 52.7096,28.9733 53.8762,29.6399 55.5,29.5C 55.5,29.8333 55.5,30.1667 55.5,30.5C 44.232,30.5121 32.8986,30.6788 21.5,31C 22.6364,32.1451 23.6364,33.3117 24.5,34.5C 24.5,35.1667 24.5,35.8333 24.5,36.5C 22.5887,35.925 20.922,34.925 19.5,33.5C 18.6851,32.5707 17.8518,31.5707 17,30.5C 16.6667,31.1667 16.3333,31.8333 16,32.5C 14.9264,31.3816 13.7598,30.3816 12.5,29.5C 14.2147,27.7853 15.8814,26.1186 17.5,24.5 Z"/></g>
<g><path style="opacity:1" fill="#dce870" d="M 61.5,35.5 C 60.5,36.8333 59.5,38.1667 58.5,39.5C 58.1667,39.5 57.8333,39.5 57.5,39.5C 55.3131,40.4337 53.6464,39.7671 52.5,37.5C 52.6107,36.8826 52.944,36.3826 53.5,36C 52.2899,34.9609 51.2899,33.7942 50.5,32.5C 53.1411,31.7369 55.8078,31.5702 58.5,32C 59.8141,32.985 60.8141,34.1516 61.5,35.5 Z"/></g>
<g><path style="opacity:1" fill="#82952f" d="M 75.5,32.5 C 75.5774,33.7498 76.244,34.5831 77.5,35C 76.7562,36.0386 75.7562,36.5386 74.5,36.5C 74.316,34.0752 73.6493,34.0752 72.5,36.5C 71.4356,33.9364 72.4356,32.6031 75.5,32.5 Z"/></g>
<g><path style="opacity:1" fill="#6b842f" d="M 69.5,36.5 C 69.5,36.8333 69.5,37.1667 69.5,37.5C 68.4168,37.4606 67.4168,37.1272 66.5,36.5C 65.1841,39.028 64.0174,39.028 63,36.5C 62.2276,37.8491 61.0609,38.6824 59.5,39C 61.6447,39.7431 61.8114,40.5765 60,41.5C 58.9701,41.1639 58.4701,40.4972 58.5,39.5C 59.5,38.1667 60.5,36.8333 61.5,35.5C 63.6408,35.2507 65.8074,34.9174 68,34.5C 68.2784,35.4158 68.7784,36.0825 69.5,36.5 Z"/></g>
<g><path style="opacity:1" fill="#3f601b" d="M 75.5,32.5 C 72.4356,32.6031 71.4356,33.9364 72.5,36.5C 73.6493,34.0752 74.316,34.0752 74.5,36.5C 73.5305,37.6293 72.3638,38.6293 71,39.5C 69.9701,39.1639 69.4701,38.4972 69.5,37.5C 69.5,37.1667 69.5,36.8333 69.5,36.5C 71.1429,34.2919 70.8096,32.4585 68.5,31C 71.1104,30.8528 73.4437,30.0194 75.5,28.5C 76.6256,29.8084 76.6256,31.1417 75.5,32.5 Z"/></g>
<g><path style="opacity:1" fill="#2c4a11" d="M -0.5,33.5 C 0.833333,33.5 2.16667,33.5 3.5,33.5C 3.56138,35.5922 4.56138,37.0922 6.5,38C 5.3157,39.1455 5.3157,40.3121 6.5,41.5C 5.08547,41.094 3.9188,41.7607 3,43.5C 1.51299,42.7471 1.34633,41.9138 2.5,41C 1.42317,40.5304 0.423175,40.6971 -0.5,41.5C -0.5,38.8333 -0.5,36.1667 -0.5,33.5 Z"/></g>
<g><path style="opacity:1" fill="#152c18" d="M 75.5,32.5 C 77.1993,32.5271 78.5326,33.1938 79.5,34.5C 79.5,38.1667 79.5,41.8333 79.5,45.5C 70.8333,45.5 62.1667,45.5 53.5,45.5C 53.3893,44.8826 53.056,44.3826 52.5,44C 53.8333,43.6667 55.1667,43.3333 56.5,43C 55.5842,42.7216 54.9175,42.2216 54.5,41.5C 56.1788,41.7148 57.1788,41.0481 57.5,39.5C 57.8333,39.5 58.1667,39.5 58.5,39.5C 58.4701,40.4972 58.9701,41.1639 60,41.5C 61.8114,40.5765 61.6447,39.7431 59.5,39C 61.0609,38.6824 62.2276,37.8491 63,36.5C 64.0174,39.028 65.1841,39.028 66.5,36.5C 67.4168,37.1272 68.4168,37.4606 69.5,37.5C 69.4701,38.4972 69.9701,39.1639 71,39.5C 72.3638,38.6293 73.5305,37.6293 74.5,36.5C 75.7562,36.5386 76.7562,36.0386 77.5,35C 76.244,34.5831 75.5774,33.7498 75.5,32.5 Z"/></g>
<g><path style="opacity:1" fill="#e5ee84" d="M 50.5,32.5 C 51.2899,33.7942 52.2899,34.9609 53.5,36C 52.944,36.3826 52.6107,36.8826 52.5,37.5C 51.5,37.8333 50.8333,38.5 50.5,39.5C 50.5912,41.6977 49.9245,42.0311 48.5,40.5C 48.1034,39.475 47.4368,39.3083 46.5,40C 47.5243,41.3671 47.0243,42.2005 45,42.5C 43.0466,41.246 41.8799,41.9126 41.5,44.5C 40.7611,44.631 40.0944,44.4643 39.5,44C 38.9152,42.6976 38.2485,41.531 37.5,40.5C 32.5884,40.9369 27.9217,40.1036 23.5,38C 24.056,37.6174 24.3893,37.1174 24.5,36.5C 24.5,35.8333 24.5,35.1667 24.5,34.5C 25.1667,34.5 25.8333,34.5 26.5,34.5C 26.9528,33.5416 27.6195,32.7083 28.5,32C 35.8692,31.2743 43.2025,31.4409 50.5,32.5 Z"/></g>
<g><path style="opacity:1" fill="#eef79f" d="M 45.5,38.5 C 46.5624,37.4246 46.5624,36.4246 45.5,35.5C 41.1667,34.1667 36.8333,34.1667 32.5,35.5C 32.1667,35.8333 31.8333,36.1667 31.5,36.5C 32.2427,37.1818 32.9094,37.8485 33.5,38.5C 31.4727,38.6621 29.4727,38.4955 27.5,38C 26.6634,36.9887 26.33,35.8221 26.5,34.5C 32.805,33.5133 39.1383,33.3466 45.5,34C 49.1172,35.9881 49.1172,37.4881 45.5,38.5 Z"/></g>
<g><path style="opacity:1" fill="#f7fdb0" d="M 45.5,38.5 C 41.5,38.5 37.5,38.5 33.5,38.5C 32.9094,37.8485 32.2427,37.1818 31.5,36.5C 31.8333,36.1667 32.1667,35.8333 32.5,35.5C 36.8333,34.1667 41.1667,34.1667 45.5,35.5C 46.5624,36.4246 46.5624,37.4246 45.5,38.5 Z"/></g>
<g><path style="opacity:1" fill="#5d7030" d="M 52.5,37.5 C 53.6464,39.7671 55.3131,40.4337 57.5,39.5C 57.1788,41.0481 56.1788,41.7148 54.5,41.5C 54.5654,41.0618 54.3988,40.7284 54,40.5C 53.6667,41.1667 53.3333,41.8333 53,42.5C 52.1482,41.4293 51.3149,40.4293 50.5,39.5C 50.8333,38.5 51.5,37.8333 52.5,37.5 Z"/></g>
<g><path style="opacity:1" fill="#c4cf43" d="M 19.5,33.5 C 20.922,34.925 22.5887,35.925 24.5,36.5C 24.3893,37.1174 24.056,37.6174 23.5,38C 27.9217,40.1036 32.5884,40.9369 37.5,40.5C 37.7148,42.1788 37.0481,43.1788 35.5,43.5C 31.6982,43.6376 27.6982,43.3043 23.5,42.5C 22.233,40.6829 20.8997,39.0163 19.5,37.5C 19.5,36.1667 19.5,34.8333 19.5,33.5 Z"/></g>
<g><path style="opacity:1" fill="#162c19" d="M 50.5,39.5 C 51.3149,40.4293 52.1482,41.4293 53,42.5C 53.3333,41.8333 53.6667,41.1667 54,40.5C 54.3988,40.7284 54.5654,41.0618 54.5,41.5C 54.9175,42.2216 55.5842,42.7216 56.5,43C 55.1667,43.3333 53.8333,43.6667 52.5,44C 53.056,44.3826 53.3893,44.8826 53.5,45.5C 47.5,45.5 41.5,45.5 35.5,45.5C 35.5,44.8333 35.5,44.1667 35.5,43.5C 37.0481,43.1788 37.7148,42.1788 37.5,40.5C 38.2485,41.531 38.9152,42.6976 39.5,44C 40.0944,44.4643 40.7611,44.631 41.5,44.5C 43.6687,43.9182 46.002,43.9182 48.5,44.5C 48.5,43.1667 48.5,41.8333 48.5,40.5C 49.9245,42.0311 50.5912,41.6977 50.5,39.5 Z"/></g>
<g><path style="opacity:1" fill="#132918" d="M 6.5,41.5 C 7.16667,42.5 7.83333,43.5 8.5,44.5C 10.4771,43.8505 12.3105,43.8505 14,44.5C 16.804,41.9677 18.6373,42.301 19.5,45.5C 12.8333,45.5 6.16667,45.5 -0.5,45.5C -0.5,44.1667 -0.5,42.8333 -0.5,41.5C 0.423175,40.6971 1.42317,40.5304 2.5,41C 1.34633,41.9138 1.51299,42.7471 3,43.5C 3.9188,41.7607 5.08547,41.094 6.5,41.5 Z"/></g>
<g><path style="opacity:1" fill="#9aa524" d="M 18.5,37.5 C 18.8333,37.5 19.1667,37.5 19.5,37.5C 20.8997,39.0163 22.233,40.6829 23.5,42.5C 27.6982,43.3043 31.6982,43.6376 35.5,43.5C 35.5,44.1667 35.5,44.8333 35.5,45.5C 30.1667,45.5 24.8333,45.5 19.5,45.5C 18.6373,42.301 16.804,41.9677 14,44.5C 12.3105,43.8505 10.4771,43.8505 8.5,44.5C 8.5,43.5 8.5,42.5 8.5,41.5C 11.282,41.2273 13.4487,39.894 15,37.5C 16.3731,38.5152 17.5398,38.5152 18.5,37.5 Z"/></g>
<g><path style="opacity:1" fill="#607026" d="M 48.5,40.5 C 48.5,41.8333 48.5,43.1667 48.5,44.5C 46.002,43.9182 43.6687,43.9182 41.5,44.5C 41.8799,41.9126 43.0466,41.246 45,42.5C 47.0243,42.2005 47.5243,41.3671 46.5,40C 47.4368,39.3083 48.1034,39.475 48.5,40.5 Z"/></g>
</svg>
